<svg width="400" height="211" viewBox="0 0 400 211" fill="none" xmlns="http://www.w3.org/2000/svg">
<mask id="path-1-inside-1_7443_31178" fill="white">
<path d="M139.807 0.000976562L139.807 73.4424L0.00124511 73.4424L0.00124706 50.001C0.00124936 22.3868 22.387 0.000973866 50.0013 0.0009745L139.807 0.000976562Z"/>
</mask>
<path d="M139.807 0.000976562L139.807 73.4424L139.807 0.000976562ZM-2.99875 73.4424L-2.99875 50.001C-2.99875 20.7299 20.7302 -2.99903 50.0013 -2.99903L50.0013 3.00097C24.0439 3.00097 3.00125 24.0436 3.00125 50.001L3.00125 73.4424L-2.99875 73.4424ZM-2.99875 50.001C-2.99875 20.7299 20.7302 -2.99903 50.0013 -2.99903L139.807 -2.99902L139.807 3.00098L50.0013 3.00097C24.0439 3.00097 3.00125 24.0436 3.00125 50.001L-2.99875 50.001ZM139.807 73.4424L0.00124511 73.4424L139.807 73.4424Z" fill="white" mask="url(#path-1-inside-1_7443_31178)"/>
<mask id="path-3-inside-2_7443_31178" fill="white">
<path d="M260.193 210.125L260.193 136.684L399.999 136.684L399.999 160.125C399.999 187.739 377.613 210.125 349.999 210.125L260.193 210.125Z"/>
</mask>
<path d="M260.193 210.125L260.193 136.684L260.193 210.125ZM402.999 136.684L402.999 160.125C402.999 189.396 379.27 213.125 349.999 213.125L349.999 207.125C375.956 207.125 396.999 186.082 396.999 160.125L396.999 136.684L402.999 136.684ZM402.999 160.125C402.999 189.396 379.27 213.125 349.999 213.125L260.193 213.125L260.193 207.125L349.999 207.125C375.956 207.125 396.999 186.082 396.999 160.125L402.999 160.125ZM260.193 136.684L399.999 136.684L260.193 136.684Z" fill="white" mask="url(#path-3-inside-2_7443_31178)"/>
<mask id="path-5-inside-3_7443_31178" fill="white">
<path d="M400 73.4414L260.194 73.4414L260.194 -5.98262e-05L350 -5.5702e-05C377.614 -5.44338e-05 400 22.3857 400 50L400 73.4414Z"/>
</mask>
<path d="M400 73.4414L260.194 73.4414L400 73.4414ZM260.194 -3.00006L350 -3.00006C379.271 -3.00005 403 20.7289 403 49.9999L397 49.9999C397 24.0426 375.957 2.99995 350 2.99994L260.194 2.99994L260.194 -3.00006ZM350 -3.00006C379.271 -3.00005 403 20.7289 403 49.9999L403 73.4414L397 73.4414L397 49.9999C397 24.0426 375.957 2.99995 350 2.99994L350 -3.00006ZM260.194 73.4414L260.194 -5.98262e-05L260.194 73.4414Z" fill="white" mask="url(#path-5-inside-3_7443_31178)"/>
<mask id="path-7-inside-4_7443_31178" fill="white">
<path d="M0 136.683L139.806 136.683L139.806 210.124L50 210.124C22.3857 210.124 -1.69935e-05 187.738 -7.80231e-06 160.124L0 136.683Z"/>
</mask>
<path d="M0 136.683L139.806 136.683L0 136.683ZM139.806 213.124L50 213.124C20.7289 213.124 -3.00002 189.395 -3.00001 160.124L2.99999 160.124C2.99998 186.081 24.0426 207.124 50 207.124L139.806 207.124L139.806 213.124ZM50 213.124C20.7289 213.124 -3.00002 189.395 -3.00001 160.124L-3 136.683L3 136.683L2.99999 160.124C2.99998 186.081 24.0426 207.124 50 207.124L50 213.124ZM139.806 136.683L139.806 210.124L139.806 136.683Z" fill="white" mask="url(#path-7-inside-4_7443_31178)"/>
</svg>
