<svg width="528" height="161" viewBox="0 0 528 161" fill="none" xmlns="http://www.w3.org/2000/svg">
<path d="M46.5753 50.6293H45.0241C44.9645 50.2978 44.8535 50.0062 44.6911 49.7543C44.5286 49.5024 44.3298 49.2886 44.0945 49.1129C43.8591 48.9373 43.5956 48.8047 43.304 48.7152C43.0156 48.6257 42.709 48.581 42.3842 48.581C41.7976 48.581 41.2723 48.7285 40.8082 49.0234C40.3475 49.3184 39.983 49.7509 39.7145 50.321C39.4493 50.8911 39.3168 51.5871 39.3168 52.4091C39.3168 53.2377 39.4493 53.937 39.7145 54.5071C39.983 55.0772 40.3492 55.508 40.8132 55.7997C41.2772 56.0914 41.7992 56.2372 42.3793 56.2372C42.7008 56.2372 43.0057 56.1941 43.294 56.108C43.5857 56.0185 43.8492 55.8875 44.0845 55.7152C44.3198 55.5429 44.5187 55.3324 44.6811 55.0838C44.8468 54.8319 44.9612 54.5436 45.0241 54.2188L46.5753 54.2237C46.4924 54.7242 46.3317 55.1849 46.093 55.6058C45.8577 56.0234 45.5545 56.3847 45.1832 56.6896C44.8153 56.9912 44.3944 57.2249 43.9205 57.3906C43.4465 57.5563 42.9295 57.6392 42.3693 57.6392C41.4877 57.6392 40.7022 57.4304 40.0128 57.0128C39.3234 56.5919 38.7798 55.9903 38.3821 55.2081C37.9877 54.4259 37.7905 53.4929 37.7905 52.4091C37.7905 51.322 37.9893 50.389 38.3871 49.6101C38.7848 48.8279 39.3284 48.228 40.0178 47.8104C40.7071 47.3894 41.491 47.179 42.3693 47.179C42.9096 47.179 43.4134 47.2569 43.8807 47.4126C44.3513 47.5651 44.7739 47.7905 45.1484 48.0888C45.523 48.3838 45.8329 48.745 46.0781 49.1726C46.3234 49.5968 46.4891 50.0824 46.5753 50.6293Z" fill="black"/>
<path d="M37.6165 73.6406V72.3182H45.4964V73.6406H42.3196V82.5H40.7884V73.6406H37.6165Z" fill="black"/>
<rect x="56.25" y="24.25" width="31.5" height="80.5" stroke="black" stroke-width="0.5"/>
<rect x="60.25" y="28.25" width="23.5" height="72.5" rx="7.75" stroke="black" stroke-width="0.5"/>
<rect width="24" height="5" transform="translate(60 50)" fill="#EF4444"/>
<rect width="24" height="5" transform="translate(60 75)" fill="#EF4444"/>
<path d="M109.575 50.6293H108.024C107.964 50.2978 107.853 50.0062 107.691 49.7543C107.529 49.5024 107.33 49.2886 107.094 49.1129C106.859 48.9373 106.596 48.8047 106.304 48.7152C106.016 48.6257 105.709 48.581 105.384 48.581C104.798 48.581 104.272 48.7285 103.808 49.0234C103.348 49.3184 102.983 49.7509 102.714 50.321C102.449 50.8911 102.317 51.5871 102.317 52.4091C102.317 53.2377 102.449 53.937 102.714 54.5071C102.983 55.0772 103.349 55.508 103.813 55.7997C104.277 56.0914 104.799 56.2372 105.379 56.2372C105.701 56.2372 106.006 56.1941 106.294 56.108C106.586 56.0185 106.849 55.8875 107.085 55.7152C107.32 55.5429 107.519 55.3324 107.681 55.0838C107.847 54.8319 107.961 54.5436 108.024 54.2188L109.575 54.2237C109.492 54.7242 109.332 55.1849 109.093 55.6058C108.858 56.0234 108.554 56.3847 108.183 56.6896C107.815 56.9912 107.394 57.2249 106.92 57.3906C106.446 57.5563 105.929 57.6392 105.369 57.6392C104.488 57.6392 103.702 57.4304 103.013 57.0128C102.323 56.5919 101.78 55.9903 101.382 55.2081C100.988 54.4259 100.79 53.4929 100.79 52.4091C100.79 51.322 100.989 50.389 101.387 49.6101C101.785 48.8279 102.328 48.228 103.018 47.8104C103.707 47.3894 104.491 47.179 105.369 47.179C105.91 47.179 106.413 47.2569 106.881 47.4126C107.351 47.5651 107.774 47.7905 108.148 48.0888C108.523 48.3838 108.833 48.745 109.078 49.1726C109.323 49.5968 109.489 50.0824 109.575 50.6293Z" fill="black"/>
<path d="M100.616 73.6406V72.3182H108.496V73.6406H105.32V82.5H103.788V73.6406H100.616Z" fill="black"/>
<rect x="119.25" y="24.25" width="31.5" height="80.5" stroke="black" stroke-width="0.5"/>
<rect x="123.25" y="28.25" width="23.5" height="72.5" rx="7.75" stroke="black" stroke-width="0.5"/>
<rect width="24" height="5" transform="translate(123 50)" fill="#EF4444"/>
<rect width="24" height="5" transform="translate(123 75)" fill="#FF6566" fill-opacity="0.2"/>
<path d="M73.714 121.818V132H72.5209L66.9726 124.006H66.8731V132H65.6402V121.818H66.8334L72.4015 129.832H72.501V121.818H73.714ZM79.2238 132.159C78.488 132.159 77.8533 131.997 77.3197 131.672C76.7894 131.344 76.3801 130.886 76.0917 130.3C75.8067 129.71 75.6642 129.024 75.6642 128.241C75.6642 127.459 75.8067 126.77 76.0917 126.173C76.3801 125.573 76.7811 125.106 77.2948 124.771C77.8119 124.433 78.4151 124.264 79.1045 124.264C79.5022 124.264 79.895 124.33 80.2828 124.463C80.6705 124.596 81.0235 124.811 81.3417 125.109C81.6599 125.404 81.9134 125.795 82.1024 126.283C82.2913 126.77 82.3857 127.37 82.3857 128.082V128.58H76.4994V127.565H81.1926C81.1926 127.134 81.1064 126.75 80.934 126.412C80.765 126.074 80.5231 125.807 80.2082 125.612C79.8966 125.416 79.5287 125.318 79.1045 125.318C78.6372 125.318 78.2328 125.434 77.8914 125.666C77.5534 125.895 77.2932 126.193 77.1109 126.561C76.9286 126.929 76.8374 127.323 76.8374 127.744V128.42C76.8374 128.997 76.9369 129.486 77.1357 129.887C77.3379 130.285 77.618 130.588 77.9759 130.797C78.3339 131.002 78.7499 131.105 79.2238 131.105C79.532 131.105 79.8105 131.062 80.059 130.976C80.3109 130.886 80.528 130.754 80.7103 130.578C80.8926 130.399 81.0335 130.177 81.1329 129.912L82.2664 130.23C82.1471 130.615 81.9466 130.953 81.6649 131.244C81.3831 131.533 81.0351 131.758 80.6208 131.92C80.2065 132.08 79.7409 132.159 79.2238 132.159ZM87.2529 135.023C86.6862 135.023 86.199 134.95 85.7913 134.804C85.3836 134.661 85.0439 134.473 84.7721 134.237C84.5036 134.005 84.2899 133.757 84.1308 133.491L85.0654 132.835C85.1715 132.974 85.3057 133.134 85.4681 133.312C85.6305 133.495 85.8526 133.652 86.1343 133.785C86.4194 133.921 86.7922 133.989 87.2529 133.989C87.8694 133.989 88.3782 133.839 88.7792 133.541C89.1803 133.243 89.3808 132.776 89.3808 132.139V130.588H89.2813C89.1952 130.727 89.0725 130.9 88.9134 131.105C88.7577 131.307 88.5323 131.488 88.2373 131.647C87.9456 131.803 87.5512 131.881 87.0541 131.881C86.4376 131.881 85.8841 131.735 85.3936 131.443C84.9063 131.152 84.5202 130.727 84.2352 130.17C83.9535 129.614 83.8126 128.937 83.8126 128.142C83.8126 127.36 83.9501 126.679 84.2252 126.099C84.5003 125.515 84.8831 125.065 85.3737 124.746C85.8642 124.425 86.431 124.264 87.074 124.264C87.5711 124.264 87.9655 124.347 88.2572 124.513C88.5522 124.675 88.7776 124.861 88.9333 125.07C89.0924 125.275 89.2151 125.444 89.3012 125.577H89.4205V124.364H90.5541V132.219C90.5541 132.875 90.4049 133.409 90.1066 133.82C89.8116 134.234 89.4139 134.537 88.9134 134.729C88.4163 134.925 87.8628 135.023 87.2529 135.023ZM87.2132 130.827C87.6838 130.827 88.0815 130.719 88.4063 130.504C88.7311 130.288 88.9781 129.978 89.1471 129.574C89.3161 129.17 89.4007 128.686 89.4007 128.122C89.4007 127.572 89.3178 127.086 89.1521 126.665C88.9864 126.245 88.7411 125.915 88.4163 125.676C88.0915 125.437 87.6904 125.318 87.2132 125.318C86.716 125.318 86.3017 125.444 85.9703 125.696C85.6421 125.948 85.3952 126.286 85.2295 126.71C85.0671 127.134 84.9859 127.605 84.9859 128.122C84.9859 128.652 85.0687 129.121 85.2345 129.529C85.4035 129.933 85.6521 130.252 85.9802 130.484C86.3116 130.712 86.7226 130.827 87.2132 130.827ZM94.949 132.179C94.4651 132.179 94.0259 132.088 93.6315 131.906C93.2371 131.72 92.9239 131.453 92.6919 131.105C92.4598 130.754 92.3438 130.33 92.3438 129.832C92.3438 129.395 92.43 129.04 92.6024 128.768C92.7747 128.493 93.0051 128.278 93.2934 128.122C93.5818 127.966 93.8999 127.85 94.248 127.774C94.5993 127.695 94.9523 127.632 95.3069 127.585C95.7709 127.526 96.1471 127.481 96.4355 127.451C96.7271 127.418 96.9392 127.363 97.0718 127.287C97.2077 127.211 97.2757 127.078 97.2757 126.889V126.849C97.2757 126.359 97.1414 125.978 96.873 125.706C96.6078 125.434 96.2051 125.298 95.6649 125.298C95.1047 125.298 94.6656 125.421 94.3474 125.666C94.0292 125.911 93.8055 126.173 93.6762 126.452L92.5626 126.054C92.7615 125.59 93.0266 125.229 93.358 124.97C93.6928 124.708 94.0574 124.526 94.4518 124.423C94.8495 124.317 95.2406 124.264 95.6251 124.264C95.8704 124.264 96.1521 124.294 96.4703 124.354C96.7918 124.41 97.1017 124.528 97.3999 124.707C97.7016 124.886 97.9518 125.156 98.1507 125.517C98.3495 125.878 98.449 126.362 98.449 126.969V132H97.2757V130.966H97.216C97.1365 131.132 97.0039 131.309 96.8183 131.498C96.6327 131.687 96.3857 131.848 96.0775 131.98C95.7693 132.113 95.3931 132.179 94.949 132.179ZM95.1279 131.125C95.5919 131.125 95.983 131.034 96.3012 130.852C96.6227 130.669 96.8647 130.434 97.0271 130.146C97.1928 129.857 97.2757 129.554 97.2757 129.236V128.162C97.2259 128.222 97.1166 128.276 96.9475 128.326C96.7818 128.372 96.5896 128.414 96.3708 128.45C96.1554 128.483 95.9449 128.513 95.7394 128.54C95.5373 128.563 95.3732 128.583 95.2472 128.599C94.9423 128.639 94.6573 128.704 94.3921 128.793C94.1303 128.879 93.9182 129.01 93.7558 129.186C93.5967 129.358 93.5171 129.594 93.5171 129.892C93.5171 130.3 93.6679 130.608 93.9695 130.817C94.2745 131.022 94.6606 131.125 95.1279 131.125ZM103.911 124.364V125.358H99.9541V124.364H103.911ZM101.108 122.534H102.281V129.812C102.281 130.144 102.329 130.393 102.425 130.558C102.524 130.721 102.65 130.83 102.803 130.886C102.959 130.939 103.123 130.966 103.295 130.966C103.424 130.966 103.53 130.959 103.613 130.946C103.696 130.929 103.762 130.916 103.812 130.906L104.051 131.96C103.971 131.99 103.86 132.02 103.718 132.05C103.575 132.083 103.394 132.099 103.176 132.099C102.844 132.099 102.519 132.028 102.201 131.886C101.886 131.743 101.625 131.526 101.416 131.234C101.21 130.943 101.108 130.575 101.108 130.131V122.534ZM105.676 132V124.364H106.85V132H105.676ZM106.273 123.091C106.044 123.091 105.847 123.013 105.681 122.857C105.519 122.701 105.438 122.514 105.438 122.295C105.438 122.077 105.519 121.889 105.681 121.734C105.847 121.578 106.044 121.5 106.273 121.5C106.502 121.5 106.697 121.578 106.86 121.734C107.025 121.889 107.108 122.077 107.108 122.295C107.108 122.514 107.025 122.701 106.86 122.857C106.697 123.013 106.502 123.091 106.273 123.091ZM115.243 124.364L112.419 132H111.226L108.402 124.364H109.675L111.783 130.449H111.862L113.97 124.364H115.243ZM119.72 132.159C118.984 132.159 118.349 131.997 117.816 131.672C117.285 131.344 116.876 130.886 116.588 130.3C116.303 129.71 116.16 129.024 116.16 128.241C116.16 127.459 116.303 126.77 116.588 126.173C116.876 125.573 117.277 125.106 117.791 124.771C118.308 124.433 118.911 124.264 119.601 124.264C119.998 124.264 120.391 124.33 120.779 124.463C121.167 124.596 121.52 124.811 121.838 125.109C122.156 125.404 122.41 125.795 122.598 126.283C122.787 126.77 122.882 127.37 122.882 128.082V128.58H116.995V127.565H121.689C121.689 127.134 121.602 126.75 121.43 126.412C121.261 126.074 121.019 125.807 120.704 125.612C120.393 125.416 120.025 125.318 119.601 125.318C119.133 125.318 118.729 125.434 118.388 125.666C118.049 125.895 117.789 126.193 117.607 126.561C117.425 126.929 117.334 127.323 117.334 127.744V128.42C117.334 128.997 117.433 129.486 117.632 129.887C117.834 130.285 118.114 130.588 118.472 130.797C118.83 131.002 119.246 131.105 119.72 131.105C120.028 131.105 120.307 131.062 120.555 130.976C120.807 130.886 121.024 130.754 121.206 130.578C121.389 130.399 121.53 130.177 121.629 129.912L122.763 130.23C122.643 130.615 122.443 130.953 122.161 131.244C121.879 131.533 121.531 131.758 121.117 131.92C120.703 132.08 120.237 132.159 119.72 132.159Z" fill="#0C1617"/>
<path d="M237.575 50.6293H236.024C235.964 50.2978 235.853 50.0062 235.691 49.7543C235.529 49.5024 235.33 49.2886 235.094 49.1129C234.859 48.9373 234.596 48.8047 234.304 48.7152C234.016 48.6257 233.709 48.581 233.384 48.581C232.798 48.581 232.272 48.7285 231.808 49.0234C231.348 49.3184 230.983 49.7509 230.714 50.321C230.449 50.8911 230.317 51.5871 230.317 52.4091C230.317 53.2377 230.449 53.937 230.714 54.5071C230.983 55.0772 231.349 55.508 231.813 55.7997C232.277 56.0914 232.799 56.2372 233.379 56.2372C233.701 56.2372 234.006 56.1941 234.294 56.108C234.586 56.0185 234.849 55.8875 235.085 55.7152C235.32 55.5429 235.519 55.3324 235.681 55.0838C235.847 54.8319 235.961 54.5436 236.024 54.2188L237.575 54.2237C237.492 54.7242 237.332 55.1849 237.093 55.6058C236.858 56.0234 236.554 56.3847 236.183 56.6896C235.815 56.9912 235.394 57.2249 234.92 57.3906C234.446 57.5563 233.929 57.6392 233.369 57.6392C232.488 57.6392 231.702 57.4304 231.013 57.0128C230.323 56.5919 229.78 55.9903 229.382 55.2081C228.988 54.4259 228.79 53.4929 228.79 52.4091C228.79 51.322 228.989 50.389 229.387 49.6101C229.785 48.8279 230.328 48.228 231.018 47.8104C231.707 47.3894 232.491 47.179 233.369 47.179C233.91 47.179 234.413 47.2569 234.881 47.4126C235.351 47.5651 235.774 47.7905 236.148 48.0888C236.523 48.3838 236.833 48.745 237.078 49.1726C237.323 49.5968 237.489 50.0824 237.575 50.6293Z" fill="black"/>
<path d="M228.616 73.6406V72.3182H236.496V73.6406H233.32V82.5H231.788V73.6406H228.616Z" fill="black"/>
<rect x="247.25" y="24.25" width="31.5" height="80.5" stroke="black" stroke-width="0.5"/>
<rect x="251.25" y="28.25" width="23.5" height="72.5" rx="7.75" stroke="black" stroke-width="0.5"/>
<rect width="24" height="5" transform="translate(251 50)" fill="#EF4444"/>
<path d="M200.599 132V121.818H204.04C204.838 121.818 205.491 121.962 205.998 122.251C206.509 122.536 206.887 122.922 207.132 123.409C207.377 123.896 207.5 124.44 207.5 125.04C207.5 125.64 207.377 126.185 207.132 126.675C206.89 127.166 206.515 127.557 206.008 127.849C205.501 128.137 204.852 128.281 204.059 128.281H201.593V127.188H204.02C204.566 127.188 205.006 127.093 205.337 126.904C205.669 126.715 205.909 126.46 206.058 126.138C206.21 125.814 206.287 125.447 206.287 125.04C206.287 124.632 206.21 124.268 206.058 123.946C205.909 123.625 205.667 123.373 205.332 123.19C204.997 123.005 204.553 122.912 204 122.912H201.832V132H200.599ZM209.327 132V124.364H210.46V125.517H210.54C210.679 125.139 210.931 124.833 211.296 124.597C211.66 124.362 212.071 124.244 212.528 124.244C212.615 124.244 212.722 124.246 212.852 124.249C212.981 124.253 213.079 124.258 213.145 124.264V125.457C213.105 125.447 213.014 125.433 212.872 125.413C212.732 125.389 212.585 125.378 212.429 125.378C212.058 125.378 211.726 125.456 211.435 125.612C211.146 125.764 210.918 125.976 210.749 126.248C210.583 126.516 210.5 126.823 210.5 127.168V132H209.327ZM217.505 132.159C216.769 132.159 216.135 131.997 215.601 131.672C215.071 131.344 214.661 130.886 214.373 130.3C214.088 129.71 213.945 129.024 213.945 128.241C213.945 127.459 214.088 126.77 214.373 126.173C214.661 125.573 215.062 125.106 215.576 124.771C216.093 124.433 216.696 124.264 217.386 124.264C217.783 124.264 218.176 124.33 218.564 124.463C218.952 124.596 219.305 124.811 219.623 125.109C219.941 125.404 220.195 125.795 220.384 126.283C220.573 126.77 220.667 127.37 220.667 128.082V128.58H214.781V127.565H219.474C219.474 127.134 219.388 126.75 219.215 126.412C219.046 126.074 218.804 125.807 218.489 125.612C218.178 125.416 217.81 125.318 217.386 125.318C216.918 125.318 216.514 125.434 216.173 125.666C215.835 125.895 215.574 126.193 215.392 126.561C215.21 126.929 215.119 127.323 215.119 127.744V128.42C215.119 128.997 215.218 129.486 215.417 129.887C215.619 130.285 215.899 130.588 216.257 130.797C216.615 131.002 217.031 131.105 217.505 131.105C217.813 131.105 218.092 131.062 218.34 130.976C218.592 130.886 218.809 130.754 218.992 130.578C219.174 130.399 219.315 130.177 219.414 129.912L220.548 130.23C220.428 130.615 220.228 130.953 219.946 131.244C219.664 131.533 219.316 131.758 218.902 131.92C218.488 132.08 218.022 132.159 217.505 132.159ZM223.625 121.818V132H222.452V121.818H223.625ZM225.774 132V124.364H226.947V132H225.774ZM226.371 123.091C226.142 123.091 225.945 123.013 225.779 122.857C225.617 122.701 225.535 122.514 225.535 122.295C225.535 122.077 225.617 121.889 225.779 121.734C225.945 121.578 226.142 121.5 226.371 121.5C226.599 121.5 226.795 121.578 226.957 121.734C227.123 121.889 227.206 122.077 227.206 122.295C227.206 122.514 227.123 122.701 226.957 122.857C226.795 123.013 226.599 123.091 226.371 123.091ZM229.096 132V124.364H230.23V125.557H230.329C230.488 125.149 230.745 124.833 231.1 124.607C231.455 124.379 231.88 124.264 232.378 124.264C232.881 124.264 233.301 124.379 233.635 124.607C233.973 124.833 234.237 125.149 234.426 125.557H234.505C234.701 125.162 234.994 124.849 235.385 124.617C235.776 124.382 236.245 124.264 236.792 124.264C237.475 124.264 238.034 124.478 238.468 124.906C238.902 125.33 239.119 125.991 239.119 126.889V132H237.946V126.889C237.946 126.326 237.792 125.923 237.483 125.681C237.175 125.439 236.812 125.318 236.395 125.318C235.858 125.318 235.442 125.481 235.147 125.805C234.852 126.127 234.704 126.535 234.704 127.028V132H233.511V126.77C233.511 126.336 233.37 125.986 233.089 125.721C232.807 125.452 232.444 125.318 232 125.318C231.695 125.318 231.41 125.399 231.145 125.562C230.883 125.724 230.671 125.95 230.508 126.238C230.349 126.523 230.27 126.853 230.27 127.227V132H229.096ZM241.264 132V124.364H242.438V132H241.264ZM241.861 123.091C241.632 123.091 241.435 123.013 241.269 122.857C241.107 122.701 241.026 122.514 241.026 122.295C241.026 122.077 241.107 121.889 241.269 121.734C241.435 121.578 241.632 121.5 241.861 121.5C242.09 121.5 242.285 121.578 242.448 121.734C242.613 121.889 242.696 122.077 242.696 122.295C242.696 122.514 242.613 122.701 242.448 122.857C242.285 123.013 242.09 123.091 241.861 123.091ZM245.76 127.406V132H244.587V124.364H245.72V125.557H245.82C245.998 125.169 246.27 124.857 246.635 124.622C246.999 124.384 247.47 124.264 248.047 124.264C248.564 124.264 249.016 124.37 249.404 124.582C249.792 124.791 250.093 125.109 250.309 125.537C250.524 125.961 250.632 126.498 250.632 127.148V132H249.459V127.227C249.459 126.627 249.303 126.16 248.991 125.825C248.68 125.487 248.252 125.318 247.709 125.318C247.334 125.318 246.999 125.399 246.704 125.562C246.413 125.724 246.182 125.961 246.013 126.273C245.844 126.584 245.76 126.962 245.76 127.406ZM255.023 132.179C254.539 132.179 254.1 132.088 253.706 131.906C253.311 131.72 252.998 131.453 252.766 131.105C252.534 130.754 252.418 130.33 252.418 129.832C252.418 129.395 252.504 129.04 252.677 128.768C252.849 128.493 253.079 128.278 253.368 128.122C253.656 127.966 253.974 127.85 254.322 127.774C254.674 127.695 255.026 127.632 255.381 127.585C255.845 127.526 256.221 127.481 256.51 127.451C256.801 127.418 257.013 127.363 257.146 127.287C257.282 127.211 257.35 127.078 257.35 126.889V126.849C257.35 126.359 257.216 125.978 256.947 125.706C256.682 125.434 256.279 125.298 255.739 125.298C255.179 125.298 254.74 125.421 254.422 125.666C254.103 125.911 253.88 126.173 253.75 126.452L252.637 126.054C252.836 125.59 253.101 125.229 253.432 124.97C253.767 124.708 254.132 124.526 254.526 124.423C254.924 124.317 255.315 124.264 255.699 124.264C255.945 124.264 256.226 124.294 256.544 124.354C256.866 124.41 257.176 124.528 257.474 124.707C257.776 124.886 258.026 125.156 258.225 125.517C258.424 125.878 258.523 126.362 258.523 126.969V132H257.35V130.966H257.29C257.211 131.132 257.078 131.309 256.892 131.498C256.707 131.687 256.46 131.848 256.152 131.98C255.843 132.113 255.467 132.179 255.023 132.179ZM255.202 131.125C255.666 131.125 256.057 131.034 256.375 130.852C256.697 130.669 256.939 130.434 257.101 130.146C257.267 129.857 257.35 129.554 257.35 129.236V128.162C257.3 128.222 257.191 128.276 257.022 128.326C256.856 128.372 256.664 128.414 256.445 128.45C256.23 128.483 256.019 128.513 255.814 128.54C255.611 128.563 255.447 128.583 255.321 128.599C255.017 128.639 254.732 128.704 254.466 128.793C254.205 128.879 253.992 129.01 253.83 129.186C253.671 129.358 253.591 129.594 253.591 129.892C253.591 130.3 253.742 130.608 254.044 130.817C254.349 131.022 254.735 131.125 255.202 131.125ZM260.665 132V124.364H261.798V125.517H261.878C262.017 125.139 262.269 124.833 262.633 124.597C262.998 124.362 263.409 124.244 263.866 124.244C263.953 124.244 264.06 124.246 264.19 124.249C264.319 124.253 264.417 124.258 264.483 124.264V125.457C264.443 125.447 264.352 125.433 264.209 125.413C264.07 125.389 263.923 125.378 263.767 125.378C263.396 125.378 263.064 125.456 262.773 125.612C262.484 125.764 262.256 125.976 262.087 126.248C261.921 126.516 261.838 126.823 261.838 127.168V132H260.665ZM266.862 134.864C266.663 134.864 266.486 134.847 266.33 134.814C266.174 134.784 266.066 134.754 266.007 134.724L266.305 133.69C266.59 133.763 266.842 133.79 267.061 133.77C267.279 133.75 267.473 133.652 267.642 133.477C267.815 133.304 267.972 133.024 268.115 132.636L268.333 132.04L265.509 124.364H266.782L268.89 130.449H268.97L271.078 124.364H272.35L269.109 133.114C268.963 133.508 268.782 133.835 268.567 134.093C268.352 134.355 268.101 134.549 267.816 134.675C267.535 134.801 267.216 134.864 266.862 134.864ZM277.996 132V121.818H281.436C282.235 121.818 282.888 121.962 283.395 122.251C283.905 122.536 284.283 122.922 284.528 123.409C284.774 123.896 284.896 124.44 284.896 125.04C284.896 125.64 284.774 126.185 284.528 126.675C284.286 127.166 283.912 127.557 283.405 127.849C282.898 128.137 282.248 128.281 281.456 128.281H278.99V127.188H281.416C281.963 127.188 282.402 127.093 282.734 126.904C283.065 126.715 283.305 126.46 283.454 126.138C283.607 125.814 283.683 125.447 283.683 125.04C283.683 124.632 283.607 124.268 283.454 123.946C283.305 123.625 283.063 123.373 282.729 123.19C282.394 123.005 281.95 122.912 281.396 122.912H279.229V132H277.996ZM289.744 132.159C289.054 132.159 288.449 131.995 287.929 131.667C287.412 131.339 287.007 130.88 286.716 130.29C286.427 129.7 286.283 129.01 286.283 128.222C286.283 127.426 286.427 126.732 286.716 126.138C287.007 125.545 287.412 125.085 287.929 124.756C288.449 124.428 289.054 124.264 289.744 124.264C290.433 124.264 291.036 124.428 291.553 124.756C292.074 125.085 292.478 125.545 292.766 126.138C293.058 126.732 293.204 127.426 293.204 128.222C293.204 129.01 293.058 129.7 292.766 130.29C292.478 130.88 292.074 131.339 291.553 131.667C291.036 131.995 290.433 132.159 289.744 132.159ZM289.744 131.105C290.267 131.105 290.698 130.971 291.036 130.702C291.374 130.434 291.624 130.081 291.787 129.643C291.949 129.206 292.03 128.732 292.03 128.222C292.03 127.711 291.949 127.236 291.787 126.795C291.624 126.354 291.374 125.998 291.036 125.726C290.698 125.454 290.267 125.318 289.744 125.318C289.22 125.318 288.789 125.454 288.451 125.726C288.113 125.998 287.863 126.354 287.7 126.795C287.538 127.236 287.457 127.711 287.457 128.222C287.457 128.732 287.538 129.206 287.7 129.643C287.863 130.081 288.113 130.434 288.451 130.702C288.789 130.971 289.22 131.105 289.744 131.105ZM300.404 126.074L299.35 126.372C299.284 126.196 299.186 126.026 299.057 125.86C298.931 125.691 298.758 125.552 298.54 125.442C298.321 125.333 298.041 125.278 297.699 125.278C297.232 125.278 296.843 125.386 296.531 125.602C296.223 125.814 296.069 126.084 296.069 126.412C296.069 126.704 296.175 126.934 296.387 127.103C296.599 127.272 296.93 127.413 297.381 127.526L298.515 127.804C299.197 127.97 299.706 128.223 300.041 128.565C300.376 128.903 300.543 129.339 300.543 129.872C300.543 130.31 300.417 130.701 300.165 131.045C299.917 131.39 299.569 131.662 299.121 131.861C298.674 132.06 298.153 132.159 297.56 132.159C296.781 132.159 296.137 131.99 295.626 131.652C295.116 131.314 294.793 130.82 294.657 130.17L295.77 129.892C295.876 130.303 296.077 130.611 296.372 130.817C296.67 131.022 297.06 131.125 297.54 131.125C298.087 131.125 298.521 131.009 298.843 130.777C299.168 130.542 299.33 130.26 299.33 129.932C299.33 129.667 299.237 129.445 299.052 129.266C298.866 129.083 298.581 128.947 298.196 128.858L296.924 128.56C296.224 128.394 295.711 128.137 295.383 127.789C295.058 127.438 294.895 126.999 294.895 126.472C294.895 126.041 295.016 125.66 295.258 125.328C295.504 124.997 295.837 124.737 296.258 124.548C296.682 124.359 297.162 124.264 297.699 124.264C298.455 124.264 299.048 124.43 299.479 124.761C299.913 125.093 300.222 125.53 300.404 126.074ZM302.309 132V124.364H303.483V132H302.309ZM302.906 123.091C302.677 123.091 302.48 123.013 302.314 122.857C302.152 122.701 302.071 122.514 302.071 122.295C302.071 122.077 302.152 121.889 302.314 121.734C302.48 121.578 302.677 121.5 302.906 121.5C303.134 121.5 303.33 121.578 303.492 121.734C303.658 121.889 303.741 122.077 303.741 122.295C303.741 122.514 303.658 122.701 303.492 122.857C303.33 123.013 303.134 123.091 302.906 123.091ZM308.953 124.364V125.358H304.995V124.364H308.953ZM306.149 122.534H307.322V129.812C307.322 130.144 307.37 130.393 307.466 130.558C307.565 130.721 307.691 130.83 307.844 130.886C308 130.939 308.164 130.966 308.336 130.966C308.465 130.966 308.571 130.959 308.654 130.946C308.737 130.929 308.803 130.916 308.853 130.906L309.092 131.96C309.012 131.99 308.901 132.02 308.759 132.05C308.616 132.083 308.435 132.099 308.217 132.099C307.885 132.099 307.56 132.028 307.242 131.886C306.927 131.743 306.666 131.526 306.457 131.234C306.251 130.943 306.149 130.575 306.149 130.131V122.534ZM310.717 132V124.364H311.891V132H310.717ZM311.314 123.091C311.085 123.091 310.888 123.013 310.722 122.857C310.56 122.701 310.479 122.514 310.479 122.295C310.479 122.077 310.56 121.889 310.722 121.734C310.888 121.578 311.085 121.5 311.314 121.5C311.543 121.5 311.738 121.578 311.901 121.734C312.066 121.889 312.149 122.077 312.149 122.295C312.149 122.514 312.066 122.701 311.901 122.857C311.738 123.013 311.543 123.091 311.314 123.091ZM320.284 124.364L317.46 132H316.267L313.443 124.364H314.716L316.824 130.449H316.903L319.011 124.364H320.284ZM324.761 132.159C324.025 132.159 323.39 131.997 322.857 131.672C322.326 131.344 321.917 130.886 321.629 130.3C321.344 129.71 321.201 129.024 321.201 128.241C321.201 127.459 321.344 126.77 321.629 126.173C321.917 125.573 322.318 125.106 322.832 124.771C323.349 124.433 323.952 124.264 324.642 124.264C325.039 124.264 325.432 124.33 325.82 124.463C326.208 124.596 326.561 124.811 326.879 125.109C327.197 125.404 327.451 125.795 327.639 126.283C327.828 126.77 327.923 127.37 327.923 128.082V128.58H322.036V127.565H326.73C326.73 127.134 326.643 126.75 326.471 126.412C326.302 126.074 326.06 125.807 325.745 125.612C325.434 125.416 325.066 125.318 324.642 125.318C324.174 125.318 323.77 125.434 323.429 125.666C323.09 125.895 322.83 126.193 322.648 126.561C322.466 126.929 322.375 127.323 322.375 127.744V128.42C322.375 128.997 322.474 129.486 322.673 129.887C322.875 130.285 323.155 130.588 323.513 130.797C323.871 131.002 324.287 131.105 324.761 131.105C325.069 131.105 325.348 131.062 325.596 130.976C325.848 130.886 326.065 130.754 326.247 130.578C326.43 130.399 326.571 130.177 326.67 129.912L327.804 130.23C327.684 130.615 327.484 130.953 327.202 131.244C326.92 131.533 326.572 131.758 326.158 131.92C325.744 132.08 325.278 132.159 324.761 132.159Z" fill="#0C1617"/>
<path d="M386.575 50.6293H385.024C384.964 50.2978 384.853 50.0062 384.691 49.7543C384.529 49.5024 384.33 49.2886 384.094 49.1129C383.859 48.9373 383.596 48.8047 383.304 48.7152C383.016 48.6257 382.709 48.581 382.384 48.581C381.798 48.581 381.272 48.7285 380.808 49.0234C380.348 49.3184 379.983 49.7509 379.714 50.321C379.449 50.8911 379.317 51.5871 379.317 52.4091C379.317 53.2377 379.449 53.937 379.714 54.5071C379.983 55.0772 380.349 55.508 380.813 55.7997C381.277 56.0914 381.799 56.2372 382.379 56.2372C382.701 56.2372 383.006 56.1941 383.294 56.108C383.586 56.0185 383.849 55.8875 384.085 55.7152C384.32 55.5429 384.519 55.3324 384.681 55.0838C384.847 54.8319 384.961 54.5436 385.024 54.2188L386.575 54.2237C386.492 54.7242 386.332 55.1849 386.093 55.6058C385.858 56.0234 385.554 56.3847 385.183 56.6896C384.815 56.9912 384.394 57.2249 383.92 57.3906C383.446 57.5563 382.929 57.6392 382.369 57.6392C381.488 57.6392 380.702 57.4304 380.013 57.0128C379.323 56.5919 378.78 55.9903 378.382 55.2081C377.988 54.4259 377.79 53.4929 377.79 52.4091C377.79 51.322 377.989 50.389 378.387 49.6101C378.785 48.8279 379.328 48.228 380.018 47.8104C380.707 47.3894 381.491 47.179 382.369 47.179C382.91 47.179 383.413 47.2569 383.881 47.4126C384.351 47.5651 384.774 47.7905 385.148 48.0888C385.523 48.3838 385.833 48.745 386.078 49.1726C386.323 49.5968 386.489 50.0824 386.575 50.6293Z" fill="black"/>
<path d="M377.616 73.6406V72.3182H385.496V73.6406H382.32V82.5H380.788V73.6406H377.616Z" fill="black"/>
<rect x="396.25" y="24.25" width="31.5" height="80.5" stroke="black" stroke-width="0.5"/>
<rect x="400.25" y="28.25" width="23.5" height="72.5" rx="7.75" stroke="black" stroke-width="0.5"/>
<rect width="24" height="5" transform="translate(400 75)" fill="#EF4444"/>
<path d="M449.575 50.6293H448.024C447.964 50.2978 447.853 50.0062 447.691 49.7543C447.529 49.5024 447.33 49.2886 447.094 49.1129C446.859 48.9373 446.596 48.8047 446.304 48.7152C446.016 48.6257 445.709 48.581 445.384 48.581C444.798 48.581 444.272 48.7285 443.808 49.0234C443.348 49.3184 442.983 49.7509 442.714 50.321C442.449 50.8911 442.317 51.5871 442.317 52.4091C442.317 53.2377 442.449 53.937 442.714 54.5071C442.983 55.0772 443.349 55.508 443.813 55.7997C444.277 56.0914 444.799 56.2372 445.379 56.2372C445.701 56.2372 446.006 56.1941 446.294 56.108C446.586 56.0185 446.849 55.8875 447.085 55.7152C447.32 55.5429 447.519 55.3324 447.681 55.0838C447.847 54.8319 447.961 54.5436 448.024 54.2188L449.575 54.2237C449.492 54.7242 449.332 55.1849 449.093 55.6058C448.858 56.0234 448.554 56.3847 448.183 56.6896C447.815 56.9912 447.394 57.2249 446.92 57.3906C446.446 57.5563 445.929 57.6392 445.369 57.6392C444.488 57.6392 443.702 57.4304 443.013 57.0128C442.323 56.5919 441.78 55.9903 441.382 55.2081C440.988 54.4259 440.79 53.4929 440.79 52.4091C440.79 51.322 440.989 50.389 441.387 49.6101C441.785 48.8279 442.328 48.228 443.018 47.8104C443.707 47.3894 444.491 47.179 445.369 47.179C445.91 47.179 446.413 47.2569 446.881 47.4126C447.351 47.5651 447.774 47.7905 448.148 48.0888C448.523 48.3838 448.833 48.745 449.078 49.1726C449.323 49.5968 449.489 50.0824 449.575 50.6293Z" fill="black"/>
<path d="M440.616 73.6406V72.3182H448.496V73.6406H445.32V82.5H443.788V73.6406H440.616Z" fill="black"/>
<rect x="459.25" y="24.25" width="31.5" height="80.5" stroke="black" stroke-width="0.5"/>
<rect x="463.25" y="28.25" width="23.5" height="72.5" rx="7.75" stroke="black" stroke-width="0.5"/>
<path d="M415.261 121.818V132H414.028V121.818H415.261ZM418.747 127.406V132H417.574V124.364H418.707V125.557H418.807C418.986 125.169 419.258 124.857 419.622 124.622C419.987 124.384 420.457 124.264 421.034 124.264C421.551 124.264 422.004 124.37 422.391 124.582C422.779 124.791 423.081 125.109 423.296 125.537C423.512 125.961 423.619 126.498 423.619 127.148V132H422.446V127.227C422.446 126.627 422.29 126.16 421.979 125.825C421.667 125.487 421.24 125.318 420.696 125.318C420.321 125.318 419.987 125.399 419.692 125.562C419.4 125.724 419.17 125.961 419.001 126.273C418.832 126.584 418.747 126.962 418.747 127.406ZM431.734 124.364L428.91 132H427.717L424.893 124.364H426.166L428.274 130.449H428.354L430.461 124.364H431.734ZM435.298 132.179C434.814 132.179 434.375 132.088 433.98 131.906C433.586 131.72 433.272 131.453 433.04 131.105C432.808 130.754 432.692 130.33 432.692 129.832C432.692 129.395 432.779 129.04 432.951 128.768C433.123 128.493 433.354 128.278 433.642 128.122C433.93 127.966 434.249 127.85 434.597 127.774C434.948 127.695 435.301 127.632 435.656 127.585C436.12 127.526 436.496 127.481 436.784 127.451C437.076 127.418 437.288 127.363 437.42 127.287C437.556 127.211 437.624 127.078 437.624 126.889V126.849C437.624 126.359 437.49 125.978 437.222 125.706C436.956 125.434 436.554 125.298 436.013 125.298C435.453 125.298 435.014 125.421 434.696 125.666C434.378 125.911 434.154 126.173 434.025 126.452L432.911 126.054C433.11 125.59 433.375 125.229 433.707 124.97C434.041 124.708 434.406 124.526 434.8 124.423C435.198 124.317 435.589 124.264 435.974 124.264C436.219 124.264 436.501 124.294 436.819 124.354C437.14 124.41 437.45 124.528 437.749 124.707C438.05 124.886 438.3 125.156 438.499 125.517C438.698 125.878 438.798 126.362 438.798 126.969V132H437.624V130.966H437.565C437.485 131.132 437.353 131.309 437.167 131.498C436.981 131.687 436.734 131.848 436.426 131.98C436.118 132.113 435.742 132.179 435.298 132.179ZM435.477 131.125C435.941 131.125 436.332 131.034 436.65 130.852C436.971 130.669 437.213 130.434 437.376 130.146C437.541 129.857 437.624 129.554 437.624 129.236V128.162C437.575 128.222 437.465 128.276 437.296 128.326C437.13 128.372 436.938 128.414 436.719 128.45C436.504 128.483 436.294 128.513 436.088 128.54C435.886 128.563 435.722 128.583 435.596 128.599C435.291 128.639 435.006 128.704 434.741 128.793C434.479 128.879 434.267 129.01 434.104 129.186C433.945 129.358 433.866 129.594 433.866 129.892C433.866 130.3 434.017 130.608 434.318 130.817C434.623 131.022 435.009 131.125 435.477 131.125ZM442.112 121.818V132H440.939V121.818H442.112ZM444.261 132V124.364H445.435V132H444.261ZM444.858 123.091C444.629 123.091 444.432 123.013 444.266 122.857C444.104 122.701 444.023 122.514 444.023 122.295C444.023 122.077 444.104 121.889 444.266 121.734C444.432 121.578 444.629 121.5 444.858 121.5C445.087 121.5 445.282 121.578 445.445 121.734C445.61 121.889 445.693 122.077 445.693 122.295C445.693 122.514 445.61 122.701 445.445 122.857C445.282 123.013 445.087 123.091 444.858 123.091ZM450.467 132.159C449.831 132.159 449.269 131.998 448.782 131.677C448.295 131.352 447.913 130.895 447.638 130.305C447.363 129.711 447.226 129.01 447.226 128.202C447.226 127.4 447.363 126.704 447.638 126.114C447.913 125.524 448.296 125.068 448.787 124.746C449.277 124.425 449.844 124.264 450.487 124.264C450.984 124.264 451.377 124.347 451.665 124.513C451.957 124.675 452.179 124.861 452.331 125.07C452.487 125.275 452.608 125.444 452.694 125.577H452.794V121.818H453.967V132H452.834V130.827H452.694C452.608 130.966 452.486 131.142 452.327 131.354C452.167 131.562 451.94 131.75 451.645 131.915C451.35 132.078 450.958 132.159 450.467 132.159ZM450.626 131.105C451.097 131.105 451.495 130.982 451.819 130.737C452.144 130.489 452.391 130.146 452.56 129.708C452.729 129.267 452.814 128.759 452.814 128.182C452.814 127.612 452.731 127.113 452.565 126.685C452.399 126.254 452.154 125.92 451.829 125.681C451.505 125.439 451.104 125.318 450.626 125.318C450.129 125.318 449.715 125.446 449.383 125.701C449.055 125.953 448.808 126.296 448.643 126.73C448.48 127.161 448.399 127.645 448.399 128.182C448.399 128.725 448.482 129.219 448.648 129.663C448.817 130.104 449.065 130.455 449.393 130.717C449.725 130.976 450.136 131.105 450.626 131.105Z" fill="#0C1617"/>
</svg>
