<svg width="557" height="728" viewBox="0 0 557 728" fill="none" xmlns="http://www.w3.org/2000/svg">
<g clip-path="url(#clip0_8123_7283)">
<rect width="4.76923" height="5" transform="translate(362.383 9)" fill="white"/>
<rect width="4.76923" height="5" transform="translate(377.152 9)" fill="white"/>
<rect width="4.76923" height="5" transform="translate(391.922 9)" fill="white"/>
<rect width="4.76923" height="5" transform="translate(406.691 9)" fill="white"/>
<rect width="4.76923" height="5" transform="translate(421.461 9)" fill="white"/>
<rect width="4.76923" height="5" transform="translate(436.23 9)" fill="white"/>
<rect width="4.76923" height="5" transform="translate(451 9)" fill="white"/>
<rect width="4.76923" height="5" transform="translate(465.766 9)" fill="white"/>
<rect width="4.76923" height="5" transform="translate(480.535 9)" fill="white"/>
<rect width="4.76923" height="5" transform="translate(495.305 9)" fill="white"/>
<rect width="4.76923" height="5" transform="translate(510.074 9)" fill="white"/>
<rect width="4.76923" height="5" transform="translate(524.844 9)" fill="white"/>
<rect width="4.76923" height="5" transform="translate(539.613 9)" fill="white"/>
<rect width="4.76923" height="5" transform="translate(355 20)" fill="white"/>
<rect width="4.76923" height="5" transform="translate(369.77 20)" fill="white"/>
<rect width="4.76923" height="5" transform="translate(384.539 20)" fill="white"/>
<rect width="4.76923" height="5" transform="translate(399.309 20)" fill="white"/>
<rect width="4.76923" height="5" transform="translate(414.078 20)" fill="white"/>
<rect width="4.76923" height="5" transform="translate(428.848 20)" fill="white"/>
<rect width="4.76923" height="5" transform="translate(443.617 20)" fill="white"/>
<rect width="4.76923" height="5" transform="translate(458.383 20)" fill="white"/>
<rect width="4.76923" height="5" transform="translate(473.152 20)" fill="white"/>
<rect width="4.76923" height="5" transform="translate(487.922 20)" fill="white"/>
<rect width="4.76923" height="5" transform="translate(502.691 20)" fill="white"/>
<rect width="4.76923" height="5" transform="translate(517.461 20)" fill="white"/>
<rect width="4.76923" height="5" transform="translate(532.23 20)" fill="white"/>
<rect width="4.76923" height="5" transform="translate(547 20)" fill="white"/>
<rect width="4.76923" height="5" transform="translate(362.383 31)" fill="white"/>
<rect width="4.76923" height="5" transform="translate(377.152 31)" fill="white"/>
<rect width="4.76923" height="5" transform="translate(391.922 31)" fill="white"/>
<rect width="4.76923" height="5" transform="translate(406.691 31)" fill="white"/>
<rect width="4.76923" height="5" transform="translate(421.461 31)" fill="white"/>
<rect width="4.76923" height="5" transform="translate(436.23 31)" fill="white"/>
<rect width="4.76923" height="5" transform="translate(451 31)" fill="white"/>
<rect width="4.76923" height="5" transform="translate(465.766 31)" fill="white"/>
<rect width="4.76923" height="5" transform="translate(480.535 31)" fill="white"/>
<rect width="4.76923" height="5" transform="translate(495.305 31)" fill="white"/>
<rect width="4.76923" height="5" transform="translate(510.074 31)" fill="white"/>
<rect width="4.76923" height="5" transform="translate(524.844 31)" fill="white"/>
<rect width="4.76923" height="5" transform="translate(539.613 31)" fill="white"/>
<rect width="4.76923" height="5" transform="translate(355 42)" fill="white"/>
<rect width="4.76923" height="5" transform="translate(369.77 42)" fill="white"/>
<rect width="4.76923" height="5" transform="translate(384.539 42)" fill="white"/>
<rect width="4.76923" height="5" transform="translate(399.309 42)" fill="white"/>
<rect width="4.76923" height="5" transform="translate(414.078 42)" fill="white"/>
<rect width="4.76923" height="5" transform="translate(428.848 42)" fill="white"/>
<rect width="4.76923" height="5" transform="translate(443.617 42)" fill="white"/>
<rect width="4.76923" height="5" transform="translate(458.383 42)" fill="white"/>
<rect width="4.76923" height="5" transform="translate(473.152 42)" fill="white"/>
<rect width="4.76923" height="5" transform="translate(487.922 42)" fill="white"/>
<rect width="4.76923" height="5" transform="translate(502.691 42)" fill="white"/>
<rect width="4.76923" height="5" transform="translate(517.461 42)" fill="white"/>
<rect width="4.76923" height="5" transform="translate(532.23 42)" fill="white"/>
<rect width="4.76923" height="5" transform="translate(547 42)" fill="white"/>
<rect width="4.76923" height="5" transform="translate(362.383 53)" fill="white"/>
<rect width="4.76923" height="5" transform="translate(377.152 53)" fill="white"/>
<rect width="4.76923" height="5" transform="translate(391.922 53)" fill="white"/>
<rect width="4.76923" height="5" transform="translate(406.691 53)" fill="white"/>
<rect width="4.76923" height="5" transform="translate(421.461 53)" fill="white"/>
<rect width="4.76923" height="5" transform="translate(436.23 53)" fill="white"/>
<rect width="4.76923" height="5" transform="translate(451 53)" fill="white"/>
<rect width="4.76923" height="5" transform="translate(465.766 53)" fill="white"/>
<rect width="4.76923" height="5" transform="translate(480.535 53)" fill="white"/>
<rect width="4.76923" height="5" transform="translate(495.305 53)" fill="white"/>
<rect width="4.76923" height="5" transform="translate(510.074 53)" fill="white"/>
<rect width="4.76923" height="5" transform="translate(524.844 53)" fill="white"/>
<rect width="4.76923" height="5" transform="translate(539.613 53)" fill="white"/>
<rect width="4.76923" height="5" transform="translate(355 64)" fill="white"/>
<rect width="4.76923" height="5" transform="translate(369.77 64)" fill="white"/>
<rect width="4.76923" height="5" transform="translate(384.539 64)" fill="white"/>
<rect width="4.76923" height="5" transform="translate(399.309 64)" fill="white"/>
<rect width="4.76923" height="5" transform="translate(414.078 64)" fill="white"/>
<rect width="4.76923" height="5" transform="translate(428.848 64)" fill="white"/>
<rect width="4.76923" height="5" transform="translate(443.617 64)" fill="white"/>
<rect width="4.76923" height="5" transform="translate(458.383 64)" fill="white"/>
<rect width="4.76923" height="5" transform="translate(473.152 64)" fill="white"/>
<rect width="4.76923" height="5" transform="translate(487.922 64)" fill="white"/>
<rect width="4.76923" height="5" transform="translate(502.691 64)" fill="white"/>
<rect width="4.76923" height="5" transform="translate(517.461 64)" fill="white"/>
<rect width="4.76923" height="5" transform="translate(532.23 64)" fill="white"/>
<rect width="4.76923" height="5" transform="translate(547 64)" fill="white"/>
<rect width="4.76923" height="5" transform="translate(362.383 75)" fill="white"/>
<rect width="4.76923" height="5" transform="translate(377.152 75)" fill="white"/>
<rect width="4.76923" height="5" transform="translate(391.922 75)" fill="white"/>
<rect width="4.76923" height="5" transform="translate(406.691 75)" fill="white"/>
<rect width="4.76923" height="5" transform="translate(421.461 75)" fill="white"/>
<rect width="4.76923" height="5" transform="translate(436.23 75)" fill="white"/>
<rect width="4.76923" height="5" transform="translate(451 75)" fill="white"/>
<rect width="4.76923" height="5" transform="translate(465.766 75)" fill="white"/>
<rect width="4.76923" height="5" transform="translate(480.535 75)" fill="white"/>
<rect width="4.76923" height="5" transform="translate(495.305 75)" fill="white"/>
<rect width="4.76923" height="5" transform="translate(510.074 75)" fill="white"/>
<rect width="4.76923" height="5" transform="translate(524.844 75)" fill="white"/>
<rect width="4.76923" height="5" transform="translate(539.613 75)" fill="white"/>
<rect width="4.76923" height="5" transform="translate(355 86)" fill="white"/>
<rect width="4.76923" height="5" transform="translate(369.77 86)" fill="white"/>
<rect width="4.76923" height="5" transform="translate(384.539 86)" fill="white"/>
<rect width="4.76923" height="5" transform="translate(399.309 86)" fill="white"/>
<rect width="4.76923" height="5" transform="translate(414.078 86)" fill="white"/>
<rect width="4.76923" height="5" transform="translate(428.848 86)" fill="white"/>
<rect width="4.76923" height="5" transform="translate(443.617 86)" fill="white"/>
<rect width="4.76923" height="5" transform="translate(458.383 86)" fill="white"/>
<rect width="4.76923" height="5" transform="translate(473.152 86)" fill="white"/>
<rect width="4.76923" height="5" transform="translate(487.922 86)" fill="white"/>
<rect width="4.76923" height="5" transform="translate(502.691 86)" fill="white"/>
<rect width="4.76923" height="5" transform="translate(517.461 86)" fill="white"/>
<rect width="4.76923" height="5" transform="translate(532.23 86)" fill="white"/>
<rect width="4.76923" height="5" transform="translate(547 86)" fill="white"/>
<rect width="4.76923" height="5" transform="translate(362.383 97)" fill="white"/>
<rect width="4.76923" height="5" transform="translate(377.152 97)" fill="white"/>
<rect width="4.76923" height="5" transform="translate(391.922 97)" fill="white"/>
<rect width="4.76923" height="5" transform="translate(406.691 97)" fill="white"/>
<rect width="4.76923" height="5" transform="translate(421.461 97)" fill="white"/>
<rect width="4.76923" height="5" transform="translate(436.23 97)" fill="white"/>
<rect width="4.76923" height="5" transform="translate(451 97)" fill="white"/>
<rect width="4.76923" height="5" transform="translate(465.766 97)" fill="white"/>
<rect width="4.76923" height="5" transform="translate(480.535 97)" fill="white"/>
<rect width="4.76923" height="5" transform="translate(495.305 97)" fill="white"/>
<rect width="4.76923" height="5" transform="translate(510.074 97)" fill="white"/>
<rect width="4.76923" height="5" transform="translate(524.844 97)" fill="white"/>
<rect width="4.76923" height="5" transform="translate(539.613 97)" fill="white"/>
<rect width="4.76923" height="5" transform="translate(355 108)" fill="white"/>
<rect width="4.76923" height="5" transform="translate(369.77 108)" fill="white"/>
<rect width="4.76923" height="5" transform="translate(384.539 108)" fill="white"/>
<rect width="4.76923" height="5" transform="translate(399.309 108)" fill="white"/>
<rect width="4.76923" height="5" transform="translate(414.078 108)" fill="white"/>
<rect width="4.76923" height="5" transform="translate(428.848 108)" fill="white"/>
<rect width="4.76923" height="5" transform="translate(443.617 108)" fill="white"/>
<rect width="4.76923" height="5" transform="translate(458.383 108)" fill="white"/>
<rect width="4.76923" height="5" transform="translate(473.152 108)" fill="white"/>
<rect width="4.76923" height="5" transform="translate(487.922 108)" fill="white"/>
<rect width="4.76923" height="5" transform="translate(502.691 108)" fill="white"/>
<rect width="4.76923" height="5" transform="translate(517.461 108)" fill="white"/>
<rect width="4.76923" height="5" transform="translate(532.23 108)" fill="white"/>
<rect width="4.76923" height="5" transform="translate(547 108)" fill="white"/>
<rect width="4.76923" height="5" transform="translate(362.383 119)" fill="white"/>
<rect width="4.76923" height="5" transform="translate(377.152 119)" fill="white"/>
<rect width="4.76923" height="5" transform="translate(391.922 119)" fill="white"/>
<rect width="4.76923" height="5" transform="translate(406.691 119)" fill="white"/>
<rect width="4.76923" height="5" transform="translate(421.461 119)" fill="white"/>
<rect width="4.76923" height="5" transform="translate(436.23 119)" fill="white"/>
<rect width="4.76923" height="5" transform="translate(451 119)" fill="white"/>
<rect width="4.76923" height="5" transform="translate(465.766 119)" fill="white"/>
<rect width="4.76923" height="5" transform="translate(480.535 119)" fill="white"/>
<rect width="4.76923" height="5" transform="translate(495.305 119)" fill="white"/>
<rect width="4.76923" height="5" transform="translate(510.074 119)" fill="white"/>
<rect width="4.76923" height="5" transform="translate(524.844 119)" fill="white"/>
<rect width="4.76923" height="5" transform="translate(539.613 119)" fill="white"/>
<rect width="4.76923" height="5" transform="translate(355 130)" fill="white"/>
<rect width="4.76923" height="5" transform="translate(369.77 130)" fill="white"/>
<rect width="4.76923" height="5" transform="translate(384.539 130)" fill="white"/>
<rect width="4.76923" height="5" transform="translate(399.309 130)" fill="white"/>
<rect width="4.76923" height="5" transform="translate(414.078 130)" fill="white"/>
<rect width="4.76923" height="5" transform="translate(428.848 130)" fill="white"/>
<rect width="4.76923" height="5" transform="translate(443.617 130)" fill="white"/>
<rect width="4.76923" height="5" transform="translate(458.383 130)" fill="white"/>
<rect width="4.76923" height="5" transform="translate(473.152 130)" fill="white"/>
<rect width="4.76923" height="5" transform="translate(487.922 130)" fill="white"/>
<rect width="4.76923" height="5" transform="translate(502.691 130)" fill="white"/>
<rect width="4.76923" height="5" transform="translate(517.461 130)" fill="white"/>
<rect width="4.76923" height="5" transform="translate(532.23 130)" fill="white"/>
<rect width="4.76923" height="5" transform="translate(547 130)" fill="white"/>
<rect width="4.76923" height="5" transform="translate(362.383 141)" fill="white"/>
<rect width="4.76923" height="5" transform="translate(377.152 141)" fill="white"/>
<rect width="4.76923" height="5" transform="translate(391.922 141)" fill="white"/>
<rect width="4.76923" height="5" transform="translate(406.691 141)" fill="white"/>
<rect width="4.76923" height="5" transform="translate(421.461 141)" fill="white"/>
<rect width="4.76923" height="5" transform="translate(436.23 141)" fill="white"/>
<rect width="4.76923" height="5" transform="translate(451 141)" fill="white"/>
<rect width="4.76923" height="5" transform="translate(465.766 141)" fill="white"/>
<rect width="4.76923" height="5" transform="translate(480.535 141)" fill="white"/>
<rect width="4.76923" height="5" transform="translate(495.305 141)" fill="white"/>
<rect width="4.76923" height="5" transform="translate(510.074 141)" fill="white"/>
<rect width="4.76923" height="5" transform="translate(524.844 141)" fill="white"/>
<rect width="4.76923" height="5" transform="translate(539.613 141)" fill="white"/>
<rect width="4.76923" height="5" transform="translate(355 152)" fill="white"/>
<rect width="4.76923" height="5" transform="translate(369.77 152)" fill="white"/>
<rect width="4.76923" height="5" transform="translate(384.539 152)" fill="white"/>
<rect width="4.76923" height="5" transform="translate(399.309 152)" fill="white"/>
<rect width="4.76923" height="5" transform="translate(414.078 152)" fill="white"/>
<rect width="4.76923" height="5" transform="translate(428.848 152)" fill="white"/>
<rect width="4.76923" height="5" transform="translate(443.617 152)" fill="white"/>
<rect width="4.76923" height="5" transform="translate(458.383 152)" fill="white"/>
<rect width="4.76923" height="5" transform="translate(473.152 152)" fill="white"/>
<rect width="4.76923" height="5" transform="translate(487.922 152)" fill="white"/>
<rect width="4.76923" height="5" transform="translate(502.691 152)" fill="white"/>
<rect width="4.76923" height="5" transform="translate(517.461 152)" fill="white"/>
<rect width="4.76923" height="5" transform="translate(532.23 152)" fill="white"/>
<rect width="4.76923" height="5" transform="translate(547 152)" fill="white"/>
<rect width="4.76923" height="5" transform="translate(362.383 163)" fill="white"/>
<rect width="4.76923" height="5" transform="translate(377.152 163)" fill="white"/>
<rect width="4.76923" height="5" transform="translate(391.922 163)" fill="white"/>
<rect width="4.76923" height="5" transform="translate(406.691 163)" fill="white"/>
<rect width="4.76923" height="5" transform="translate(421.461 163)" fill="white"/>
<rect width="4.76923" height="5" transform="translate(436.23 163)" fill="white"/>
<rect width="4.76923" height="5" transform="translate(451 163)" fill="white"/>
<rect width="4.76923" height="5" transform="translate(465.766 163)" fill="white"/>
<rect width="4.76923" height="5" transform="translate(480.535 163)" fill="white"/>
<rect width="4.76923" height="5" transform="translate(495.305 163)" fill="white"/>
<rect width="4.76923" height="5" transform="translate(510.074 163)" fill="white"/>
<rect width="4.76923" height="5" transform="translate(524.844 163)" fill="white"/>
<rect width="4.76923" height="5" transform="translate(539.613 163)" fill="white"/>
<rect width="4.76923" height="5" transform="translate(355 174)" fill="white"/>
<rect width="4.76923" height="5" transform="translate(369.77 174)" fill="white"/>
<rect width="4.76923" height="5" transform="translate(384.539 174)" fill="white"/>
<rect width="4.76923" height="5" transform="translate(399.309 174)" fill="white"/>
<rect width="4.76923" height="5" transform="translate(414.078 174)" fill="white"/>
<rect width="4.76923" height="5" transform="translate(428.848 174)" fill="white"/>
<rect width="4.76923" height="5" transform="translate(443.617 174)" fill="white"/>
<rect width="4.76923" height="5" transform="translate(458.383 174)" fill="white"/>
<rect width="4.76923" height="5" transform="translate(473.152 174)" fill="white"/>
<rect width="4.76923" height="5" transform="translate(487.922 174)" fill="white"/>
<rect width="4.76923" height="5" transform="translate(502.691 174)" fill="white"/>
<rect width="4.76923" height="5" transform="translate(517.461 174)" fill="white"/>
<rect width="4.76923" height="5" transform="translate(532.23 174)" fill="white"/>
<rect width="4.76923" height="5" transform="translate(547 174)" fill="white"/>
<rect width="4.76923" height="5" transform="translate(362.383 185)" fill="white"/>
<rect width="4.76923" height="5" transform="translate(377.152 185)" fill="white"/>
<rect width="4.76923" height="5" transform="translate(391.922 185)" fill="white"/>
<rect width="4.76923" height="5" transform="translate(406.691 185)" fill="white"/>
<rect width="4.76923" height="5" transform="translate(421.461 185)" fill="white"/>
<rect width="4.76923" height="5" transform="translate(436.23 185)" fill="white"/>
<rect width="4.76923" height="5" transform="translate(451 185)" fill="white"/>
<rect width="4.76923" height="5" transform="translate(465.766 185)" fill="white"/>
<rect width="4.76923" height="5" transform="translate(480.535 185)" fill="white"/>
<rect width="4.76923" height="5" transform="translate(495.305 185)" fill="white"/>
<rect width="4.76923" height="5" transform="translate(510.074 185)" fill="white"/>
<rect width="4.76923" height="5" transform="translate(524.844 185)" fill="white"/>
<rect width="4.76923" height="5" transform="translate(539.613 185)" fill="white"/>
<rect width="4.76923" height="5" transform="translate(355 196)" fill="white"/>
<rect width="4.76923" height="5" transform="translate(369.77 196)" fill="white"/>
<rect width="4.76923" height="5" transform="translate(384.539 196)" fill="white"/>
<rect width="4.76923" height="5" transform="translate(399.309 196)" fill="white"/>
<rect width="4.76923" height="5" transform="translate(414.078 196)" fill="white"/>
<rect width="4.76923" height="5" transform="translate(428.848 196)" fill="white"/>
<rect width="4.76923" height="5" transform="translate(443.617 196)" fill="white"/>
<rect width="4.76923" height="5" transform="translate(458.383 196)" fill="white"/>
<rect width="4.76923" height="5" transform="translate(473.152 196)" fill="white"/>
<rect width="4.76923" height="5" transform="translate(487.922 196)" fill="white"/>
<rect width="4.76923" height="5" transform="translate(502.691 196)" fill="white"/>
<rect width="4.76923" height="5" transform="translate(517.461 196)" fill="white"/>
<rect width="4.76923" height="5" transform="translate(532.23 196)" fill="white"/>
<rect width="4.76923" height="5" transform="translate(547 196)" fill="white"/>
<rect width="4.76923" height="5" transform="translate(362.383 207)" fill="white"/>
<rect width="4.76923" height="5" transform="translate(377.152 207)" fill="white"/>
<rect width="4.76923" height="5" transform="translate(391.922 207)" fill="white"/>
<rect width="4.76923" height="5" transform="translate(406.691 207)" fill="white"/>
<rect width="4.76923" height="5" transform="translate(421.461 207)" fill="white"/>
<rect width="4.76923" height="5" transform="translate(436.23 207)" fill="white"/>
<rect width="4.76923" height="5" transform="translate(451 207)" fill="white"/>
<rect width="4.76923" height="5" transform="translate(465.766 207)" fill="white"/>
<rect width="4.76923" height="5" transform="translate(480.535 207)" fill="white"/>
<rect width="4.76923" height="5" transform="translate(495.305 207)" fill="white"/>
<rect width="4.76923" height="5" transform="translate(510.074 207)" fill="white"/>
<rect width="4.76923" height="5" transform="translate(524.844 207)" fill="white"/>
<rect width="4.76923" height="5" transform="translate(539.613 207)" fill="white"/>
<rect width="4.76923" height="5" transform="translate(355 218)" fill="white"/>
<rect width="4.76923" height="5" transform="translate(369.77 218)" fill="white"/>
<rect width="4.76923" height="5" transform="translate(384.539 218)" fill="white"/>
<rect width="4.76923" height="5" transform="translate(399.309 218)" fill="white"/>
<rect width="4.76923" height="5" transform="translate(414.078 218)" fill="white"/>
<rect width="4.76923" height="5" transform="translate(428.848 218)" fill="white"/>
<rect width="4.76923" height="5" transform="translate(443.617 218)" fill="white"/>
<rect width="4.76923" height="5" transform="translate(458.383 218)" fill="white"/>
<rect width="4.76923" height="5" transform="translate(473.152 218)" fill="white"/>
<rect width="4.76923" height="5" transform="translate(487.922 218)" fill="white"/>
<rect width="4.76923" height="5" transform="translate(502.691 218)" fill="white"/>
<rect width="4.76923" height="5" transform="translate(517.461 218)" fill="white"/>
<rect width="4.76923" height="5" transform="translate(532.23 218)" fill="white"/>
<rect width="4.76923" height="5" transform="translate(547 218)" fill="white"/>
</g>
<rect x="353" y="2" width="202" height="217" stroke="white" stroke-width="4"/>
<g clip-path="url(#clip1_8123_7283)">
<rect x="26" y="234" width="29" height="494" stroke="white" stroke-width="1.5"/>
<rect x="28.75" y="234.75" width="23.5" height="161.5" stroke="white" stroke-width="1.5"/>
<rect width="3" height="162" transform="translate(28 235)" fill="white"/>
<rect width="3" height="162" transform="translate(39 235)" fill="white"/>
<rect width="3" height="162" transform="translate(50 235)" fill="white"/>
<rect x="79" y="234" width="29" height="494" stroke="white" stroke-width="1.5"/>
<rect x="81.75" y="234.75" width="23.5" height="161.5" stroke="white" stroke-width="1.5"/>
<rect width="3" height="162" transform="translate(81 235)" fill="white"/>
<rect width="3" height="162" transform="translate(92 235)" fill="white"/>
<rect width="3" height="162" transform="translate(103 235)" fill="white"/>
<rect x="132" y="234" width="29" height="494" stroke="white" stroke-width="1.5"/>
<rect x="134.75" y="234.75" width="23.5" height="161.5" stroke="white" stroke-width="1.5"/>
<rect width="3" height="162" transform="translate(134 235)" fill="white"/>
<rect width="3" height="162" transform="translate(145 235)" fill="white"/>
<rect width="3" height="162" transform="translate(156 235)" fill="white"/>
<rect x="185" y="234" width="29" height="494" stroke="white" stroke-width="1.5"/>
<rect x="187.75" y="234.75" width="23.5" height="161.5" stroke="white" stroke-width="1.5"/>
<rect width="3" height="162" transform="translate(187 235)" fill="white"/>
<rect width="3" height="162" transform="translate(198 235)" fill="white"/>
<rect width="3" height="162" transform="translate(209 235)" fill="white"/>
<rect x="238" y="234" width="29" height="494" stroke="white" stroke-width="1.5"/>
<rect x="240.75" y="234.75" width="23.5" height="161.5" stroke="white" stroke-width="1.5"/>
<rect width="3" height="162" transform="translate(240 235)" fill="white"/>
<rect width="3" height="162" transform="translate(251 235)" fill="white"/>
<rect width="3" height="162" transform="translate(262 235)" fill="white"/>
<rect x="291" y="234" width="29" height="494" stroke="white" stroke-width="1.5"/>
<rect x="293.75" y="234.75" width="23.5" height="161.5" stroke="white" stroke-width="1.5"/>
<rect width="3" height="162" transform="translate(293 235)" fill="white"/>
<rect width="3" height="162" transform="translate(304 235)" fill="white"/>
<rect width="3" height="162" transform="translate(315 235)" fill="white"/>
<rect x="344" y="234" width="29" height="494" stroke="white" stroke-width="1.5"/>
<rect x="346.75" y="234.75" width="23.5" height="161.5" stroke="white" stroke-width="1.5"/>
<rect width="3" height="162" transform="translate(346 235)" fill="white"/>
<rect width="3" height="162" transform="translate(357 235)" fill="white"/>
<rect width="3" height="162" transform="translate(368 235)" fill="white"/>
<rect x="397" y="234" width="29" height="494" stroke="white" stroke-width="1.5"/>
<rect x="399.75" y="234.75" width="23.5" height="161.5" stroke="white" stroke-width="1.5"/>
<rect width="3" height="162" transform="translate(399 235)" fill="white"/>
<rect width="3" height="162" transform="translate(410 235)" fill="white"/>
<rect width="3" height="162" transform="translate(421 235)" fill="white"/>
<rect x="450" y="234" width="29" height="494" stroke="white" stroke-width="1.5"/>
<rect x="452.75" y="234.75" width="23.5" height="161.5" stroke="white" stroke-width="1.5"/>
<rect width="3" height="162" transform="translate(452 235)" fill="white"/>
<rect width="3" height="162" transform="translate(463 235)" fill="white"/>
<rect width="3" height="162" transform="translate(474 235)" fill="white"/>
<rect x="503" y="234" width="29" height="494" stroke="white" stroke-width="1.5"/>
<rect x="505.75" y="234.75" width="23.5" height="161.5" stroke="white" stroke-width="1.5"/>
<rect width="3" height="162" transform="translate(505 235)" fill="white"/>
<rect width="3" height="162" transform="translate(516 235)" fill="white"/>
<rect width="3" height="162" transform="translate(527 235)" fill="white"/>
</g>
<rect x="2" y="233" width="553" height="493" stroke="white" stroke-width="4"/>
<defs>
<clipPath id="clip0_8123_7283">
<rect x="351" width="206" height="221" fill="white"/>
</clipPath>
<clipPath id="clip1_8123_7283">
<rect y="231" width="557" height="497" fill="white"/>
</clipPath>
</defs>
</svg>
