<svg width="557" height="497" viewBox="0 0 557 497" fill="none" xmlns="http://www.w3.org/2000/svg">
<g clip-path="url(#clip0_8525_7380)">
<rect x="26" y="3" width="29" height="494" stroke="white" stroke-width="1.5"/>
<rect x="28.75" y="3.75" width="23.5" height="161.5" stroke="white" stroke-width="1.5"/>
<rect width="3" height="162" transform="translate(28 4)" fill="white"/>
<rect width="3" height="162" transform="translate(39 4)" fill="white"/>
<rect width="3" height="162" transform="translate(50 4)" fill="white"/>
<rect x="79" y="3" width="29" height="494" stroke="white" stroke-width="1.5"/>
<rect x="81.75" y="3.75" width="23.5" height="161.5" stroke="white" stroke-width="1.5"/>
<rect width="3" height="162" transform="translate(81 4)" fill="white"/>
<rect width="3" height="162" transform="translate(92 4)" fill="white"/>
<rect width="3" height="162" transform="translate(103 4)" fill="white"/>
<rect x="132" y="3" width="29" height="494" stroke="white" stroke-width="1.5"/>
<rect x="134.75" y="3.75" width="23.5" height="161.5" stroke="white" stroke-width="1.5"/>
<rect width="3" height="162" transform="translate(134 4)" fill="white"/>
<rect width="3" height="162" transform="translate(145 4)" fill="white"/>
<rect width="3" height="162" transform="translate(156 4)" fill="white"/>
<rect x="185" y="3" width="29" height="494" stroke="white" stroke-width="1.5"/>
<rect x="187.75" y="3.75" width="23.5" height="161.5" stroke="white" stroke-width="1.5"/>
<rect width="3" height="162" transform="translate(187 4)" fill="white"/>
<rect width="3" height="162" transform="translate(198 4)" fill="white"/>
<rect width="3" height="162" transform="translate(209 4)" fill="white"/>
<rect x="238" y="3" width="29" height="494" stroke="white" stroke-width="1.5"/>
<rect x="240.75" y="3.75" width="23.5" height="161.5" stroke="white" stroke-width="1.5"/>
<rect width="3" height="162" transform="translate(240 4)" fill="white"/>
<rect width="3" height="162" transform="translate(251 4)" fill="white"/>
<rect width="3" height="162" transform="translate(262 4)" fill="white"/>
<rect x="291" y="3" width="29" height="494" stroke="white" stroke-width="1.5"/>
<rect x="293.75" y="3.75" width="23.5" height="161.5" stroke="white" stroke-width="1.5"/>
<rect width="3" height="162" transform="translate(293 4)" fill="white"/>
<rect width="3" height="162" transform="translate(304 4)" fill="white"/>
<rect width="3" height="162" transform="translate(315 4)" fill="white"/>
<rect x="344" y="3" width="29" height="494" stroke="white" stroke-width="1.5"/>
<rect x="346.75" y="3.75" width="23.5" height="161.5" stroke="white" stroke-width="1.5"/>
<rect width="3" height="162" transform="translate(346 4)" fill="white"/>
<rect width="3" height="162" transform="translate(357 4)" fill="white"/>
<rect width="3" height="162" transform="translate(368 4)" fill="white"/>
<rect x="397" y="3" width="29" height="494" stroke="white" stroke-width="1.5"/>
<rect x="399.75" y="3.75" width="23.5" height="161.5" stroke="white" stroke-width="1.5"/>
<rect width="3" height="162" transform="translate(399 4)" fill="white"/>
<rect width="3" height="162" transform="translate(410 4)" fill="white"/>
<rect width="3" height="162" transform="translate(421 4)" fill="white"/>
<rect x="450" y="3" width="29" height="494" stroke="white" stroke-width="1.5"/>
<rect x="452.75" y="3.75" width="23.5" height="161.5" stroke="white" stroke-width="1.5"/>
<rect width="3" height="162" transform="translate(452 4)" fill="white"/>
<rect width="3" height="162" transform="translate(463 4)" fill="white"/>
<rect width="3" height="162" transform="translate(474 4)" fill="white"/>
<rect x="503" y="3" width="29" height="494" stroke="white" stroke-width="1.5"/>
<rect x="505.75" y="3.75" width="23.5" height="161.5" stroke="white" stroke-width="1.5"/>
<rect width="3" height="162" transform="translate(505 4)" fill="white"/>
<rect width="3" height="162" transform="translate(516 4)" fill="white"/>
<rect width="3" height="162" transform="translate(527 4)" fill="white"/>
</g>
<rect x="2" y="2" width="553" height="493" stroke="white" stroke-width="4"/>
<defs>
<clipPath id="clip0_8525_7380">
<rect width="557" height="497" fill="white"/>
</clipPath>
</defs>
</svg>
