<svg width="475" height="335" viewBox="0 0 475 335" fill="none" xmlns="http://www.w3.org/2000/svg">
<g clip-path="url(#clip0_8919_27725)">
<rect width="3.58822" height="3.76184" transform="translate(355.414 8.71484)" fill="white"/>
<rect width="3.58822" height="3.76184" transform="translate(366.527 8.71484)" fill="white"/>
<rect width="3.58822" height="3.76184" transform="translate(377.637 8.71484)" fill="white"/>
<rect width="3.58822" height="3.76184" transform="translate(388.75 8.71484)" fill="white"/>
<rect width="3.58822" height="3.76184" transform="translate(399.863 8.71484)" fill="white"/>
<rect width="3.58822" height="3.76184" transform="translate(410.973 8.71484)" fill="white"/>
<rect width="3.58822" height="3.76184" transform="translate(422.086 8.71484)" fill="white"/>
<rect width="3.58822" height="3.76184" transform="translate(433.199 8.71484)" fill="white"/>
<rect width="3.58822" height="3.76184" transform="translate(444.309 8.71484)" fill="white"/>
<rect width="3.58822" height="3.76184" transform="translate(349.859 16.9922)" fill="white"/>
<rect width="3.58822" height="3.76184" transform="translate(360.973 16.9922)" fill="white"/>
<rect width="3.58822" height="3.76184" transform="translate(372.082 16.9922)" fill="white"/>
<rect width="3.58822" height="3.76184" transform="translate(383.195 16.9922)" fill="white"/>
<rect width="3.58822" height="3.76184" transform="translate(394.309 16.9922)" fill="white"/>
<rect width="3.58822" height="3.76184" transform="translate(405.418 16.9922)" fill="white"/>
<rect width="3.58822" height="3.76184" transform="translate(416.531 16.9922)" fill="white"/>
<rect width="3.58822" height="3.76184" transform="translate(427.645 16.9922)" fill="white"/>
<rect width="3.58822" height="3.76184" transform="translate(438.754 16.9922)" fill="white"/>
<rect width="3.58822" height="3.76184" transform="translate(449.867 16.9922)" fill="white"/>
<rect width="3.58822" height="3.76184" transform="translate(355.414 25.2656)" fill="white"/>
<rect width="3.58822" height="3.76184" transform="translate(366.527 25.2656)" fill="white"/>
<rect width="3.58822" height="3.76184" transform="translate(377.637 25.2656)" fill="white"/>
<rect width="3.58822" height="3.76184" transform="translate(388.75 25.2656)" fill="white"/>
<rect width="3.58822" height="3.76184" transform="translate(399.863 25.2656)" fill="white"/>
<rect width="3.58822" height="3.76184" transform="translate(410.973 25.2656)" fill="white"/>
<rect width="3.58822" height="3.76184" transform="translate(422.086 25.2656)" fill="white"/>
<rect width="3.58822" height="3.76184" transform="translate(433.199 25.2656)" fill="white"/>
<rect width="3.58822" height="3.76184" transform="translate(444.309 25.2656)" fill="white"/>
<rect width="3.58822" height="3.76184" transform="translate(349.859 33.543)" fill="white"/>
<rect width="3.58822" height="3.76184" transform="translate(360.973 33.543)" fill="white"/>
<rect width="3.58822" height="3.76184" transform="translate(372.082 33.543)" fill="white"/>
<rect width="3.58822" height="3.76184" transform="translate(383.195 33.543)" fill="white"/>
<rect width="3.58822" height="3.76184" transform="translate(394.309 33.543)" fill="white"/>
<rect width="3.58822" height="3.76184" transform="translate(405.418 33.543)" fill="white"/>
<rect width="3.58822" height="3.76184" transform="translate(416.531 33.543)" fill="white"/>
<rect width="3.58822" height="3.76184" transform="translate(427.645 33.543)" fill="white"/>
<rect width="3.58822" height="3.76184" transform="translate(438.754 33.543)" fill="white"/>
<rect width="3.58822" height="3.76184" transform="translate(449.867 33.543)" fill="white"/>
<rect width="3.58822" height="3.76184" transform="translate(355.414 41.8203)" fill="white"/>
<rect width="3.58822" height="3.76184" transform="translate(366.527 41.8203)" fill="white"/>
<rect width="3.58822" height="3.76184" transform="translate(377.637 41.8203)" fill="white"/>
<rect width="3.58822" height="3.76184" transform="translate(388.75 41.8203)" fill="white"/>
<rect width="3.58822" height="3.76184" transform="translate(399.863 41.8203)" fill="white"/>
<rect width="3.58822" height="3.76184" transform="translate(410.973 41.8203)" fill="white"/>
<rect width="3.58822" height="3.76184" transform="translate(422.086 41.8203)" fill="white"/>
<rect width="3.58822" height="3.76184" transform="translate(433.199 41.8203)" fill="white"/>
<rect width="3.58822" height="3.76184" transform="translate(444.309 41.8203)" fill="white"/>
<rect width="3.58822" height="3.76184" transform="translate(349.859 50.0977)" fill="white"/>
<rect width="3.58822" height="3.76184" transform="translate(360.973 50.0977)" fill="white"/>
<rect width="3.58822" height="3.76184" transform="translate(372.082 50.0977)" fill="white"/>
<rect width="3.58822" height="3.76184" transform="translate(383.195 50.0977)" fill="white"/>
<rect width="3.58822" height="3.76184" transform="translate(394.309 50.0977)" fill="white"/>
<rect width="3.58822" height="3.76184" transform="translate(405.418 50.0977)" fill="white"/>
<rect width="3.58822" height="3.76184" transform="translate(416.531 50.0977)" fill="white"/>
<rect width="3.58822" height="3.76184" transform="translate(427.645 50.0977)" fill="white"/>
<rect width="3.58822" height="3.76184" transform="translate(438.754 50.0977)" fill="white"/>
<rect width="3.58822" height="3.76184" transform="translate(449.867 50.0977)" fill="white"/>
<rect width="3.58822" height="3.76184" transform="translate(355.414 58.3711)" fill="white"/>
<rect width="3.58822" height="3.76184" transform="translate(366.527 58.3711)" fill="white"/>
<rect width="3.58822" height="3.76184" transform="translate(377.637 58.3711)" fill="white"/>
<rect width="3.58822" height="3.76184" transform="translate(388.75 58.3711)" fill="white"/>
<rect width="3.58822" height="3.76184" transform="translate(399.863 58.3711)" fill="white"/>
<rect width="3.58822" height="3.76184" transform="translate(410.973 58.3711)" fill="white"/>
<rect width="3.58822" height="3.76184" transform="translate(422.086 58.3711)" fill="white"/>
<rect width="3.58822" height="3.76184" transform="translate(433.199 58.3711)" fill="white"/>
<rect width="3.58822" height="3.76184" transform="translate(444.309 58.3711)" fill="white"/>
<rect width="3.58822" height="3.76184" transform="translate(349.859 66.6484)" fill="white"/>
<rect width="3.58822" height="3.76184" transform="translate(360.973 66.6484)" fill="white"/>
<rect width="3.58822" height="3.76184" transform="translate(372.082 66.6484)" fill="white"/>
<rect width="3.58822" height="3.76184" transform="translate(383.195 66.6484)" fill="white"/>
<rect width="3.58822" height="3.76184" transform="translate(394.309 66.6484)" fill="white"/>
<rect width="3.58822" height="3.76184" transform="translate(405.418 66.6484)" fill="white"/>
<rect width="3.58822" height="3.76184" transform="translate(416.531 66.6484)" fill="white"/>
<rect width="3.58822" height="3.76184" transform="translate(427.645 66.6484)" fill="white"/>
<rect width="3.58822" height="3.76184" transform="translate(438.754 66.6484)" fill="white"/>
<rect width="3.58822" height="3.76184" transform="translate(449.867 66.6484)" fill="white"/>
<rect width="3.58822" height="3.76184" transform="translate(355.414 74.9219)" fill="white"/>
<rect width="3.58822" height="3.76184" transform="translate(366.527 74.9219)" fill="white"/>
<rect width="3.58822" height="3.76184" transform="translate(377.637 74.9219)" fill="white"/>
<rect width="3.58822" height="3.76184" transform="translate(388.75 74.9219)" fill="white"/>
<rect width="3.58822" height="3.76184" transform="translate(399.863 74.9219)" fill="white"/>
<rect width="3.58822" height="3.76184" transform="translate(410.973 74.9219)" fill="white"/>
<rect width="3.58822" height="3.76184" transform="translate(422.086 74.9219)" fill="white"/>
<rect width="3.58822" height="3.76184" transform="translate(433.199 74.9219)" fill="white"/>
<rect width="3.58822" height="3.76184" transform="translate(444.309 74.9219)" fill="white"/>
<rect width="3.58822" height="3.76184" transform="translate(349.859 83.1992)" fill="white"/>
<rect width="3.58822" height="3.76184" transform="translate(360.973 83.1992)" fill="white"/>
<rect width="3.58822" height="3.76184" transform="translate(372.082 83.1992)" fill="white"/>
<rect width="3.58822" height="3.76184" transform="translate(383.195 83.1992)" fill="white"/>
<rect width="3.58822" height="3.76184" transform="translate(394.309 83.1992)" fill="white"/>
<rect width="3.58822" height="3.76184" transform="translate(405.418 83.1992)" fill="white"/>
<rect width="3.58822" height="3.76184" transform="translate(416.531 83.1992)" fill="white"/>
<rect width="3.58822" height="3.76184" transform="translate(427.645 83.1992)" fill="white"/>
<rect width="3.58822" height="3.76184" transform="translate(438.754 83.1992)" fill="white"/>
<rect width="3.58822" height="3.76184" transform="translate(449.867 83.1992)" fill="white"/>
<rect width="3.58822" height="3.76184" transform="translate(355.414 91.4766)" fill="white"/>
<rect width="3.58822" height="3.76184" transform="translate(366.527 91.4766)" fill="white"/>
<rect width="3.58822" height="3.76184" transform="translate(377.637 91.4766)" fill="white"/>
<rect width="3.58822" height="3.76184" transform="translate(388.75 91.4766)" fill="white"/>
<rect width="3.58822" height="3.76184" transform="translate(399.863 91.4766)" fill="white"/>
<rect width="3.58822" height="3.76184" transform="translate(410.973 91.4766)" fill="white"/>
<rect width="3.58822" height="3.76184" transform="translate(422.086 91.4766)" fill="white"/>
<rect width="3.58822" height="3.76184" transform="translate(433.199 91.4766)" fill="white"/>
<rect width="3.58822" height="3.76184" transform="translate(444.309 91.4766)" fill="white"/>
<rect width="3.58822" height="3.76184" transform="translate(349.859 99.7539)" fill="white"/>
<rect width="3.58822" height="3.76184" transform="translate(360.973 99.7539)" fill="white"/>
<rect width="3.58822" height="3.76184" transform="translate(372.082 99.7539)" fill="white"/>
<rect width="3.58822" height="3.76184" transform="translate(383.195 99.7539)" fill="white"/>
<rect width="3.58822" height="3.76184" transform="translate(394.309 99.7539)" fill="white"/>
<rect width="3.58822" height="3.76184" transform="translate(405.418 99.7539)" fill="white"/>
<rect width="3.58822" height="3.76184" transform="translate(416.531 99.7539)" fill="white"/>
<rect width="3.58822" height="3.76184" transform="translate(427.645 99.7539)" fill="white"/>
<rect width="3.58822" height="3.76184" transform="translate(438.754 99.7539)" fill="white"/>
<rect width="3.58822" height="3.76184" transform="translate(449.867 99.7539)" fill="white"/>
</g>
<rect x="347.96" y="2.07378" width="100.204" height="100.204" stroke="white" stroke-width="3.796"/>
<g clip-path="url(#clip1_8919_27725)">
<g clip-path="url(#clip2_8919_27725)">
<g clip-path="url(#clip3_8919_27725)">
<rect width="2.56758" height="138.65" transform="translate(23.0273 113.598)" fill="white"/>
<rect width="2.56758" height="138.65" transform="translate(32.4414 113.598)" fill="white"/>
<rect width="2.56758" height="138.65" transform="translate(41.8555 113.598)" fill="white"/>
</g>
<rect x="23.6692" y="113.388" width="20.1127" height="138.222" stroke="white" stroke-width="1.28379"/>
</g>
<rect x="21.3125" y="112.746" width="24.82" height="422.796" stroke="white" stroke-width="1.28379"/>
<g clip-path="url(#clip4_8919_27725)">
<g clip-path="url(#clip5_8919_27725)">
<rect width="2.56758" height="138.65" transform="translate(68.3828 113.598)" fill="white"/>
<rect width="2.56758" height="138.65" transform="translate(77.7969 113.598)" fill="white"/>
<rect width="2.56758" height="138.65" transform="translate(87.2109 113.598)" fill="white"/>
</g>
<rect x="69.0247" y="113.388" width="20.1127" height="138.222" stroke="white" stroke-width="1.28379"/>
</g>
<rect x="66.6719" y="112.746" width="24.82" height="422.796" stroke="white" stroke-width="1.28379"/>
<g clip-path="url(#clip6_8919_27725)">
<g clip-path="url(#clip7_8919_27725)">
<rect width="2.56758" height="138.65" transform="translate(113.746 113.598)" fill="white"/>
<rect width="2.56758" height="138.65" transform="translate(123.16 113.598)" fill="white"/>
<rect width="2.56758" height="138.65" transform="translate(132.574 113.598)" fill="white"/>
</g>
<rect x="114.388" y="113.388" width="20.1127" height="138.222" stroke="white" stroke-width="1.28379"/>
</g>
<rect x="112.035" y="112.746" width="24.82" height="422.796" stroke="white" stroke-width="1.28379"/>
<g clip-path="url(#clip8_8919_27725)">
<g clip-path="url(#clip9_8919_27725)">
<rect width="2.56758" height="138.65" transform="translate(159.109 113.598)" fill="white"/>
<rect width="2.56758" height="138.65" transform="translate(168.523 113.598)" fill="white"/>
<rect width="2.56758" height="138.65" transform="translate(177.938 113.598)" fill="white"/>
</g>
<rect x="159.751" y="113.388" width="20.1127" height="138.222" stroke="white" stroke-width="1.28379"/>
</g>
<rect x="157.395" y="112.746" width="24.82" height="422.796" stroke="white" stroke-width="1.28379"/>
<g clip-path="url(#clip10_8919_27725)">
<g clip-path="url(#clip11_8919_27725)">
<rect width="2.56758" height="138.65" transform="translate(204.465 113.598)" fill="white"/>
<rect width="2.56758" height="138.65" transform="translate(213.879 113.598)" fill="white"/>
<rect width="2.56758" height="138.65" transform="translate(223.293 113.598)" fill="white"/>
</g>
<rect x="205.107" y="113.388" width="20.1127" height="138.222" stroke="white" stroke-width="1.28379"/>
</g>
<rect x="202.754" y="112.746" width="24.82" height="422.796" stroke="white" stroke-width="1.28379"/>
<g clip-path="url(#clip12_8919_27725)">
<g clip-path="url(#clip13_8919_27725)">
<rect width="2.56758" height="138.65" transform="translate(249.828 113.598)" fill="white"/>
<rect width="2.56758" height="138.65" transform="translate(259.242 113.598)" fill="white"/>
<rect width="2.56758" height="138.65" transform="translate(268.66 113.598)" fill="white"/>
</g>
<rect x="250.47" y="113.388" width="20.1127" height="138.222" stroke="white" stroke-width="1.28379"/>
</g>
<rect x="248.117" y="112.746" width="24.82" height="422.796" stroke="white" stroke-width="1.28379"/>
<g clip-path="url(#clip14_8919_27725)">
<g clip-path="url(#clip15_8919_27725)">
<rect width="2.56758" height="138.65" transform="translate(295.188 113.598)" fill="white"/>
<rect width="2.56758" height="138.65" transform="translate(304.602 113.598)" fill="white"/>
<rect width="2.56758" height="138.65" transform="translate(314.016 113.598)" fill="white"/>
</g>
<rect x="295.829" y="113.388" width="20.1127" height="138.222" stroke="white" stroke-width="1.28379"/>
</g>
<rect x="293.477" y="112.746" width="24.82" height="422.796" stroke="white" stroke-width="1.28379"/>
<g clip-path="url(#clip16_8919_27725)">
<g clip-path="url(#clip17_8919_27725)">
<rect width="2.56758" height="138.65" transform="translate(340.547 113.598)" fill="white"/>
<rect width="2.56758" height="138.65" transform="translate(349.965 113.598)" fill="white"/>
<rect width="2.56758" height="138.65" transform="translate(359.379 113.598)" fill="white"/>
</g>
<rect x="341.189" y="113.388" width="20.1127" height="138.222" stroke="white" stroke-width="1.28379"/>
</g>
<rect x="338.836" y="112.746" width="24.82" height="422.796" stroke="white" stroke-width="1.28379"/>
<g clip-path="url(#clip18_8919_27725)">
<g clip-path="url(#clip19_8919_27725)">
<rect width="2.56758" height="138.65" transform="translate(385.914 113.598)" fill="white"/>
<rect width="2.56758" height="138.65" transform="translate(395.328 113.598)" fill="white"/>
<rect width="2.56758" height="138.65" transform="translate(404.738 113.598)" fill="white"/>
</g>
<rect x="386.556" y="113.388" width="20.1127" height="138.222" stroke="white" stroke-width="1.28379"/>
</g>
<rect x="384.199" y="112.746" width="24.82" height="422.796" stroke="white" stroke-width="1.28379"/>
<g clip-path="url(#clip20_8919_27725)">
<g clip-path="url(#clip21_8919_27725)">
<rect width="2.56758" height="138.65" transform="translate(431.27 113.598)" fill="white"/>
<rect width="2.56758" height="138.65" transform="translate(440.688 113.598)" fill="white"/>
<rect width="2.56758" height="138.65" transform="translate(450.102 113.598)" fill="white"/>
</g>
<rect x="431.911" y="113.388" width="20.1127" height="138.222" stroke="white" stroke-width="1.28379"/>
</g>
<rect x="429.559" y="112.746" width="24.82" height="422.796" stroke="white" stroke-width="1.28379"/>
</g>
<rect x="1.77422" y="111.888" width="470.577" height="220.577" stroke="white" stroke-width="3.42345"/>
<defs>
<clipPath id="clip0_8919_27725">
<rect x="346.062" y="0.175781" width="104" height="104" fill="white"/>
</clipPath>
<clipPath id="clip1_8919_27725">
<rect x="0.0625" y="110.176" width="474" height="224" fill="white"/>
</clipPath>
<clipPath id="clip2_8919_27725">
<rect x="21.3125" y="112.746" width="24.82" height="422.796" fill="white"/>
</clipPath>
<clipPath id="clip3_8919_27725">
<rect x="23.0273" y="112.746" width="21.3965" height="139.505" fill="white"/>
</clipPath>
<clipPath id="clip4_8919_27725">
<rect x="66.6719" y="112.746" width="24.82" height="422.796" fill="white"/>
</clipPath>
<clipPath id="clip5_8919_27725">
<rect x="68.3828" y="112.746" width="21.3965" height="139.505" fill="white"/>
</clipPath>
<clipPath id="clip6_8919_27725">
<rect x="112.035" y="112.746" width="24.82" height="422.796" fill="white"/>
</clipPath>
<clipPath id="clip7_8919_27725">
<rect x="113.746" y="112.746" width="21.3965" height="139.505" fill="white"/>
</clipPath>
<clipPath id="clip8_8919_27725">
<rect x="157.395" y="112.746" width="24.82" height="422.796" fill="white"/>
</clipPath>
<clipPath id="clip9_8919_27725">
<rect x="159.109" y="112.746" width="21.3965" height="139.505" fill="white"/>
</clipPath>
<clipPath id="clip10_8919_27725">
<rect x="202.754" y="112.746" width="24.82" height="422.796" fill="white"/>
</clipPath>
<clipPath id="clip11_8919_27725">
<rect x="204.465" y="112.746" width="21.3965" height="139.505" fill="white"/>
</clipPath>
<clipPath id="clip12_8919_27725">
<rect x="248.117" y="112.746" width="24.82" height="422.796" fill="white"/>
</clipPath>
<clipPath id="clip13_8919_27725">
<rect x="249.828" y="112.746" width="21.3965" height="139.505" fill="white"/>
</clipPath>
<clipPath id="clip14_8919_27725">
<rect x="293.477" y="112.746" width="24.82" height="422.796" fill="white"/>
</clipPath>
<clipPath id="clip15_8919_27725">
<rect x="295.188" y="112.746" width="21.3965" height="139.505" fill="white"/>
</clipPath>
<clipPath id="clip16_8919_27725">
<rect x="338.836" y="112.746" width="24.82" height="422.796" fill="white"/>
</clipPath>
<clipPath id="clip17_8919_27725">
<rect x="340.547" y="112.746" width="21.3965" height="139.505" fill="white"/>
</clipPath>
<clipPath id="clip18_8919_27725">
<rect x="384.199" y="112.746" width="24.82" height="422.796" fill="white"/>
</clipPath>
<clipPath id="clip19_8919_27725">
<rect x="385.914" y="112.746" width="21.3965" height="139.505" fill="white"/>
</clipPath>
<clipPath id="clip20_8919_27725">
<rect x="429.559" y="112.746" width="24.82" height="422.796" fill="white"/>
</clipPath>
<clipPath id="clip21_8919_27725">
<rect x="431.27" y="112.746" width="21.3965" height="139.505" fill="white"/>
</clipPath>
</defs>
</svg>
