<svg width="720" height="471" viewBox="0 0 720 471" fill="none" xmlns="http://www.w3.org/2000/svg">
<rect width="720" height="471" rx="8" fill="url(#paint0_linear_4327_8483)"/>
<g clip-path="url(#clip0_4327_8483)">
<path d="M621 100.392V131H100V100.392C99.9988 96.9266 100.678 93.4949 101.998 90.2929C103.318 87.091 105.254 84.1814 107.694 81.7306C110.135 79.2797 113.032 77.3356 116.222 76.0092C119.411 74.6827 122.829 74 126.281 74H594.71C598.163 74 601.581 74.6826 604.771 76.0089C607.961 77.3353 610.859 79.2793 613.3 81.7301C615.741 84.1808 617.678 87.0902 618.999 90.2922C620.32 93.4943 621 96.9262 621 100.392Z" fill="#1999E1"/>
<path d="M620.991 130.659V371.766C620.991 375.211 620.311 378.622 618.99 381.804C617.668 384.986 615.732 387.878 613.29 390.313C610.849 392.748 607.951 394.68 604.761 395.997C601.572 397.315 598.153 397.992 594.702 397.991H126.28C119.31 397.991 112.626 395.228 107.697 390.31C102.769 385.392 100 378.721 100 371.766V130.659H620.991Z" fill="white"/>
<path d="M584.668 343.549H136.322V347.704H584.668V343.549Z" fill="#19171C"/>
<path d="M144 358H136V388H144V358Z" fill="#EAEAEA"/>
<path d="M168 358H155V388H168V358Z" fill="#EAEAEA"/>
<path d="M185 358H172V388H185V358Z" fill="#EAEAEA"/>
<path d="M196 358H189V388H196V358Z" fill="#EAEAEA"/>
<path d="M212 358H200V388H212V358Z" fill="#EAEAEA"/>
<path d="M233 358H216V388H233V358Z" fill="#EAEAEA"/>
<path d="M241 358H237V388H241V358Z" fill="#EAEAEA"/>
<path d="M264 358H257V388H264V358Z" fill="#EAEAEA"/>
<path d="M281 358H268V388H281V358Z" fill="#EAEAEA"/>
<path d="M301 358H285V388H301V358Z" fill="#EAEAEA"/>
<path d="M313 358H305V388H313V358Z" fill="#EAEAEA"/>
<path d="M329 358H317V388H329V358Z" fill="#EAEAEA"/>
<path d="M340 358H333V388H340V358Z" fill="#EAEAEA"/>
<path d="M356 358H344V388H356V358Z" fill="#EAEAEA"/>
<path d="M371 358H360V388H371V358Z" fill="#EAEAEA"/>
<path d="M388 358H382V388H388V358Z" fill="#EAEAEA"/>
<path d="M395 358H392V388H395V358Z" fill="#EAEAEA"/>
<path d="M409 358H399V388H409V358Z" fill="#EAEAEA"/>
<path d="M418 358H413V388H418V358Z" fill="#EAEAEA"/>
<path d="M438 358H422V388H438V358Z" fill="#EAEAEA"/>
<path d="M378 358H375V388H378V358Z" fill="#EAEAEA"/>
<path d="M453 358H442V388H453V358Z" fill="#EAEAEA"/>
<path d="M470 358H464V388H470V358Z" fill="#EAEAEA"/>
<path d="M477 358H474V388H477V358Z" fill="#EAEAEA"/>
<path d="M491 358H481V388H491V358Z" fill="#EAEAEA"/>
<path d="M500 358H495V388H500V358Z" fill="#EAEAEA"/>
<path d="M520 358H504V388H520V358Z" fill="#EAEAEA"/>
<path d="M530 358H524V388H530V358Z" fill="#EAEAEA"/>
<path d="M537 358H534V388H537V358Z" fill="#EAEAEA"/>
<path d="M551 358H541V388H551V358Z" fill="#EAEAEA"/>
<path d="M560 358H555V388H560V358Z" fill="#EAEAEA"/>
<path d="M580 358H564V388H580V358Z" fill="#EAEAEA"/>
<path d="M460 358H457V388H460V358Z" fill="#EAEAEA"/>
<path d="M253 358H245V388H253V358Z" fill="#EAEAEA"/>
<path d="M151 358H148V388H151V358Z" fill="#EAEAEA"/>
<path d="M280.114 155.64H136.322V318.559H280.114V155.64Z" fill="#F1EFF2"/>
<path d="M224.674 277.942C224.24 278.293 223.771 278.627 223.328 278.951C218.91 282.052 213.639 283.714 208.237 283.71C202.832 283.716 197.558 282.054 193.137 278.951C192.659 278.609 192.234 278.257 191.729 277.888V263.234C194.438 263.415 197.147 264.775 199.486 266.289C202.539 268.263 205.51 270.615 209.077 271.336C212.644 272.057 216.826 271.111 219.761 273.328C220.616 274.069 221.405 274.883 222.118 275.761C222.886 276.581 223.743 277.312 224.674 277.942Z" fill="#FFBE85"/>
<path d="M224.737 261.441V277.987L224.674 277.942C223.743 277.312 222.886 276.581 222.118 275.761C221.405 274.883 220.616 274.069 219.761 273.328C216.826 271.111 212.671 272.057 209.077 271.336C205.483 270.615 202.539 268.263 199.486 266.289C197.138 264.775 194.456 263.415 191.729 263.234V261.432L224.737 261.441Z" fill="#FF9870"/>
<path d="M182.869 243.399H180.639C180.179 243.399 179.738 243.217 179.412 242.892C179.087 242.568 178.904 242.127 178.904 241.669V228.024C178.904 227.565 179.087 227.125 179.412 226.801C179.738 226.476 180.179 226.294 180.639 226.294H182.869V243.417V243.399Z" fill="#FFA87C"/>
<path d="M233.324 226.303H235.555C236.015 226.303 236.456 226.485 236.781 226.81C237.106 227.134 237.289 227.575 237.289 228.033V241.678C237.291 241.906 237.248 242.133 237.162 242.345C237.076 242.557 236.949 242.75 236.787 242.913C236.626 243.075 236.434 243.204 236.223 243.293C236.011 243.381 235.784 243.426 235.555 243.426H233.324V226.303Z" fill="#FD9874"/>
<path d="M203.858 216.57C195.73 216.921 187.981 214.164 181.434 211.046V240.894C181.43 245.186 182.468 249.416 184.461 253.221C186.454 257.026 189.341 260.291 192.876 262.739C197.339 265.844 202.652 267.505 208.093 267.497C213.534 267.512 218.848 265.853 223.311 262.748C226.808 260.315 229.674 257.087 231.673 253.33C229.018 246.12 229.993 237.559 227.691 229.358C224.9 219.427 214.858 216.083 203.858 216.57Z" fill="#FFBB85"/>
<path d="M234.752 204.692H181.469V211.001C188.016 214.119 195.81 216.877 203.893 216.525C214.893 216.056 224.935 219.382 227.726 229.313C230.029 237.514 229.053 246.066 231.708 253.285C233.739 249.453 234.796 245.183 234.788 240.848L234.752 204.692Z" fill="#FFA87C"/>
<path d="M188.73 210.586C188.73 210.586 190.383 213.533 197.572 214.191C204.39 214.831 224.24 207.928 229.045 217.12C236.658 231.692 232.657 235.937 235.095 236.045C237.01 236.171 236.504 219.905 236.504 219.905L238.6 219.003C239.456 213.493 239.002 207.859 237.272 202.556C235.532 198.002 232.311 194.162 228.123 191.652L231.61 189.21C231.61 189.21 202.385 177.99 187.574 188.561C179.446 194.392 178.805 203.295 177.64 208.901C176.737 213.407 177.396 219.869 177.396 219.869L179.636 218.255C179.636 218.255 178.344 235.649 180.945 236.027C181.849 236.153 181.686 230.62 181.849 228.547C183.23 211.388 188.73 210.586 188.73 210.586Z" fill="#363533"/>
<path d="M210.368 278.347L206.512 278.582L206.981 284.277L206.891 286.684H210.232L210.368 278.347Z" fill="#AE161D"/>
<path d="M209.728 318.559L210.234 286.684H206.892L205.709 318.559H209.728Z" fill="#E11527"/>
<path d="M210.603 276.806H209.465V286.684H209.7L209.691 286.648L212.924 283.755L213.068 283.628L215.371 281.574L210.603 276.806Z" fill="#AE161D"/>
<path d="M228.42 272.859C228.223 272.656 228.047 272.432 227.896 272.192L227.562 271.625C226.324 269.631 225.373 267.474 224.736 265.217L209.455 276.464V278.897L212.923 283.782L214.061 285.386L217.466 290.189L226.885 273.878L226.072 276.581L228.42 272.859Z" fill="white"/>
<path d="M237.425 301.256L223.779 318.559H277.812C276.701 308.06 275.247 298.453 272.691 294.281C269.169 288.558 264.193 287.972 258.025 285.683C246.61 281.502 236.784 277.969 231.582 275.067L237.425 289.946L231.392 291.586L237.425 301.256Z" fill="#19171C"/>
<path d="M214.92 318.559L214.712 316.324L214.504 315.062L213.502 318.388L211.56 297.669L209.7 286.684H209.465V318.559H214.92Z" fill="#E11527"/>
<path d="M226.886 273.85L226.074 276.554L214.505 315.062L213.503 318.388L211.561 297.669L209.7 286.684L209.691 286.648L212.925 283.755L214.062 285.359L217.467 290.162L226.886 273.85Z" fill="#E2D8EB"/>
<path d="M205.844 276.806H206.982V286.684H206.747L206.756 286.648L203.523 283.755L203.378 283.628L201.066 281.574L205.844 276.806Z" fill="#AE161D"/>
<path d="M188.016 272.859C188.213 272.656 188.388 272.432 188.539 272.192C188.63 272.057 188.738 271.859 188.883 271.625C189.731 270.174 191.375 267.119 191.736 265.217L206.981 276.455V278.888L203.513 283.773L202.375 285.377L198.979 290.18L189.551 273.869L190.364 276.572L188.016 272.859Z" fill="white"/>
<path d="M192.657 318.559L179.021 301.256L185.044 291.586L179.021 289.946L184.855 275.067C179.653 277.969 169.827 281.502 158.421 285.683C152.244 287.954 147.268 288.558 143.746 294.281C141.19 298.453 139.745 308.06 138.625 318.559H192.657Z" fill="#19171C"/>
<path d="M206.981 318.559V286.684H206.747L204.886 297.669L202.944 318.388L201.942 315.062L201.734 316.324L201.518 318.559H206.981Z" fill="#E11527"/>
<path d="M189.561 273.85L190.364 276.554L201.942 315.062L202.945 318.388L204.886 297.669L206.747 286.684L206.756 286.648L203.523 283.755L202.385 285.359L198.98 290.162L189.561 273.85Z" fill="#E2D8EB"/>
<path d="M209.457 276.437H206.982V278.87H209.457V276.437Z" fill="white"/>
<path d="M223.78 318.559L237.426 301.256L231.393 291.586L237.426 289.946L231.583 275.067C230.433 274.472 229.369 273.723 228.422 272.841C228.225 272.637 228.049 272.414 227.898 272.174L227.564 271.606L227.384 272.201L226.887 273.85L226.074 276.554L214.496 315.062L213.503 318.388L213.439 318.559H223.78Z" fill="#6B666E"/>
<path d="M192.658 318.559H202.999L202.936 318.388L201.942 315.062L190.365 276.554L189.552 273.85L189.055 272.201L188.883 271.606C188.739 271.841 188.631 272.039 188.54 272.174C188.389 272.414 188.214 272.637 188.016 272.841C187.069 273.723 186.006 274.472 184.855 275.067L179.021 289.982L185.045 291.622L179.021 301.292L192.658 318.559Z" fill="#6B666E"/>
<path d="M494.305 155.64H316.547V167.572H494.305V155.64Z" fill="#F2F2F2"/>
<path d="M584.669 185.839H452.184V197.771H584.669V185.839Z" fill="#F2F2F2"/>
<path d="M382.049 185.839H316.547V197.771H382.049V185.839Z" fill="#F2F2F2"/>
<path d="M584.668 216.038H520.746V227.97H584.668V216.038Z" fill="#F2F2F2"/>
<path d="M473.994 216.038H316.547V227.97H473.994V216.038Z" fill="#F2F2F2"/>
<path d="M561.297 246.238H316.547V258.17H561.297V246.238Z" fill="#F2F2F2"/>
<path d="M584.677 276.428H479.014V288.36H584.677V276.428Z" fill="#F2F2F2"/>
<path d="M432.252 276.428H316.547V288.36H432.252V276.428Z" fill="#F2F2F2"/>
<path d="M452.193 306.627H316.547V318.559H452.193V306.627Z" fill="#F2F2F2"/>
<path d="M287.684 100.119C287.542 99.6591 287.346 99.2472 287.096 98.8835C286.852 98.5142 286.556 98.1989 286.21 97.9375C285.869 97.6761 285.477 97.4801 285.034 97.3494C284.591 97.2131 284.108 97.1449 283.585 97.1449C282.647 97.1449 281.812 97.3807 281.079 97.8523C280.346 98.3239 279.77 99.017 279.349 99.9318C278.934 100.841 278.727 101.949 278.727 103.256C278.727 104.574 278.934 105.69 279.349 106.605C279.764 107.52 280.341 108.216 281.079 108.693C281.818 109.165 282.676 109.401 283.653 109.401C284.539 109.401 285.306 109.23 285.954 108.889C286.608 108.548 287.11 108.065 287.463 107.44C287.815 106.81 287.991 106.071 287.991 105.224L288.707 105.335H283.968V102.864H291.051V104.96C291.051 106.455 290.733 107.747 290.096 108.838C289.46 109.929 288.585 110.77 287.471 111.361C286.358 111.946 285.079 112.239 283.636 112.239C282.028 112.239 280.616 111.878 279.4 111.156C278.19 110.429 277.244 109.398 276.562 108.062C275.886 106.722 275.548 105.131 275.548 103.29C275.548 101.881 275.747 100.622 276.145 99.5142C276.548 98.4062 277.11 97.4659 277.832 96.6932C278.554 95.9148 279.4 95.3239 280.372 94.9205C281.343 94.5114 282.4 94.3068 283.542 94.3068C284.508 94.3068 285.409 94.4489 286.244 94.733C287.079 95.0114 287.821 95.4091 288.468 95.9261C289.122 96.4432 289.659 97.0568 290.079 97.767C290.5 98.4773 290.775 99.2614 290.906 100.119H287.684ZM299.682 112.256C298.404 112.256 297.296 111.974 296.358 111.412C295.421 110.849 294.694 110.062 294.176 109.051C293.665 108.04 293.409 106.858 293.409 105.506C293.409 104.153 293.665 102.969 294.176 101.952C294.694 100.935 295.421 100.145 296.358 99.5824C297.296 99.0199 298.404 98.7386 299.682 98.7386C300.961 98.7386 302.069 99.0199 303.006 99.5824C303.944 100.145 304.668 100.935 305.179 101.952C305.696 102.969 305.955 104.153 305.955 105.506C305.955 106.858 305.696 108.04 305.179 109.051C304.668 110.062 303.944 110.849 303.006 111.412C302.069 111.974 300.961 112.256 299.682 112.256ZM299.699 109.784C300.392 109.784 300.972 109.594 301.438 109.213C301.904 108.827 302.25 108.31 302.478 107.662C302.711 107.014 302.827 106.293 302.827 105.497C302.827 104.696 302.711 103.972 302.478 103.324C302.25 102.67 301.904 102.151 301.438 101.764C300.972 101.378 300.392 101.185 299.699 101.185C298.989 101.185 298.398 101.378 297.926 101.764C297.461 102.151 297.111 102.67 296.878 103.324C296.651 103.972 296.537 104.696 296.537 105.497C296.537 106.293 296.651 107.014 296.878 107.662C297.111 108.31 297.461 108.827 297.926 109.213C298.398 109.594 298.989 109.784 299.699 109.784ZM319.821 98.9091L315.159 112H311.75L307.088 98.9091H310.378L313.387 108.634H313.523L316.54 98.9091H319.821ZM327.306 112.256C325.994 112.256 324.86 111.983 323.906 111.438C322.957 110.886 322.227 110.108 321.716 109.102C321.204 108.091 320.949 106.901 320.949 105.531C320.949 104.185 321.204 103.003 321.716 101.986C322.233 100.963 322.954 100.168 323.88 99.5994C324.806 99.0256 325.895 98.7386 327.145 98.7386C327.951 98.7386 328.713 98.8693 329.429 99.1307C330.15 99.3864 330.787 99.7841 331.338 100.324C331.895 100.864 332.332 101.551 332.65 102.386C332.968 103.216 333.127 104.205 333.127 105.352V106.298H322.397V104.219H330.17C330.164 103.628 330.037 103.102 329.787 102.642C329.537 102.176 329.187 101.81 328.738 101.543C328.295 101.276 327.778 101.142 327.187 101.142C326.556 101.142 326.002 101.295 325.525 101.602C325.048 101.903 324.676 102.301 324.409 102.795C324.147 103.284 324.014 103.821 324.008 104.406V106.222C324.008 106.983 324.147 107.636 324.426 108.182C324.704 108.722 325.093 109.136 325.593 109.426C326.093 109.71 326.679 109.852 327.349 109.852C327.798 109.852 328.204 109.79 328.568 109.665C328.931 109.534 329.247 109.344 329.514 109.094C329.781 108.844 329.983 108.534 330.119 108.165L333 108.489C332.818 109.25 332.471 109.915 331.96 110.483C331.454 111.045 330.806 111.483 330.017 111.795C329.227 112.102 328.324 112.256 327.306 112.256ZM335.738 112V98.9091H338.729V101.091H338.865C339.104 100.335 339.513 99.7528 340.093 99.3438C340.678 98.929 341.346 98.7216 342.096 98.7216C342.266 98.7216 342.456 98.7301 342.667 98.7472C342.882 98.7585 343.061 98.7784 343.203 98.8068V101.645C343.073 101.599 342.865 101.56 342.581 101.526C342.303 101.486 342.033 101.466 341.772 101.466C341.209 101.466 340.703 101.588 340.255 101.832C339.811 102.071 339.462 102.403 339.206 102.83C338.951 103.256 338.823 103.747 338.823 104.304V112H335.738ZM348.338 104.33V112H345.253V98.9091H348.202V101.134H348.355C348.657 100.401 349.137 99.8182 349.796 99.3864C350.461 98.9545 351.282 98.7386 352.259 98.7386C353.162 98.7386 353.949 98.9318 354.62 99.3182C355.296 99.7045 355.819 100.264 356.188 100.997C356.563 101.73 356.748 102.619 356.742 103.665V112H353.657V104.142C353.657 103.267 353.429 102.582 352.975 102.088C352.526 101.594 351.904 101.347 351.108 101.347C350.569 101.347 350.088 101.466 349.668 101.705C349.253 101.937 348.926 102.276 348.688 102.719C348.455 103.162 348.338 103.699 348.338 104.33ZM359.878 112V98.9091H362.827V101.134H362.98C363.253 100.384 363.705 99.7983 364.336 99.3778C364.966 98.9517 365.719 98.7386 366.594 98.7386C367.48 98.7386 368.228 98.9545 368.836 99.3864C369.449 99.8125 369.881 100.395 370.131 101.134H370.267C370.557 100.406 371.046 99.8267 371.733 99.3949C372.426 98.9574 373.248 98.7386 374.196 98.7386C375.401 98.7386 376.384 99.1193 377.145 99.8807C377.907 100.642 378.287 101.753 378.287 103.213V112H375.194V103.69C375.194 102.878 374.978 102.284 374.546 101.909C374.114 101.528 373.586 101.338 372.961 101.338C372.216 101.338 371.634 101.571 371.213 102.037C370.799 102.497 370.591 103.097 370.591 103.835V112H367.566V103.562C367.566 102.886 367.361 102.347 366.952 101.943C366.549 101.54 366.02 101.338 365.367 101.338C364.924 101.338 364.52 101.452 364.157 101.679C363.793 101.901 363.503 102.216 363.287 102.625C363.071 103.028 362.963 103.5 362.963 104.04V112H359.878ZM387.213 112.256C385.9 112.256 384.767 111.983 383.812 111.438C382.863 110.886 382.133 110.108 381.622 109.102C381.11 108.091 380.855 106.901 380.855 105.531C380.855 104.185 381.11 103.003 381.622 101.986C382.139 100.963 382.86 100.168 383.787 99.5994C384.713 99.0256 385.801 98.7386 387.051 98.7386C387.858 98.7386 388.619 98.8693 389.335 99.1307C390.056 99.3864 390.693 99.7841 391.244 100.324C391.801 100.864 392.238 101.551 392.556 102.386C392.875 103.216 393.034 104.205 393.034 105.352V106.298H382.304V104.219H390.076C390.071 103.628 389.943 103.102 389.693 102.642C389.443 102.176 389.093 101.81 388.645 101.543C388.201 101.276 387.684 101.142 387.093 101.142C386.463 101.142 385.909 101.295 385.431 101.602C384.954 101.903 384.582 102.301 384.315 102.795C384.054 103.284 383.92 103.821 383.914 104.406V106.222C383.914 106.983 384.054 107.636 384.332 108.182C384.61 108.722 385 109.136 385.5 109.426C386 109.71 386.585 109.852 387.255 109.852C387.704 109.852 388.11 109.79 388.474 109.665C388.838 109.534 389.153 109.344 389.42 109.094C389.687 108.844 389.889 108.534 390.025 108.165L392.906 108.489C392.724 109.25 392.377 109.915 391.866 110.483C391.36 111.045 390.713 111.483 389.923 111.795C389.133 112.102 388.23 112.256 387.213 112.256ZM398.729 104.33V112H395.644V98.9091H398.593V101.134H398.746C399.047 100.401 399.527 99.8182 400.186 99.3864C400.851 98.9545 401.672 98.7386 402.65 98.7386C403.553 98.7386 404.34 98.9318 405.01 99.3182C405.686 99.7045 406.209 100.264 406.578 100.997C406.953 101.73 407.138 102.619 407.132 103.665V112H404.047V104.142C404.047 103.267 403.82 102.582 403.365 102.088C402.917 101.594 402.294 101.347 401.499 101.347C400.959 101.347 400.479 101.466 400.059 101.705C399.644 101.937 399.317 102.276 399.078 102.719C398.846 103.162 398.729 103.699 398.729 104.33ZM416.806 98.9091V101.295H409.28V98.9091H416.806ZM411.138 95.7727H414.223V108.062C414.223 108.477 414.286 108.795 414.411 109.017C414.542 109.233 414.712 109.381 414.922 109.46C415.132 109.54 415.365 109.58 415.621 109.58C415.814 109.58 415.99 109.565 416.15 109.537C416.314 109.509 416.439 109.483 416.525 109.46L417.044 111.872C416.88 111.929 416.644 111.991 416.337 112.06C416.036 112.128 415.667 112.168 415.229 112.179C414.456 112.202 413.76 112.085 413.141 111.83C412.522 111.568 412.03 111.165 411.667 110.619C411.309 110.074 411.132 109.392 411.138 108.574V95.7727ZM428.637 94.5455V112H425.475V94.5455H428.637ZM437.976 112H432.061V94.5455H438.096C439.828 94.5455 441.317 94.8949 442.561 95.5938C443.811 96.2869 444.772 97.2841 445.442 98.5852C446.113 99.8864 446.448 101.443 446.448 103.256C446.448 105.074 446.11 106.636 445.434 107.943C444.763 109.25 443.794 110.253 442.527 110.952C441.266 111.651 439.749 112 437.976 112ZM435.223 109.264H437.823C439.039 109.264 440.053 109.043 440.865 108.599C441.678 108.151 442.289 107.483 442.698 106.597C443.107 105.705 443.311 104.591 443.311 103.256C443.311 101.92 443.107 100.812 442.698 99.9318C442.289 99.0455 441.684 98.3835 440.882 97.946C440.087 97.5028 439.098 97.2812 437.917 97.2812H435.223V109.264Z" fill="white"/>
</g>
<defs>
<linearGradient id="paint0_linear_4327_8483" x1="360" y1="0" x2="360" y2="471" gradientUnits="userSpaceOnUse">
<stop stop-color="#E0ECFA"/>
<stop offset="1" stop-color="#C5DAF5"/>
</linearGradient>
<clipPath id="clip0_4327_8483">
<rect width="521" height="324" fill="white" transform="translate(100 74)"/>
</clipPath>
</defs>
</svg>
