<svg width="382" height="54" viewBox="0 0 382 54" fill="none" xmlns="http://www.w3.org/2000/svg">
<rect x="0.25" y="0.25" width="381.5" height="53.5" rx="1.75" stroke="#777777" stroke-width="0.5"/>
<line x1="19.3024" x2="19.3024" y2="18" stroke="#777777" stroke-width="0.5"/>
<line x1="61.2176" y1="1.14714e-08" x2="61.2176" y2="12" stroke="#777777" stroke-width="0.5"/>
<line x1="146.953" y1="1.14714e-08" x2="146.953" y2="12" stroke="#777777" stroke-width="0.5"/>
<line x1="232.689" y1="1.14714e-08" x2="232.689" y2="12" stroke="#777777" stroke-width="0.5"/>
<line x1="318.425" y1="1.14714e-08" x2="318.425" y2="12" stroke="#777777" stroke-width="0.5"/>
<line x1="146.953" y1="41" x2="146.953" y2="53" stroke="#777777" stroke-width="0.5"/>
<line x1="232.689" y1="41" x2="232.689" y2="53" stroke="#777777" stroke-width="0.5"/>
<line x1="318.425" y1="41" x2="318.425" y2="53" stroke="#777777" stroke-width="0.5"/>
<line x1="61.2176" y1="41" x2="61.2176" y2="53" stroke="#777777" stroke-width="0.5"/>
<line x1="19.3024" y1="35" x2="19.3024" y2="53" stroke="#777777" stroke-width="0.5"/>
<line x1="104.085" y1="35" x2="104.085" y2="53" stroke="#777777" stroke-width="0.5"/>
<line x1="189.821" y1="35" x2="189.821" y2="53" stroke="#777777" stroke-width="0.5"/>
<line x1="275.557" y1="35" x2="275.557" y2="53" stroke="#777777" stroke-width="0.5"/>
<line x1="360.34" y1="35" x2="360.34" y2="53" stroke="#777777" stroke-width="0.5"/>
<line x1="104.085" x2="104.085" y2="18" stroke="#777777" stroke-width="0.5"/>
<line x1="189.821" x2="189.821" y2="18" stroke="#777777" stroke-width="0.5"/>
<line x1="275.557" x2="275.557" y2="18" stroke="#777777" stroke-width="0.5"/>
<line x1="360.34" x2="360.34" y2="18" stroke="#777777" stroke-width="0.5"/>
</svg>
