<svg width="279" height="164" viewBox="0 0 279 164" fill="none" xmlns="http://www.w3.org/2000/svg">
<g clip-path="url(#clip0_920_2155)">
<path d="M7.52148 0H271.477C275.629 0 278.998 3.36453 278.998 7.50704V156.491C278.998 160.633 275.627 163.998 271.477 163.998H7.52148C3.37101 163.998 0 160.633 0 156.491V7.50704C0 3.36453 3.37101 0 7.52148 0Z" fill="#EAEAEA"/>
<path d="M271.479 0H7.52349C3.38507 0 0 3.37857 0 7.50704V32.1957H279V7.50704C279 3.37857 275.615 0 271.479 0Z" fill="#777777"/>
<path d="M72.5489 50.6621H24.7983C20.6619 50.6621 17.2769 54.0407 17.2769 58.1691V105.83C17.2769 109.959 20.6619 113.337 24.7983 113.337H72.5489C76.6853 113.337 80.0724 109.959 80.0724 105.83V58.1691C80.0724 54.0407 76.6873 50.6621 72.5489 50.6621Z" fill="#777777"/>
<path d="M98.8281 50.6621H253.262C255.248 50.6621 256.864 52.2722 256.864 54.2572V66.9635C256.864 68.9465 255.25 70.5586 253.262 70.5586H98.8281C96.8412 70.5586 95.228 68.9485 95.228 66.9655V54.2592C95.228 52.2762 96.8412 50.6641 98.8301 50.6641L98.8281 50.6621Z" fill="#777777"/>
<path d="M96.843 79.1289H255.246C256.138 79.1289 256.863 79.8527 256.863 80.743V87.464C256.863 88.3543 256.138 89.0781 255.246 89.0781H96.843C95.9511 89.0781 95.2258 88.3543 95.2258 87.464V80.743C95.2258 79.8527 95.9511 79.1289 96.843 79.1289Z" fill="#777777"/>
<path d="M96.843 96H255.246C256.138 96 256.863 96.7238 256.863 97.6141V104.335C256.863 105.225 256.138 105.949 255.246 105.949H96.843C95.9511 105.949 95.2258 105.225 95.2258 104.335V97.6141C95.2258 96.7238 95.9511 96 96.843 96Z" fill="#777777"/>
<path d="M48.6326 86.203C56.596 86.203 63.0548 79.7586 63.0548 71.8105C63.0548 63.8623 56.5981 57.418 48.6326 57.418C40.6671 57.418 34.2124 63.8623 34.2124 71.8105C34.2124 79.7586 40.6691 86.203 48.6326 86.203Z" fill="#EAEAEA"/>
<path d="M48.6325 88.1191C37.6737 88.1191 28.7781 97.6553 28.6455 109.469H68.6215C68.4889 97.6533 59.5933 88.1191 48.6345 88.1191H48.6325Z" fill="#EAEAEA"/>
<path d="M256.9 130.858H24.7983C20.6619 130.858 17.2769 134.237 17.2769 138.367V145.341C17.2769 149.47 20.6619 152.85 24.7983 152.85H256.9C261.036 152.85 264.423 149.472 264.423 145.341V138.367C264.423 134.239 261.038 130.858 256.9 130.858Z" fill="#777777"/>
<path d="M30.2908 138.565H251.343C253.316 138.565 254.919 140.163 254.919 142.134V142.425C254.919 144.394 253.318 145.994 251.343 145.994H30.2908C28.318 145.994 26.7148 144.396 26.7148 142.425V142.134C26.7148 140.165 28.316 138.565 30.2908 138.565Z" fill="#777777"/>
</g>
<defs>
<clipPath id="clip0_920_2155">
<rect width="279" height="164" fill="white"/>
</clipPath>
</defs>
</svg>
