<svg width="406" height="488" viewBox="0 0 406 488" fill="none" xmlns="http://www.w3.org/2000/svg">
<path d="M293.456 305.134C291.411 312.003 286.698 326.788 280.489 332.61C279.192 343.132 282.26 370.135 284.03 376.219L293.456 305.134ZM293.456 305.134C298.967 286.758 300.301 282.295 305.551 257.81M293.456 305.134L305.551 257.81M305.551 257.81C306.299 254.32 308.281 252.898 309.889 252.3L305.551 257.81ZM279.805 331.881L279.541 332.129L279.496 332.488C278.833 337.869 279.288 347.35 280.114 356.172C280.939 364.99 282.154 373.352 283.07 376.498C285.133 383.666 287.189 388.088 289.825 391.16C292.401 394.162 295.459 395.787 299.323 397.47C299.897 398.677 300.467 399.909 301.046 401.162C305.335 410.443 310.145 420.851 321.27 430.397C334.037 441.352 355.022 451.112 392.884 457.13C396.246 457.666 399.713 458.166 403.33 458.653L473.479 517.757L474.123 516.993L473.479 517.758C477.235 520.919 479.928 525.159 481.193 529.903C482.457 534.647 482.232 539.664 480.548 544.276C478.864 548.887 475.802 552.869 471.778 555.682C467.754 558.495 462.962 560.002 458.052 560H-27.0565C-31.9241 560.001 -36.6761 558.519 -40.6792 555.751C-44.6823 552.982 -47.7463 549.06 -49.4625 544.506C-51.1788 539.952 -51.4658 534.983 -50.2853 530.262C-49.1048 525.541 -46.5129 521.291 -42.8552 518.081C-20.4562 498.421 -3.49872 483.626 8.02026 473.691C13.7803 468.723 18.1771 464.974 21.2132 462.44C22.7321 461.173 23.9049 460.215 24.7351 459.562C25.1511 459.234 25.473 458.99 25.7055 458.825C25.8223 458.741 25.9074 458.684 25.9652 458.648C25.9711 458.644 25.9764 458.641 25.9812 458.638C27.7136 458.138 29.4294 457.617 31.1095 457.108C31.7554 456.912 32.3959 456.718 33.0302 456.527L33.0351 456.525C67.099 446.079 88.3023 436.31 101.775 426.601C115.102 416.996 120.861 407.451 124.021 397.43C129.454 394.985 133.37 392.821 136.193 389.74C139.112 386.552 140.774 382.483 141.913 376.403L141.914 376.399C142.627 372.511 143.251 364.155 143.568 355.711C143.884 347.269 143.897 338.594 143.357 334.075L143.315 333.724L143.061 333.477C140.016 330.514 137.589 325.106 135.51 319.445C134.75 317.377 134.049 315.311 133.383 313.351C133.145 312.649 132.911 311.96 132.681 311.29C131.815 308.77 130.994 306.491 130.186 304.812C124.435 292.876 122.49 285.621 118.353 270.189C117.332 266.382 116.178 262.078 114.8 257.083L114.796 257.067L114.791 257.051C114.192 255.134 113.209 254.035 112.088 253.348C111.549 253.018 111.004 252.799 110.519 252.627C110.307 252.552 110.123 252.49 109.954 252.434C109.703 252.35 109.484 252.277 109.254 252.185C107.03 251.243 105.073 249.761 102.921 246.844C99.9183 242.774 99.3572 239.631 98.8223 235.381C98.7831 235.07 98.7442 234.754 98.7045 234.431C98.1934 230.279 97.5566 225.105 94.7639 217.462L94.7576 217.444L94.7506 217.427C91.0068 208.242 88.3932 199.149 87.4224 191.707C86.9368 187.984 86.8677 184.714 87.2536 182.07C87.6405 179.418 88.4671 177.512 89.6652 176.365C91.4052 174.814 92.7287 174.632 93.765 174.795C94.3241 174.882 94.8555 175.079 95.3955 175.32C95.5524 175.39 95.7252 175.471 95.9045 175.555C96.2749 175.729 96.673 175.916 97.0156 176.043C97.2959 176.149 97.7561 176.246 98.2141 175.995C98.6701 175.746 98.8329 175.309 98.8943 175.037C99.0116 174.518 98.9315 173.84 98.8217 173.206C98.647 172.197 98.3002 170.824 97.9052 169.26C97.7745 168.742 97.6384 168.203 97.5016 167.65C95.2505 158.444 94.0501 144.596 93.4157 132.991C93.0992 127.2 92.9246 121.99 92.8291 118.226C92.7814 116.345 92.7535 114.826 92.7375 113.778C92.7336 113.528 92.7305 113.305 92.728 113.11L93.5817 113.065L93.4169 111.975C91.1005 96.6497 91.6273 82.5657 101.823 61.0657L101.828 61.0535C106.833 50.1223 111.507 46.0029 115.439 43.8765C116.943 43.0632 118.334 42.5386 119.691 42.0272C120.154 41.8524 120.614 41.6791 121.073 41.4964C122.841 40.7919 124.537 39.9617 125.965 38.3654L125.967 38.3629C142.09 20.2236 157.069 15.5424 169.959 11.5137C174.107 10.2172 178.039 8.98834 181.724 7.40026L181.724 7.39998C213.596 -6.36452 240.622 4.97963 262.777 14.2792C263.489 14.5783 264.197 14.8752 264.899 15.1691C266.997 16.0736 269.945 16.9291 273.286 17.8987C273.823 18.0546 274.371 18.2135 274.926 18.376C278.979 19.5613 283.556 20.9609 288.116 22.8591C297.25 26.6621 306.165 32.4049 310.612 42.2371L310.613 42.239C313.274 48.0914 315.778 56.0532 317.858 62.8362C318.028 63.393 318.196 63.942 318.361 64.4812C319.196 67.2113 319.954 69.69 320.611 71.6556C321.003 72.8322 321.367 73.8454 321.694 74.6295C321.858 75.0212 322.019 75.3709 322.176 75.6621C322.272 75.8394 322.382 76.0225 322.506 76.1885C324.38 84.8302 325.387 98.7039 324.415 113.943C324.181 117.586 323.992 121.102 323.806 124.534C323.018 139.14 322.311 152.244 318.669 167.224C318.532 167.766 318.395 168.295 318.263 168.804C317.857 170.376 317.498 171.76 317.318 172.776C317.205 173.41 317.121 174.092 317.241 174.615C317.305 174.891 317.474 175.333 317.943 175.577C318.402 175.814 318.856 175.712 319.132 175.606C319.571 175.444 320.04 175.194 320.456 174.972C320.566 174.913 320.672 174.857 320.773 174.804C321.305 174.527 321.807 174.296 322.335 174.175C322.846 174.058 323.389 174.043 324.001 174.222C324.619 174.403 325.362 174.798 326.243 175.579C327.454 176.745 328.387 178.724 328.942 181.461C329.495 184.188 329.649 187.562 329.393 191.377C328.88 199.005 326.733 208.275 323.003 217.427L322.996 217.445L322.989 217.463C320.007 225.676 319.329 230.566 318.923 234.237C318.894 234.505 318.865 234.766 318.838 235.02C318.494 238.209 318.266 240.313 316.625 243.204L316.619 243.216C316.318 243.764 316.042 244.32 315.767 244.875C314.476 247.477 313.206 250.035 309.549 251.36L309.541 251.363C307.651 252.066 305.401 253.737 304.573 257.601C299.33 282.056 298.003 286.493 292.498 304.847L292.498 304.848C291.478 308.273 289.801 313.646 287.612 318.879C285.407 324.15 282.743 329.127 279.805 331.881Z" stroke="#009CF9" stroke-width="2"/>
</svg>
