<svg width="40" height="40" viewBox="0 0 40 40" fill="none" xmlns="http://www.w3.org/2000/svg">
<mask id="path-1-outside-1_2864_5332" maskUnits="userSpaceOnUse" x="5" y="1" width="27" height="34" fill="black">
<rect fill="white" x="5" y="1" width="27" height="34"/>
<path d="M11.5082 34.7455C9.69992 34.7426 8.23579 33.2767 8.23404 31.469L8.22435 16.9665L6 15.0806V8.63522C6.00286 4.97821 8.9667 2.01437 12.6238 2.01144L26.6371 2L30.9656 2.04576L31.0959 4.1603L31.1965 7.26869L26.6456 7.36525H12.1477C12.0466 7.36525 11.6596 7.39566 11.5362 7.59854C11.4024 7.8162 11.4527 8.40263 11.9934 9.39356L14.4023 13.9375C14.652 14.4097 14.7829 14.9366 14.7829 15.471V31.4731C14.7829 33.2819 13.317 34.7489 11.5082 34.7495V34.7455ZM7.34309 14.4125L9.56737 16.4065L9.5742 31.469C9.57539 32.5356 10.4395 33.4002 11.5064 33.4025C12.5735 33.4019 13.4381 32.5372 13.4388 31.4703V15.4682C13.4393 15.1538 13.3627 14.8441 13.2159 14.5663L10.8126 10.0297C10.0669 8.66494 9.92972 7.63272 10.3989 6.8829C10.8121 6.31321 11.4848 5.9909 12.1877 6.02564H26.6314L29.826 5.95602L29.7026 3.37504L27.0439 3.34714L26.4547 3.35453H12.6243C9.70913 3.35732 7.34595 5.71994 7.34309 8.63578V14.4125Z"/>
</mask>
<path d="M11.5082 34.7455C9.69992 34.7426 8.23579 33.2767 8.23404 31.469L8.22435 16.9665L6 15.0806V8.63522C6.00286 4.97821 8.9667 2.01437 12.6238 2.01144L26.6371 2L30.9656 2.04576L31.0959 4.1603L31.1965 7.26869L26.6456 7.36525H12.1477C12.0466 7.36525 11.6596 7.39566 11.5362 7.59854C11.4024 7.8162 11.4527 8.40263 11.9934 9.39356L14.4023 13.9375C14.652 14.4097 14.7829 14.9366 14.7829 15.471V31.4731C14.7829 33.2819 13.317 34.7489 11.5082 34.7495V34.7455ZM7.34309 14.4125L9.56737 16.4065L9.5742 31.469C9.57539 32.5356 10.4395 33.4002 11.5064 33.4025C12.5735 33.4019 13.4381 32.5372 13.4388 31.4703V15.4682C13.4393 15.1538 13.3627 14.8441 13.2159 14.5663L10.8126 10.0297C10.0669 8.66494 9.92972 7.63272 10.3989 6.8829C10.8121 6.31321 11.4848 5.9909 12.1877 6.02564H26.6314L29.826 5.95602L29.7026 3.37504L27.0439 3.34714L26.4547 3.35453H12.6243C9.70913 3.35732 7.34595 5.71994 7.34309 8.63578V14.4125Z" fill="#009CF9"/>
<path d="M11.5082 34.7455C9.69992 34.7426 8.23579 33.2767 8.23404 31.469L8.22435 16.9665L6 15.0806V8.63522C6.00286 4.97821 8.9667 2.01437 12.6238 2.01144L26.6371 2L30.9656 2.04576L31.0959 4.1603L31.1965 7.26869L26.6456 7.36525H12.1477C12.0466 7.36525 11.6596 7.39566 11.5362 7.59854C11.4024 7.8162 11.4527 8.40263 11.9934 9.39356L14.4023 13.9375C14.652 14.4097 14.7829 14.9366 14.7829 15.471V31.4731C14.7829 33.2819 13.317 34.7489 11.5082 34.7495V34.7455ZM7.34309 14.4125L9.56737 16.4065L9.5742 31.469C9.57539 32.5356 10.4395 33.4002 11.5064 33.4025C12.5735 33.4019 13.4381 32.5372 13.4388 31.4703V15.4682C13.4393 15.1538 13.3627 14.8441 13.2159 14.5663L10.8126 10.0297C10.0669 8.66494 9.92972 7.63272 10.3989 6.8829C10.8121 6.31321 11.4848 5.9909 12.1877 6.02564H26.6314L29.826 5.95602L29.7026 3.37504L27.0439 3.34714L26.4547 3.35453H12.6243C9.70913 3.35732 7.34595 5.71994 7.34309 8.63578V14.4125Z" stroke="#009CF9" stroke-width="0.2" mask="url(#path-1-outside-1_2864_5332)"/>
<mask id="path-2-outside-2_2864_5332" maskUnits="userSpaceOnUse" x="5.00732" y="4.99707" width="27" height="33" fill="black">
<rect fill="white" x="5.00732" y="4.99707" width="27" height="33"/>
<path d="M23.7542 37.3086H12.619C8.96942 37.3046 6.01186 34.3471 6.00732 30.6975V13.3809L7.24863 14.273L9.60322 16.3835L9.61125 31.4438C9.6095 32.5102 10.473 33.3761 11.5394 33.3778H11.5435C12.6105 33.3756 13.4746 32.5108 13.4757 31.4444V15.4422C13.4763 15.1268 13.3991 14.8165 13.2517 14.5381L10.8456 10.0061C10.0999 8.64084 9.96327 7.60582 10.4331 6.85879C10.8508 6.2845 11.5309 5.96163 12.2402 6.00154L31.1621 5.99707L31.1518 6.07869L31.2735 7.97389L30.3677 9.01519V30.6975C30.3631 34.3476 27.4044 37.3052 23.7542 37.3086ZM7.35209 16.1418V30.6975C7.35662 33.6035 9.71122 35.9586 12.6179 35.9638H23.7542C26.662 35.9604 29.0189 33.6047 29.0235 30.6969V8.51108L29.8962 7.50745L29.887 7.35439L28.1611 7.34518L28.1646 7.3417H12.2099C12.0881 7.34811 11.6955 7.36974 11.5715 7.57317C11.4377 7.79153 11.488 8.37852 12.0287 9.36889L14.4388 13.9084C14.6891 14.381 14.8193 14.9073 14.8193 15.4422V31.4444C14.8176 33.2521 13.3529 34.718 11.5452 34.7209C9.73696 34.7237 8.26934 33.26 8.26648 31.4524C8.26648 31.4495 8.26648 31.4473 8.26648 31.4449L8.25846 16.9402L7.35209 16.1418Z"/>
</mask>
<path d="M23.7542 37.3086H12.619C8.96942 37.3046 6.01186 34.3471 6.00732 30.6975V13.3809L7.24863 14.273L9.60322 16.3835L9.61125 31.4438C9.6095 32.5102 10.473 33.3761 11.5394 33.3778H11.5435C12.6105 33.3756 13.4746 32.5108 13.4757 31.4444V15.4422C13.4763 15.1268 13.3991 14.8165 13.2517 14.5381L10.8456 10.0061C10.0999 8.64084 9.96327 7.60582 10.4331 6.85879C10.8508 6.2845 11.5309 5.96163 12.2402 6.00154L31.1621 5.99707L31.1518 6.07869L31.2735 7.97389L30.3677 9.01519V30.6975C30.3631 34.3476 27.4044 37.3052 23.7542 37.3086ZM7.35209 16.1418V30.6975C7.35662 33.6035 9.71122 35.9586 12.6179 35.9638H23.7542C26.662 35.9604 29.0189 33.6047 29.0235 30.6969V8.51108L29.8962 7.50745L29.887 7.35439L28.1611 7.34518L28.1646 7.3417H12.2099C12.0881 7.34811 11.6955 7.36974 11.5715 7.57317C11.4377 7.79153 11.488 8.37852 12.0287 9.36889L14.4388 13.9084C14.6891 14.381 14.8193 14.9073 14.8193 15.4422V31.4444C14.8176 33.2521 13.3529 34.718 11.5452 34.7209C9.73696 34.7237 8.26934 33.26 8.26648 31.4524C8.26648 31.4495 8.26648 31.4473 8.26648 31.4449L8.25846 16.9402L7.35209 16.1418Z" fill="#009CF9"/>
<path d="M23.7542 37.3086H12.619C8.96942 37.3046 6.01186 34.3471 6.00732 30.6975V13.3809L7.24863 14.273L9.60322 16.3835L9.61125 31.4438C9.6095 32.5102 10.473 33.3761 11.5394 33.3778H11.5435C12.6105 33.3756 13.4746 32.5108 13.4757 31.4444V15.4422C13.4763 15.1268 13.3991 14.8165 13.2517 14.5381L10.8456 10.0061C10.0999 8.64084 9.96327 7.60582 10.4331 6.85879C10.8508 6.2845 11.5309 5.96163 12.2402 6.00154L31.1621 5.99707L31.1518 6.07869L31.2735 7.97389L30.3677 9.01519V30.6975C30.3631 34.3476 27.4044 37.3052 23.7542 37.3086ZM7.35209 16.1418V30.6975C7.35662 33.6035 9.71122 35.9586 12.6179 35.9638H23.7542C26.662 35.9604 29.0189 33.6047 29.0235 30.6969V8.51108L29.8962 7.50745L29.887 7.35439L28.1611 7.34518L28.1646 7.3417H12.2099C12.0881 7.34811 11.6955 7.36974 11.5715 7.57317C11.4377 7.79153 11.488 8.37852 12.0287 9.36889L14.4388 13.9084C14.6891 14.381 14.8193 14.9073 14.8193 15.4422V31.4444C14.8176 33.2521 13.3529 34.718 11.5452 34.7209C9.73696 34.7237 8.26934 33.26 8.26648 31.4524C8.26648 31.4495 8.26648 31.4473 8.26648 31.4449L8.25846 16.9402L7.35209 16.1418Z" stroke="#009CF9" stroke-width="0.2" mask="url(#path-2-outside-2_2864_5332)"/>
<mask id="path-3-outside-3_2864_5332" maskUnits="userSpaceOnUse" x="30" y="1.06396" width="5" height="9" fill="black">
<rect fill="white" x="30" y="1.06396" width="5" height="9"/>
<path d="M31 9.12433L31.5755 8.43283C31.5755 8.43283 32.0327 8.23163 31.8944 6.56233C31.7561 4.89288 31.5738 2.06396 31.5738 2.06396L33.9364 2.08685L34.3364 6.65204C34.4147 7.46702 34.0758 8.26596 33.4352 8.77565L32.4064 9.27976L31 9.12433Z"/>
</mask>
<path d="M31 9.12433L31.5755 8.43283C31.5755 8.43283 32.0327 8.23163 31.8944 6.56233C31.7561 4.89288 31.5738 2.06396 31.5738 2.06396L33.9364 2.08685L34.3364 6.65204C34.4147 7.46702 34.0758 8.26596 33.4352 8.77565L32.4064 9.27976L31 9.12433Z" fill="#009CF9"/>
<path d="M31 9.12433L31.5755 8.43283C31.5755 8.43283 32.0327 8.23163 31.8944 6.56233C31.7561 4.89288 31.5738 2.06396 31.5738 2.06396L33.9364 2.08685L34.3364 6.65204C34.4147 7.46702 34.0758 8.26596 33.4352 8.77565L32.4064 9.27976L31 9.12433Z" stroke="#009CF9" stroke-width="0.2" mask="url(#path-3-outside-3_2864_5332)"/>
<mask id="path-4-outside-4_2864_5332" maskUnits="userSpaceOnUse" x="30" y="11.7344" width="2" height="7" fill="black">
<rect fill="white" x="30" y="11.7344" width="2" height="7"/>
<path d="M31.7618 13.2431V17.8779C31.7618 18.0791 31.4652 18.2637 31 18.3855V12.7344C31.4646 12.8573 31.7618 13.039 31.7618 13.2431Z"/>
</mask>
<path d="M31.7618 13.2431V17.8779C31.7618 18.0791 31.4652 18.2637 31 18.3855V12.7344C31.4646 12.8573 31.7618 13.039 31.7618 13.2431Z" fill="#009CF9"/>
<path d="M31.7618 13.2431V17.8779C31.7618 18.0791 31.4652 18.2637 31 18.3855V12.7344C31.4646 12.8573 31.7618 13.039 31.7618 13.2431Z" stroke="#009CF9" stroke-width="0.2" mask="url(#path-4-outside-4_2864_5332)"/>
<mask id="path-5-outside-5_2864_5332" maskUnits="userSpaceOnUse" x="9.12891" y="5.02441" width="18" height="29" fill="black">
<rect fill="white" x="9.12891" y="5.02441" width="18" height="29"/>
<path d="M23.5298 33.2001H12.8575L13.2798 32.2537C13.389 32.0068 13.4456 31.7394 13.4456 31.4695V15.4674C13.4456 15.1525 13.369 14.8422 13.2216 14.564L10.8144 10.0318C10.0685 8.66543 9.93192 7.63153 10.4017 6.88408C10.8149 6.31537 11.4865 5.99306 12.1888 6.02683H26.0312V30.6981C26.0301 32.0794 24.9111 33.1989 23.5298 33.2001ZM14.7657 31.857H23.5298C24.1693 31.8564 24.6882 31.3375 24.6888 30.6981V7.36866H12.1477C12.0333 7.36866 11.6602 7.39894 11.5368 7.6007C11.403 7.81906 11.4533 8.40591 11.9939 9.39641L14.4051 13.9358C14.6554 14.4085 14.7863 14.9348 14.7863 15.4698V31.4719C14.7868 31.6004 14.78 31.729 14.7657 31.857Z"/>
</mask>
<path d="M23.5298 33.2001H12.8575L13.2798 32.2537C13.389 32.0068 13.4456 31.7394 13.4456 31.4695V15.4674C13.4456 15.1525 13.369 14.8422 13.2216 14.564L10.8144 10.0318C10.0685 8.66543 9.93192 7.63153 10.4017 6.88408C10.8149 6.31537 11.4865 5.99306 12.1888 6.02683H26.0312V30.6981C26.0301 32.0794 24.9111 33.1989 23.5298 33.2001ZM14.7657 31.857H23.5298C24.1693 31.8564 24.6882 31.3375 24.6888 30.6981V7.36866H12.1477C12.0333 7.36866 11.6602 7.39894 11.5368 7.6007C11.403 7.81906 11.4533 8.40591 11.9939 9.39641L14.4051 13.9358C14.6554 14.4085 14.7863 14.9348 14.7863 15.4698V31.4719C14.7868 31.6004 14.78 31.729 14.7657 31.857Z" fill="#009CF9"/>
<path d="M23.5298 33.2001H12.8575L13.2798 32.2537C13.389 32.0068 13.4456 31.7394 13.4456 31.4695V15.4674C13.4456 15.1525 13.369 14.8422 13.2216 14.564L10.8144 10.0318C10.0685 8.66543 9.93192 7.63153 10.4017 6.88408C10.8149 6.31537 11.4865 5.99306 12.1888 6.02683H26.0312V30.6981C26.0301 32.0794 24.9111 33.1989 23.5298 33.2001ZM14.7657 31.857H23.5298C24.1693 31.8564 24.6882 31.3375 24.6888 30.6981V7.36866H12.1477C12.0333 7.36866 11.6602 7.39894 11.5368 7.6007C11.403 7.81906 11.4533 8.40591 11.9939 9.39641L14.4051 13.9358C14.6554 14.4085 14.7863 14.9348 14.7863 15.4698V31.4719C14.7868 31.6004 14.78 31.729 14.7657 31.857Z" stroke="#009CF9" stroke-width="0.2" mask="url(#path-5-outside-5_2864_5332)"/>
<rect x="24.7244" y="8.15898" width="4.79948" height="1.10699" fill="#009CF9" stroke="#009CF9" stroke-width="0.1"/>
<mask id="path-7-outside-6_2864_5332" maskUnits="userSpaceOnUse" x="15.4795" y="26.7397" width="3" height="4" fill="black">
<rect fill="white" x="15.4795" y="26.7397" width="3" height="4"/>
<path d="M17.5231 27.7397C17.6288 27.7397 17.7248 27.7495 17.8117 27.7678C17.8986 27.7866 17.9729 27.8175 18.0357 27.8597C18.0975 27.902 18.1454 27.9587 18.1797 28.029C18.214 28.0992 18.2311 28.1861 18.2311 28.2895C18.2311 28.4015 18.206 28.4947 18.1551 28.5695C18.1043 28.6439 18.0294 28.705 17.9294 28.7524C18.066 28.7919 18.1683 28.8604 18.2357 28.9588C18.3032 29.0576 18.3363 29.1759 18.3363 29.3142C18.3363 29.4262 18.3146 29.5229 18.2717 29.6051C18.2283 29.6869 18.1694 29.7531 18.0957 29.8052C18.022 29.8567 17.9385 29.8949 17.8442 29.92C17.7505 29.9446 17.6533 29.9571 17.5539 29.9571H16.4795V27.7397H17.5231ZM17.4608 28.6376C17.5476 28.6376 17.6191 28.617 17.6751 28.5752C17.7311 28.5341 17.7585 28.4667 17.7585 28.3735C17.7585 28.3216 17.75 28.2793 17.7311 28.2461C17.7122 28.2129 17.6871 28.1872 17.6568 28.1684C17.6254 28.1501 17.5894 28.137 17.5493 28.1294C17.5088 28.1226 17.4671 28.1187 17.423 28.1187H16.9676V28.6376H17.4608ZM17.4888 29.5783C17.5368 29.5783 17.5819 29.5737 17.6254 29.5646C17.6688 29.5554 17.7077 29.5394 17.7403 29.5177C17.7734 29.496 17.8003 29.4668 17.8197 29.4291C17.8391 29.392 17.8494 29.3446 17.8494 29.2863C17.8494 29.1726 17.8168 29.0913 17.7528 29.0428C17.6882 28.9942 17.6037 28.9697 17.4979 28.9697H16.9676V29.5783H17.4888Z"/>
</mask>
<path d="M17.5231 27.7397C17.6288 27.7397 17.7248 27.7495 17.8117 27.7678C17.8986 27.7866 17.9729 27.8175 18.0357 27.8597C18.0975 27.902 18.1454 27.9587 18.1797 28.029C18.214 28.0992 18.2311 28.1861 18.2311 28.2895C18.2311 28.4015 18.206 28.4947 18.1551 28.5695C18.1043 28.6439 18.0294 28.705 17.9294 28.7524C18.066 28.7919 18.1683 28.8604 18.2357 28.9588C18.3032 29.0576 18.3363 29.1759 18.3363 29.3142C18.3363 29.4262 18.3146 29.5229 18.2717 29.6051C18.2283 29.6869 18.1694 29.7531 18.0957 29.8052C18.022 29.8567 17.9385 29.8949 17.8442 29.92C17.7505 29.9446 17.6533 29.9571 17.5539 29.9571H16.4795V27.7397H17.5231ZM17.4608 28.6376C17.5476 28.6376 17.6191 28.617 17.6751 28.5752C17.7311 28.5341 17.7585 28.4667 17.7585 28.3735C17.7585 28.3216 17.75 28.2793 17.7311 28.2461C17.7122 28.2129 17.6871 28.1872 17.6568 28.1684C17.6254 28.1501 17.5894 28.137 17.5493 28.1294C17.5088 28.1226 17.4671 28.1187 17.423 28.1187H16.9676V28.6376H17.4608ZM17.4888 29.5783C17.5368 29.5783 17.5819 29.5737 17.6254 29.5646C17.6688 29.5554 17.7077 29.5394 17.7403 29.5177C17.7734 29.496 17.8003 29.4668 17.8197 29.4291C17.8391 29.392 17.8494 29.3446 17.8494 29.2863C17.8494 29.1726 17.8168 29.0913 17.7528 29.0428C17.6882 28.9942 17.6037 28.9697 17.4979 28.9697H16.9676V29.5783H17.4888Z" fill="#009CF9"/>
<path d="M17.5231 27.7397C17.6288 27.7397 17.7248 27.7495 17.8117 27.7678C17.8986 27.7866 17.9729 27.8175 18.0357 27.8597C18.0975 27.902 18.1454 27.9587 18.1797 28.029C18.214 28.0992 18.2311 28.1861 18.2311 28.2895C18.2311 28.4015 18.206 28.4947 18.1551 28.5695C18.1043 28.6439 18.0294 28.705 17.9294 28.7524C18.066 28.7919 18.1683 28.8604 18.2357 28.9588C18.3032 29.0576 18.3363 29.1759 18.3363 29.3142C18.3363 29.4262 18.3146 29.5229 18.2717 29.6051C18.2283 29.6869 18.1694 29.7531 18.0957 29.8052C18.022 29.8567 17.9385 29.8949 17.8442 29.92C17.7505 29.9446 17.6533 29.9571 17.5539 29.9571H16.4795V27.7397H17.5231ZM17.4608 28.6376C17.5476 28.6376 17.6191 28.617 17.6751 28.5752C17.7311 28.5341 17.7585 28.4667 17.7585 28.3735C17.7585 28.3216 17.75 28.2793 17.7311 28.2461C17.7122 28.2129 17.6871 28.1872 17.6568 28.1684C17.6254 28.1501 17.5894 28.137 17.5493 28.1294C17.5088 28.1226 17.4671 28.1187 17.423 28.1187H16.9676V28.6376H17.4608ZM17.4888 29.5783C17.5368 29.5783 17.5819 29.5737 17.6254 29.5646C17.6688 29.5554 17.7077 29.5394 17.7403 29.5177C17.7734 29.496 17.8003 29.4668 17.8197 29.4291C17.8391 29.392 17.8494 29.3446 17.8494 29.2863C17.8494 29.1726 17.8168 29.0913 17.7528 29.0428C17.6882 28.9942 17.6037 28.9697 17.4979 28.9697H16.9676V29.5783H17.4888Z" stroke="#009CF9" stroke-width="0.2" mask="url(#path-7-outside-6_2864_5332)"/>
<mask id="path-8-outside-7_2864_5332" maskUnits="userSpaceOnUse" x="17.4336" y="26.7397" width="4" height="4" fill="black">
<rect fill="white" x="17.4336" y="26.7397" width="4" height="4"/>
<path d="M19.7721 27.7397L20.6007 29.9571H20.0949L19.927 29.4635H19.0977L18.924 29.9571H18.4336L19.272 27.7397H19.7721ZM19.8001 29.1006L19.52 28.2867H19.5143L19.2257 29.1006H19.8001Z"/>
</mask>
<path d="M19.7721 27.7397L20.6007 29.9571H20.0949L19.927 29.4635H19.0977L18.924 29.9571H18.4336L19.272 27.7397H19.7721ZM19.8001 29.1006L19.52 28.2867H19.5143L19.2257 29.1006H19.8001Z" fill="#009CF9"/>
<path d="M19.7721 27.7397L20.6007 29.9571H20.0949L19.927 29.4635H19.0977L18.924 29.9571H18.4336L19.272 27.7397H19.7721ZM19.8001 29.1006L19.52 28.2867H19.5143L19.2257 29.1006H19.8001Z" stroke="#009CF9" stroke-width="0.2" mask="url(#path-8-outside-7_2864_5332)"/>
<mask id="path-9-outside-8_2864_5332" maskUnits="userSpaceOnUse" x="19.6963" y="26.688" width="4" height="4" fill="black">
<rect fill="white" x="19.6963" y="26.688" width="4" height="4"/>
<path d="M22.2148 28.332C22.1856 28.2859 22.1502 28.2453 22.1068 28.2098C22.0633 28.1749 22.0141 28.1469 21.9587 28.1275C21.9038 28.1075 21.8467 28.0978 21.7867 28.0978C21.677 28.0978 21.5838 28.119 21.5072 28.1618C21.4301 28.2041 21.3684 28.2606 21.321 28.332C21.2729 28.4035 21.2381 28.4852 21.2163 28.5761C21.1952 28.6671 21.1844 28.7612 21.1844 28.8585C21.1844 28.9515 21.1952 29.0425 21.2163 29.1304C21.2381 29.2185 21.2729 29.2973 21.321 29.3682C21.3684 29.4385 21.4301 29.4951 21.5072 29.5374C21.5838 29.5797 21.677 29.6008 21.7867 29.6008C21.9359 29.6008 22.0519 29.5557 22.1359 29.4643C22.2199 29.3733 22.2713 29.2533 22.2896 29.1042H22.7617C22.7491 29.243 22.7171 29.3682 22.6651 29.4797C22.6131 29.5917 22.5451 29.6871 22.4605 29.7654C22.3754 29.8442 22.2765 29.9042 22.1622 29.9454C22.0484 29.9871 21.9227 30.0078 21.7867 30.0078C21.6164 30.0078 21.4644 29.9781 21.3283 29.9192C21.1929 29.8603 21.0786 29.7791 20.9855 29.6757C20.8923 29.5717 20.8209 29.4505 20.7711 29.3106C20.7214 29.171 20.6963 29.0202 20.6963 28.8585C20.6963 28.6933 20.7214 28.5395 20.7711 28.3978C20.8209 28.2561 20.8923 28.1321 20.9855 28.0263C21.0786 27.9211 21.1929 27.8383 21.3283 27.7783C21.4644 27.7183 21.6164 27.688 21.7867 27.688C21.9084 27.688 22.0239 27.7057 22.133 27.7406C22.2416 27.776 22.3388 27.8275 22.4245 27.8943C22.5108 27.9617 22.5817 28.0452 22.6371 28.1447C22.6931 28.2441 22.7285 28.3579 22.7428 28.4864H22.2713C22.2628 28.4304 22.2439 28.3789 22.2148 28.332Z"/>
</mask>
<path d="M22.2148 28.332C22.1856 28.2859 22.1502 28.2453 22.1068 28.2098C22.0633 28.1749 22.0141 28.1469 21.9587 28.1275C21.9038 28.1075 21.8467 28.0978 21.7867 28.0978C21.677 28.0978 21.5838 28.119 21.5072 28.1618C21.4301 28.2041 21.3684 28.2606 21.321 28.332C21.2729 28.4035 21.2381 28.4852 21.2163 28.5761C21.1952 28.6671 21.1844 28.7612 21.1844 28.8585C21.1844 28.9515 21.1952 29.0425 21.2163 29.1304C21.2381 29.2185 21.2729 29.2973 21.321 29.3682C21.3684 29.4385 21.4301 29.4951 21.5072 29.5374C21.5838 29.5797 21.677 29.6008 21.7867 29.6008C21.9359 29.6008 22.0519 29.5557 22.1359 29.4643C22.2199 29.3733 22.2713 29.2533 22.2896 29.1042H22.7617C22.7491 29.243 22.7171 29.3682 22.6651 29.4797C22.6131 29.5917 22.5451 29.6871 22.4605 29.7654C22.3754 29.8442 22.2765 29.9042 22.1622 29.9454C22.0484 29.9871 21.9227 30.0078 21.7867 30.0078C21.6164 30.0078 21.4644 29.9781 21.3283 29.9192C21.1929 29.8603 21.0786 29.7791 20.9855 29.6757C20.8923 29.5717 20.8209 29.4505 20.7711 29.3106C20.7214 29.171 20.6963 29.0202 20.6963 28.8585C20.6963 28.6933 20.7214 28.5395 20.7711 28.3978C20.8209 28.2561 20.8923 28.1321 20.9855 28.0263C21.0786 27.9211 21.1929 27.8383 21.3283 27.7783C21.4644 27.7183 21.6164 27.688 21.7867 27.688C21.9084 27.688 22.0239 27.7057 22.133 27.7406C22.2416 27.776 22.3388 27.8275 22.4245 27.8943C22.5108 27.9617 22.5817 28.0452 22.6371 28.1447C22.6931 28.2441 22.7285 28.3579 22.7428 28.4864H22.2713C22.2628 28.4304 22.2439 28.3789 22.2148 28.332Z" fill="#009CF9"/>
<path d="M22.2148 28.332C22.1856 28.2859 22.1502 28.2453 22.1068 28.2098C22.0633 28.1749 22.0141 28.1469 21.9587 28.1275C21.9038 28.1075 21.8467 28.0978 21.7867 28.0978C21.677 28.0978 21.5838 28.119 21.5072 28.1618C21.4301 28.2041 21.3684 28.2606 21.321 28.332C21.2729 28.4035 21.2381 28.4852 21.2163 28.5761C21.1952 28.6671 21.1844 28.7612 21.1844 28.8585C21.1844 28.9515 21.1952 29.0425 21.2163 29.1304C21.2381 29.2185 21.2729 29.2973 21.321 29.3682C21.3684 29.4385 21.4301 29.4951 21.5072 29.5374C21.5838 29.5797 21.677 29.6008 21.7867 29.6008C21.9359 29.6008 22.0519 29.5557 22.1359 29.4643C22.2199 29.3733 22.2713 29.2533 22.2896 29.1042H22.7617C22.7491 29.243 22.7171 29.3682 22.6651 29.4797C22.6131 29.5917 22.5451 29.6871 22.4605 29.7654C22.3754 29.8442 22.2765 29.9042 22.1622 29.9454C22.0484 29.9871 21.9227 30.0078 21.7867 30.0078C21.6164 30.0078 21.4644 29.9781 21.3283 29.9192C21.1929 29.8603 21.0786 29.7791 20.9855 29.6757C20.8923 29.5717 20.8209 29.4505 20.7711 29.3106C20.7214 29.171 20.6963 29.0202 20.6963 28.8585C20.6963 28.6933 20.7214 28.5395 20.7711 28.3978C20.8209 28.2561 20.8923 28.1321 20.9855 28.0263C21.0786 27.9211 21.1929 27.8383 21.3283 27.7783C21.4644 27.7183 21.6164 27.688 21.7867 27.688C21.9084 27.688 22.0239 27.7057 22.133 27.7406C22.2416 27.776 22.3388 27.8275 22.4245 27.8943C22.5108 27.9617 22.5817 28.0452 22.6371 28.1447C22.6931 28.2441 22.7285 28.3579 22.7428 28.4864H22.2713C22.2628 28.4304 22.2439 28.3789 22.2148 28.332Z" stroke="#009CF9" stroke-width="0.2" mask="url(#path-9-outside-8_2864_5332)"/>
</svg>
