<svg width="36" height="36" viewBox="0 0 36 36" fill="none" xmlns="http://www.w3.org/2000/svg">
<path d="M10.3215 7.28356C10.2026 7.47706 10.2473 7.99838 10.728 8.87928L12.8694 12.9187L10.3215 7.28356ZM10.3215 7.28356C10.4313 7.10322 10.7752 7.07618 10.8651 7.07618H23.7533L27.7539 6.9913L27.7539 6.9918L27.7989 6.99034L27.7979 6.94535L27.7974 6.94536L27.7095 4.22708L27.5937 2.34732L23.7457 2.30664L11.2884 2.31681C8.03733 2.31942 5.40257 4.95418 5.40002 8.20515L10.3215 7.28356ZM10.2951 30.2224C11.2436 30.2219 12.0123 29.4533 12.0128 28.5048V14.2794C12.0133 14 11.9452 13.7246 11.8147 13.4776M10.2951 30.2224L10.2952 30.1774C10.2952 30.1774 10.2952 30.1774 10.2952 30.1774M10.2951 30.2224L10.2951 30.1774C10.2951 30.1774 10.2951 30.1774 10.2952 30.1774M10.2951 30.2224C9.34658 30.2204 8.57843 29.4518 8.57738 28.5037L8.5713 15.1136L6.59399 13.341L11.8147 13.4776M10.2952 30.1774C11.2188 30.1769 11.9673 29.4284 11.9678 28.5048V14.2794V14.2793C11.9683 14.0072 11.902 13.7391 11.7749 13.4987M10.2952 30.1774C9.37145 30.1755 8.6234 29.4269 8.62238 28.5037L8.6163 15.1135L8.61629 15.0934L8.60134 15.08L6.63899 13.3209V8.20569C6.64151 5.63841 8.72218 3.55823 11.2889 3.55578L23.5836 3.55578L23.5842 3.55577L24.1069 3.5492L24.1075 3.54921L26.4279 3.57356L26.5335 5.77944L23.7406 5.84031H23.7402H10.9018C10.2621 5.80907 9.6501 6.10252 9.27406 6.62096L9.27398 6.6209L9.27234 6.62352C8.84159 7.31196 8.9741 8.24983 9.63869 9.46608C9.63873 9.46617 9.63878 9.46625 9.63883 9.46634L11.7749 13.4987M11.7749 13.4987L11.7749 13.4987L11.8147 13.4776M11.7749 13.4987L11.8147 13.4776M7.34102 28.5037C7.34258 30.1205 8.64006 31.4344 10.2516 31.461V31.4649L10.2966 31.4649C11.9295 31.4644 13.2527 30.1401 13.2527 28.5073V14.2819C13.2527 13.7995 13.1346 13.3239 12.9092 12.8977L12.9091 12.8977L10.7677 8.8582L10.7675 8.85773C10.5285 8.41972 10.3991 8.07334 10.3439 7.81427C10.2882 7.55266 10.3098 7.38863 10.3598 7.30712L10.3599 7.30696C10.4053 7.23251 10.5036 7.18445 10.6123 7.15575C10.7186 7.12765 10.8231 7.12118 10.8651 7.12118L23.7533 7.12119L23.7543 7.12117L27.7999 7.03533L27.8453 7.03437L27.8439 6.98889L27.7545 4.22563L27.7545 4.22563L27.7544 4.22431L27.6386 2.34456L27.636 2.30277L27.5942 2.30233L23.7462 2.26164V2.26164L23.7457 2.26164L11.2883 2.27181C8.01247 2.27444 5.35759 4.92932 5.35502 8.20511V8.20515V13.9348V13.9557L5.37092 13.9692L7.33241 15.6323L7.34102 28.5037Z" fill="#0C1617" stroke="#0C1617" stroke-width="0.09"/>
<path d="M21.1831 33.7393H21.1831H11.2842H11.2842C8.01496 33.7358 5.36568 31.0865 5.36162 27.8173L5.36162 27.8173L5.36162 12.4233V12.3356L5.43288 12.3868L6.53636 13.1799L6.54031 13.1827L6.54013 13.1829L8.63329 15.0591L8.64825 15.0725L8.64826 15.0926L8.65539 28.4807V28.4808C8.65388 29.4039 9.40141 30.1535 10.3246 30.155H10.328C11.2517 30.153 11.9998 29.4044 12.0008 28.4812V14.2558V14.2558C12.0013 13.9827 11.9345 13.7141 11.8069 13.4732L21.1831 33.7393ZM21.1831 33.7393C24.4528 33.7363 27.1031 31.087 27.1072 27.8173V27.8173V8.55922L27.9014 7.64624L27.9135 7.63229L27.9124 7.61383L27.8044 5.93333L27.813 5.86502L27.8195 5.81436L27.7684 5.81438L10.9487 5.81834C10.3034 5.78247 9.68467 6.07641 9.30457 6.59895L9.30448 6.59889L9.30286 6.60146C8.87146 7.28746 9.00353 8.22789 9.66811 9.44462C9.66815 9.4447 9.66819 9.44478 9.66824 9.44486L11.8069 13.4731L21.1831 33.7393ZM8.61039 28.4807C8.60884 29.4287 9.37649 30.1985 10.3245 30.2H10.3281C11.2766 30.198 12.0448 29.4292 12.0458 28.4812V14.2558C12.0463 13.9754 11.9777 13.6995 11.8467 13.4521L8.61039 28.4807ZM8.61039 28.4807L8.60326 15.0926L8.61039 28.4807ZM5.40662 12.4233L5.45162 12.4557V12.4233H5.40662ZM5.40662 12.4233L5.38035 12.4599L5.40662 12.4787V12.4233ZM10.9217 7.0997H24.9966L24.9941 7.10224L25.1004 7.10281L26.5925 7.11077L26.5971 7.18641L25.8333 8.06472L25.8223 8.07742V8.09425V27.8167C25.8183 30.3768 23.7432 32.4509 21.183 32.4538H11.2833C8.72413 32.4493 6.65106 30.3758 6.64707 27.8172V14.9774L7.36282 15.6078L7.36994 28.4817V28.4818V28.4818V28.4818V28.4818V28.4819V28.4819V28.4819V28.4819V28.482V28.482V28.482V28.482V28.4821V28.4821V28.4821V28.4821V28.4822V28.4822V28.4822V28.4822V28.4823V28.4823V28.4823V28.4823V28.4823V28.4824V28.4824V28.4824V28.4824V28.4825V28.4825V28.4825V28.4825V28.4826V28.4826V28.4826V28.4826V28.4827V28.4827V28.4827V28.4827V28.4828V28.4828V28.4828V28.4828V28.4829V28.4829V28.4829V28.4829V28.483V28.483V28.483V28.483V28.4831V28.4831V28.4831V28.4831V28.4832V28.4832V28.4832V28.4832V28.4833V28.4833V28.4833V28.4833V28.4834V28.4834V28.4834V28.4834V28.4835V28.4835V28.4835V28.4835V28.4836V28.4836V28.4836V28.4836V28.4837V28.4837V28.4837V28.4837V28.4837V28.4838V28.4838V28.4838V28.4838V28.4839V28.4839V28.4839V28.4839V28.484V28.484V28.484V28.484V28.4841V28.4841V28.4841V28.4841V28.4842V28.4842V28.4842V28.4842V28.4843V28.4843V28.4843V28.4843V28.4844V28.4844V28.4844V28.4844V28.4845V28.4845V28.4845V28.4845V28.4846V28.4846V28.4846V28.4846V28.4847V28.4847V28.4847V28.4847V28.4848V28.4848V28.4848V28.4848V28.4849V28.4849V28.4849V28.485V28.485V28.485V28.485V28.4851V28.4851V28.4851V28.4851V28.4852V28.4852V28.4852V28.4852V28.4853V28.4853V28.4853V28.4853V28.4854V28.4854V28.4854V28.4854V28.4855V28.4855V28.4855V28.4855V28.4856V28.4856V28.4856V28.4856V28.4857V28.4857V28.4857V28.4858V28.4858V28.4858V28.4858V28.4859V28.4859V28.4859V28.4859V28.486V28.486V28.486V28.486V28.4861V28.4861V28.4861V28.4862V28.4862V28.4862V28.4862V28.4863V28.4863V28.4863V28.4863V28.4864V28.4864V28.4864V28.4864V28.4865V28.4865V28.4865V28.4865V28.4865V28.4866V28.4866V28.4866V28.4866V28.4867V28.4867V28.4867V28.4867V28.4868V28.4868V28.4868V28.4868V28.4869V28.4869V28.4869V28.4869V28.4869V28.487V28.487V28.487V28.487V28.487V28.4871V28.4871V28.4871V28.4871V28.4872V28.4872V28.4872V28.4872V28.4873V28.4873V28.4873V28.4873V28.4874V28.4874V28.4874V28.4874V28.4875V28.4875V28.4875V28.4875V28.4876V28.4876V28.4876V28.4876V28.4877V28.4877V28.4877V28.4877V28.4878V28.4878V28.4878V28.4878V28.4878V28.4879V28.4879V28.4879V28.4879V28.4879V28.488V28.488V28.488V28.488V28.488V28.488V28.4881V28.4881V28.4881V28.4881V28.4881V28.4882V28.4882V28.4882V28.4882V28.4882V28.4882V28.4883V28.4883V28.4883V28.4883V28.4883V28.4883V28.4883V28.4884V28.4884V28.4884L7.36994 28.4884L7.36994 28.4885C7.37252 30.1202 8.69736 31.4415 10.3297 31.4389C11.9615 31.4363 13.2837 30.1131 13.2852 28.4813V28.4812V14.2558C13.2852 13.773 13.1676 13.2979 12.9417 12.8712L12.9416 12.8712L10.7992 8.83571L10.7989 8.83525C10.5599 8.3975 10.4306 8.05113 10.3754 7.79192C10.3196 7.5302 10.3412 7.36583 10.3913 7.28398L10.3914 7.28391C10.4366 7.20973 10.5356 7.16325 10.6482 7.13562C10.7575 7.1088 10.8672 7.10258 10.9217 7.0997Z" fill="#0C1617" stroke="#0C1617" stroke-width="0.09"/>
<path d="M27.5897 8.61094L27.5361 8.67526L27.6193 8.68445L28.8696 8.82263L28.8826 8.82406L28.8943 8.81831L29.8089 8.37017L29.8093 8.37113L29.8171 8.36497C30.3985 7.90242 30.706 7.17741 30.6351 6.43783C30.6351 6.43777 30.6351 6.4377 30.6351 6.43764L30.2794 2.37969L30.2759 2.33902L30.235 2.33863L28.1348 2.31828L28.0863 2.31781L28.0895 2.36618L28.1344 2.36328L28.0895 2.3662L28.0895 2.36629L28.0895 2.36664L28.0896 2.36801L28.0899 2.37344L28.0913 2.3948L28.0967 2.47717L28.1167 2.78238C28.1338 3.04136 28.1579 3.40213 28.1859 3.80928C28.2417 4.62352 28.313 5.62352 28.3745 6.3659C28.4357 7.10435 28.3646 7.51267 28.2816 7.73429C28.2402 7.84482 28.196 7.90847 28.1641 7.94366C28.1481 7.96128 28.1351 7.97193 28.1269 7.97784C28.1227 7.9808 28.1198 7.98259 28.1182 7.9835L28.117 7.98414L28.108 7.98808L28.1013 7.99622L27.5897 8.61094Z" fill="#0C1617" stroke="#0C1617" stroke-width="0.09"/>
<path d="M27.5793 16.8733V16.9316L27.6357 16.9168C27.8449 16.862 28.0193 16.7924 28.1426 16.7118C28.2639 16.6325 28.3465 16.535 28.3465 16.4221V12.3018C28.3465 12.1877 28.2639 12.0902 28.1423 12.011C28.019 11.9306 27.8446 11.8614 27.6358 11.8061L27.5793 11.7912V11.8496V16.8733Z" fill="#0C1617" stroke="#0C1617" stroke-width="0.09"/>
<path d="M20.9835 30.0881H20.9835H11.4962H11.4268L11.4551 30.0247L11.8305 29.1835L20.9835 30.0881ZM20.9835 30.0881C22.2363 30.087 23.2512 29.0717 23.2522 27.8189V27.8189V5.88691V5.84191H23.2072H10.9029C10.2637 5.81155 9.6527 6.10499 9.27667 6.62253L9.27658 6.62247M20.9835 30.0881L9.27658 6.62247M9.27658 6.62247L9.27497 6.62504M9.27658 6.62247L9.27497 6.62504M9.27497 6.62504C8.84357 7.31141 8.97564 8.25085 9.64029 9.46856C9.64033 9.46864 9.64037 9.46871 9.64041 9.46879L11.7801 13.4972L9.27497 6.62504ZM21.9688 7.12476H10.8652C10.8171 7.12476 10.7129 7.13124 10.6083 7.15912C10.5016 7.18754 10.4059 7.23523 10.3605 7.30951L10.3605 7.30953C10.3103 7.39138 10.2888 7.55572 10.3445 7.81742C10.3997 8.07662 10.5291 8.42299 10.768 8.86081L10.7682 8.86126L10.7682 8.86126L12.9117 12.8966L12.9117 12.8967C13.1377 13.3234 13.2558 13.7985 13.2558 14.2814L13.2558 28.5066C13.2558 28.5066 13.2558 28.5066 13.2558 28.5067V28.5068L21.9688 7.12476ZM21.9688 7.12476V27.8188C21.9683 28.3624 21.5272 28.8036 20.9835 28.8041H13.2424L21.9688 7.12476ZM11.974 28.5047C11.974 28.7382 11.925 28.9697 11.8305 29.1834L11.7801 13.4973C11.9077 13.738 11.974 14.0066 11.974 14.2793V28.5047Z" fill="#0C1617" stroke="#0C1617" stroke-width="0.09"/>
<rect x="22.045" y="7.78117" width="4.26769" height="0.985183" fill="#0C1617" stroke="#0C1617" stroke-width="0.09"/>
<path d="M15.91 25.1685L15.91 25.1685C15.992 25.1862 16.0635 25.2157 16.1247 25.2568L16.125 25.257L16.125 25.257C16.1867 25.2993 16.2344 25.3558 16.268 25.4249C16.2681 25.4249 16.2681 25.4249 16.2681 25.4249L16.2276 25.4446C16.2581 25.507 16.2733 25.5843 16.2733 25.6762C16.2733 25.7758 16.251 25.8587 16.2058 25.9251L15.91 25.1685ZM15.91 25.1685L15.9097 25.1684C15.8291 25.1514 15.7406 25.1425 15.6439 25.1425H14.7162H14.6712V25.1875V27.1587V27.2037H14.7162H15.6713C15.7635 27.2037 15.8537 27.192 15.9408 27.1692L15.941 27.1692C16.0295 27.1456 16.1085 27.1095 16.1787 27.0605L16.1789 27.0604C16.2502 27.01 16.3072 26.9458 16.3492 26.8669L16.3493 26.8665C16.3913 26.7859 16.4118 26.6926 16.4118 26.5871C16.4118 26.4567 16.3805 26.3423 16.3146 26.2458L16.3145 26.2457C16.2647 26.1731 16.1964 26.1179 16.1115 26.0791L15.91 25.1685ZM15.8481 26.3459L15.8209 26.3817C15.8626 26.4133 15.889 26.4693 15.889 26.5623C15.889 26.6092 15.8807 26.6436 15.8677 26.6684L15.8675 26.6687C15.8539 26.6952 15.8353 26.7153 15.8123 26.7305L15.8121 26.7306C15.7883 26.7464 15.7591 26.7586 15.7255 26.7657L15.7348 26.8098M15.8481 26.3459L15.8211 26.3818C15.7735 26.346 15.7086 26.3259 15.6215 26.3259H15.1951V26.7769H15.6134C15.6531 26.7769 15.6902 26.7731 15.7256 26.7657L15.7348 26.8098M15.8481 26.3459C15.905 26.389 15.934 26.4612 15.934 26.5623C15.934 26.6142 15.9248 26.6563 15.9075 26.6893L15.8481 26.3459ZM15.7348 26.8098C15.6962 26.8178 15.6561 26.8219 15.6134 26.8219H15.1951L15.7348 26.8098ZM15.7524 25.894L15.7522 25.8941C15.7119 25.9241 15.6585 25.9407 15.5885 25.9407H15.1951V25.5694H15.555C15.5912 25.5694 15.6257 25.5726 15.6593 25.5782C15.69 25.584 15.7167 25.5939 15.7395 25.6071C15.7599 25.6198 15.7767 25.6371 15.7896 25.6598L15.7897 25.6599C15.8012 25.6802 15.8082 25.7092 15.8082 25.7509C15.8082 25.825 15.7867 25.8687 15.7524 25.894Z" fill="#0C1617" stroke="#0C1617" stroke-width="0.09"/>
<path d="M17.6848 25.1717L17.6739 25.1425H17.6426H17.1981H17.167L17.156 25.1716L16.4107 27.1428L16.3876 27.2037H16.4528H16.8887H16.9206L16.9311 27.1736L17.075 26.7648H17.7481L17.887 27.1732L17.8974 27.2037H17.9296H18.3793H18.4441L18.4214 27.1429L17.6848 25.1717ZM17.2206 26.3522L17.4154 25.8029L17.6044 26.3522H17.2206Z" fill="#0C1617" stroke="#0C1617" stroke-width="0.09"/>
<path d="M19.5715 25.5756L19.5715 25.5756C19.5278 25.5597 19.4823 25.5519 19.4339 25.5519C19.3421 25.5519 19.2673 25.5696 19.2075 25.6031L19.2071 25.6033L19.2071 25.6033C19.1448 25.6374 19.0955 25.6827 19.0574 25.74L19.0572 25.7402C19.0178 25.7988 18.9889 25.8664 18.9707 25.9424C18.9527 26.0198 18.9435 26.1001 18.9435 26.1831C18.9435 26.2623 18.9527 26.3396 18.9706 26.4142C18.9887 26.4875 19.0176 26.5526 19.0571 26.611L19.0572 26.611C19.0954 26.6676 19.1448 26.7131 19.2071 26.7472L19.2072 26.7473C19.2672 26.7803 19.3421 26.798 19.4339 26.798C19.5568 26.798 19.6468 26.7613 19.7112 26.6912L19.7113 26.6911C19.7784 26.6185 19.821 26.5213 19.8364 26.3961L19.8412 26.3565H19.881H20.3007H20.35L20.3455 26.4056C20.3339 26.5334 20.3044 26.6499 20.2556 26.7544L20.2148 26.7353M19.5715 25.5756L19.0265 25.2228C18.9061 25.2762 18.8045 25.3498 18.7217 25.4434C18.6389 25.5374 18.5754 25.6477 18.5311 25.7735C18.4869 25.8996 18.4646 26.0363 18.4646 26.1831C18.4646 26.3269 18.4869 26.461 18.5311 26.585C18.5754 26.7094 18.6389 26.8172 18.7217 26.9096C18.8045 27.0015 18.9061 27.0737 19.0265 27.126C19.1474 27.1784 19.2826 27.2048 19.4339 27.2048C19.5549 27.2048 19.6666 27.1864 19.7677 27.1493C19.8694 27.1128 19.9572 27.0594 20.0329 26.9893M19.5715 25.5756L19.572 25.5758C19.6162 25.5912 19.6554 25.6135 19.6902 25.6414C19.7248 25.6697 19.753 25.702 19.7763 25.739C19.7989 25.7753 19.8136 25.8153 19.8203 25.8591L19.8261 25.8973H19.8648H20.2839H20.3342L20.3286 25.8473C20.3153 25.7278 20.2822 25.6208 20.2291 25.5265L20.1899 25.5485L20.2292 25.5266C20.1771 25.4332 20.1102 25.3543 20.0286 25.2906L20.0286 25.2905C19.9482 25.2278 19.8571 25.1796 19.7558 25.1466L19.7558 25.1466L19.7555 25.1465C19.6539 25.114 19.5466 25.0976 19.4339 25.0976C19.2771 25.0976 19.1357 25.1255 19.0083 25.1817L19.0083 25.1817C18.8823 25.2375 18.7753 25.3149 18.688 25.4135L18.6879 25.4136C18.601 25.5123 18.5347 25.6277 18.4887 25.7586L18.4887 25.7586C18.4426 25.8899 18.4196 26.0316 18.4196 26.1831C18.4196 26.3316 18.4427 26.4708 18.4888 26.6001M19.5715 25.5756L18.4888 26.6001M20.2148 26.7353L20.2556 26.7543C20.2072 26.8587 20.1434 26.9484 20.0635 27.0224C20.0635 27.0224 20.0635 27.0224 20.0635 27.0224L20.0329 26.9893M20.2148 26.7353C20.2554 26.6484 20.2822 26.5521 20.2958 26.4465L20.0329 26.9893M20.2148 26.7353C20.1686 26.8349 20.1081 26.9198 20.0329 26.9893M18.4888 26.6001C18.5348 26.7297 18.6013 26.8426 18.6881 26.9396L18.6882 26.9397C18.7756 27.0367 18.8826 27.1125 19.0085 27.1673L19.0086 27.1673C19.1359 27.2224 19.2772 27.2498 19.4339 27.2498C19.5594 27.2498 19.6764 27.2308 19.7831 27.1916L18.4888 26.6001Z" fill="#0C1617" stroke="#0C1617" stroke-width="0.09"/>
</svg>
