<svg width="36" height="36" viewBox="0 0 36 36" fill="none" xmlns="http://www.w3.org/2000/svg">
<path d="M10.2516 31.4325C8.64409 31.4299 7.34252 30.1268 7.34097 28.5198L7.33235 15.6275L5.35498 13.951V8.22126C5.35752 4.97029 7.99228 2.33553 11.2433 2.33292L23.7007 2.32275L27.5486 2.36344L27.6645 4.24319L27.7539 7.00646L23.7083 7.09229H10.8201C10.7302 7.09229 10.3862 7.11933 10.2765 7.29968C10.1576 7.49317 10.2023 8.01449 10.6829 8.89539L12.8243 12.9349C13.0464 13.3546 13.1627 13.8229 13.1627 14.298V28.5234C13.1627 30.1314 11.8596 31.4355 10.2516 31.436V31.4325ZM6.54895 13.3571L8.52626 15.1297L8.53233 28.5198C8.53339 29.4679 9.30154 30.2366 10.25 30.2385C11.1986 30.238 11.9672 29.4694 11.9678 28.5209V14.2955C11.9683 14.0161 11.9002 13.7407 11.7697 13.4938L9.63327 9.46087C8.9703 8.24768 8.84838 7.33007 9.26544 6.6635C9.63278 6.15706 10.2308 5.87054 10.8556 5.90142H23.6956L26.5356 5.83953L26.4258 3.54512L24.0624 3.52032L23.5386 3.52689H11.2438C8.65228 3.52937 6.55149 5.62966 6.54895 8.22176V13.3571Z" fill="#0C1617"/>
<path d="M21.138 33.7114H11.2392C7.99478 33.7079 5.3656 31.0787 5.36157 27.8343V12.4404L6.46505 13.2335L8.55821 15.1097L8.56535 28.4978C8.5638 29.4458 9.33145 30.2156 10.2795 30.2171H10.2831C11.2315 30.2151 11.9998 29.4463 12.0008 28.4983V14.2729C12.0013 13.9925 11.9327 13.7166 11.8016 13.4692L9.66269 9.44038C8.99972 8.22669 8.87829 7.30659 9.29591 6.64251C9.66728 6.13198 10.2719 5.84496 10.9024 5.88043L27.7234 5.87646L27.7142 5.94903L27.8224 7.6338L27.0172 8.55948V27.8343C27.0131 31.0792 24.3829 33.7084 21.138 33.7114ZM6.55703 14.8948V27.8343C6.56106 30.4178 8.65422 32.5113 11.2382 32.5159H21.138C23.723 32.513 25.8182 30.4187 25.8222 27.8338V8.11134L26.5981 7.21915L26.5899 7.08308L25.0556 7.0749L25.0586 7.07179H10.8754C10.7672 7.0775 10.4182 7.09673 10.3079 7.27757C10.189 7.47169 10.2337 7.9935 10.7144 8.87391L12.8568 12.9094C13.0794 13.3295 13.1952 13.7974 13.1952 14.2729V28.4983C13.1937 30.1053 11.8915 31.4084 10.2845 31.411C8.6771 31.4135 7.37243 30.1124 7.36989 28.5055C7.36989 28.5029 7.36989 28.5009 7.36989 28.4988L7.36276 15.6046L6.55703 14.8948Z" fill="#0C1617"/>
<path d="M27.5792 8.65584L28.0908 8.04112C28.0908 8.04112 28.4973 7.86226 28.3743 6.3783C28.2514 4.89421 28.0893 2.37939 28.0893 2.37939L30.1895 2.39974L30.5452 6.45805C30.6148 7.18254 30.3135 7.89277 29.744 8.34587L28.8295 8.79401L27.5792 8.65584Z" fill="#0C1617"/>
<path fill-rule="evenodd" clip-rule="evenodd" d="M27.403 8.72702L28.0351 7.96738L28.0517 7.96009C28.0525 7.9596 28.0538 7.95876 28.0556 7.95748C28.0612 7.95345 28.0718 7.94495 28.0857 7.92968C28.1132 7.89924 28.1547 7.84068 28.1944 7.73473C28.2742 7.5217 28.3455 7.12077 28.2846 6.38584C28.223 5.64312 28.1518 4.64285 28.0959 3.82859C28.0679 3.42139 28.0438 3.06058 28.0267 2.80157L27.9995 2.38576L28.0893 2.37951C28.0893 2.37951 28.0913 2.4112 28.0951 2.46957C28.1252 2.93114 28.2651 5.06093 28.3743 6.37841C28.4972 7.86237 28.0908 8.04123 28.0908 8.04123L27.5792 8.65595L28.8295 8.79413L29.744 8.34599C30.3135 7.89288 30.6148 7.18266 30.5452 6.45817L30.1895 2.39985L28.0893 2.37951L27.9995 2.38576L27.9932 2.28857L30.272 2.31065L30.6348 6.44956C30.6348 6.44969 30.6348 6.44943 30.6348 6.44956C30.7071 7.20422 30.3933 7.94441 29.8 8.41642L29.7924 8.4225L28.8456 8.88646L27.403 8.72702Z" fill="#0C1617"/>
<path d="M28.2565 12.318V16.4382C28.2565 16.617 27.9928 16.7811 27.5792 16.8894V11.8657C27.9923 11.975 28.2565 12.1365 28.2565 12.318Z" fill="#0C1617"/>
<path fill-rule="evenodd" clip-rule="evenodd" d="M27.4893 17.0057V11.7485L27.6023 11.7784C27.8134 11.8343 27.993 11.905 28.1219 11.9891C28.2473 12.0708 28.3465 12.1801 28.3465 12.3177V16.4379C28.3465 16.5743 28.2472 16.6835 28.1222 16.7653C27.9933 16.8496 27.8137 16.9208 27.6021 16.9762L27.4893 17.0057ZM27.5793 11.8654C27.6101 11.8736 27.6401 11.8821 27.6693 11.8908C28.0303 11.999 28.2565 12.1498 28.2565 12.3177V16.4379C28.2565 16.6034 28.0307 16.7563 27.6693 16.864C27.6401 16.8727 27.6101 16.881 27.5793 16.8891V11.8654Z" fill="#0C1617"/>
<path d="M20.9385 30.0597H11.4511L11.8266 29.2183C11.9236 28.9989 11.9739 28.7611 11.9739 28.5213V14.2959C11.9739 14.0159 11.9058 13.7401 11.7748 13.4927L9.63486 9.46383C8.97183 8.24915 8.8504 7.33004 9.26803 6.66559C9.63536 6.16002 10.2323 5.8735 10.8567 5.90351H23.1622V27.8355C23.1612 29.0634 22.1664 30.0587 20.9385 30.0597ZM13.1475 28.8657H20.9385C21.507 28.8652 21.9683 28.4039 21.9688 27.8355V7.09636H10.8201C10.7185 7.09636 10.3868 7.12328 10.2771 7.30263C10.1582 7.49675 10.2029 8.01844 10.6835 8.89897L12.8269 12.9343C13.0494 13.3546 13.1658 13.8224 13.1658 14.298V28.5234C13.1663 28.6376 13.1602 28.752 13.1475 28.8657Z" fill="#0C1617"/>
<rect x="21.9999" y="7.79777" width="4.26769" height="0.985183" fill="#0C1617" stroke="#0C1617" stroke-width="0.09"/>
<path d="M15.865 25.1855L15.865 25.1855C15.947 25.2033 16.0185 25.2328 16.0797 25.2739L16.08 25.2741L16.08 25.2741C16.1417 25.3164 16.1894 25.3729 16.223 25.442M15.865 25.1855L16.1826 25.4617M15.865 25.1855L15.8647 25.1855C15.7841 25.1685 15.6956 25.1596 15.5989 25.1596H14.6711H14.6261V25.2046V27.1758V27.2208H14.6711H15.6263C15.7185 27.2208 15.8087 27.2091 15.8957 27.1863L15.8959 27.1863C15.9845 27.1627 16.0635 27.1266 16.1337 27.0776L16.1339 27.0775C16.2052 27.0271 16.2622 26.9629 16.3041 26.8839L16.3043 26.8836C16.3463 26.803 16.3668 26.7097 16.3668 26.6042C16.3668 26.4738 16.3354 26.3594 16.2695 26.2629L16.2695 26.2628C16.2197 26.1902 16.1513 26.135 16.0664 26.0961M15.865 25.1855L16.0193 26.125M16.223 25.442L16.1826 25.4617M16.223 25.442C16.223 25.442 16.223 25.442 16.223 25.4419L16.1826 25.4617M16.223 25.442C16.2574 25.5122 16.2733 25.5967 16.2733 25.6933C16.2733 25.7997 16.2494 25.8919 16.198 25.9675L16.1979 25.9676C16.1641 26.017 16.1201 26.0598 16.0664 26.0961M16.1826 25.4617C16.2131 25.5241 16.2283 25.6014 16.2283 25.6933C16.2283 25.7929 16.206 25.8757 16.1607 25.9422C16.1254 25.9939 16.0771 26.0383 16.0153 26.0754C16.0329 26.0817 16.05 26.0886 16.0664 26.0961M16.0664 26.0961C16.0515 26.1063 16.0358 26.1159 16.0193 26.125M16.0193 26.125C16.0005 26.1175 15.9807 26.1108 15.9601 26.1048L16.0193 26.125ZM15.6898 26.8268L15.6806 26.7828C15.6451 26.7902 15.6081 26.794 15.5684 26.794H15.15V26.343H15.5765C15.6636 26.343 15.7284 26.3631 15.7761 26.3989L15.8031 26.363L15.7759 26.3988C15.8175 26.4304 15.8439 26.4864 15.8439 26.5794C15.8439 26.6262 15.8357 26.6607 15.8226 26.6855L15.8225 26.6858C15.8088 26.7123 15.7903 26.7324 15.7672 26.7476L15.767 26.7477C15.7433 26.7635 15.7141 26.7757 15.6805 26.7828L15.6898 26.8268ZM15.6898 26.8268C15.6511 26.8349 15.611 26.839 15.5684 26.839H15.15L15.6898 26.8268ZM15.7073 25.9111L15.7071 25.9112C15.6669 25.9412 15.6135 25.9578 15.5435 25.9578H15.15V25.5865H15.5099C15.5462 25.5865 15.5806 25.5897 15.6143 25.5953C15.6449 25.6011 15.6717 25.611 15.6945 25.6242C15.7148 25.6369 15.7317 25.6542 15.7446 25.6769L15.7446 25.677C15.7562 25.6973 15.7632 25.7263 15.7632 25.768C15.7632 25.8421 15.7417 25.8858 15.7073 25.9111Z" fill="#0C1617" stroke="#0C1617" stroke-width="0.09"/>
<path d="M17.6397 25.1888L17.6288 25.1596H17.5976H17.153H17.1219L17.111 25.1887L16.3656 27.1598L16.3426 27.2208H16.4077H16.8436H16.8755L16.8861 27.1907L17.0299 26.7819H17.703L17.842 27.1903L17.8524 27.2208H17.8846H18.3342H18.3991L18.3764 27.16L17.6397 25.1888ZM17.1756 26.3693L17.3704 25.82L17.5594 26.3693H17.1756Z" fill="#0C1617" stroke="#0C1617" stroke-width="0.09"/>
<path d="M19.5265 25.5927L19.5265 25.5927C19.4828 25.5768 19.4372 25.569 19.3889 25.569C19.2971 25.569 19.2223 25.5867 19.1624 25.6202L19.1621 25.6204L19.1621 25.6204C19.0998 25.6545 19.0504 25.6998 19.0123 25.7571L19.0122 25.7573C18.9728 25.8159 18.9439 25.8835 18.9256 25.9595C18.9077 26.0369 18.8984 26.1172 18.8984 26.2002C18.8984 26.2794 18.9076 26.3567 18.9256 26.4313C18.9437 26.5046 18.9725 26.5697 19.0121 26.628L19.0122 26.6281C19.0503 26.6847 19.0998 26.7301 19.1621 26.7643L19.1622 26.7644C19.2221 26.7974 19.297 26.8151 19.3889 26.8151C19.5118 26.8151 19.6018 26.7784 19.6662 26.7083L19.6662 26.7082C19.7333 26.6356 19.776 26.5384 19.7913 26.4132L19.7962 26.3736H19.836H20.2557H20.3049L20.3005 26.4227C20.2888 26.5505 20.2593 26.667 20.2105 26.7714L20.1698 26.7524M19.5265 25.5927L18.4437 26.6172C18.4898 26.7468 18.5562 26.8597 18.6431 26.9567L18.6432 26.9568C18.7305 27.0538 18.8376 27.1296 18.9635 27.1844L18.9636 27.1844C19.0908 27.2395 19.2322 27.2669 19.3889 27.2669C19.5143 27.2669 19.6314 27.2478 19.738 27.2087M19.5265 25.5927L19.527 25.5929C19.5711 25.6083 19.6103 25.6306 19.6451 25.6585C19.6797 25.6868 19.7079 25.7191 19.7313 25.7561C19.7539 25.7924 19.7685 25.8324 19.7752 25.8762L19.7811 25.9144H19.8197H20.2388H20.2891L20.2836 25.8644C20.2703 25.7449 20.2372 25.6379 20.1841 25.5436L20.1449 25.5656M19.5265 25.5927L18.4437 26.6172C18.3976 26.4879 18.3746 26.3487 18.3746 26.2002C18.3746 26.0487 18.3976 25.907 18.4436 25.7757L18.4436 25.7757C18.4896 25.6448 18.556 25.5294 18.6428 25.4307L18.6429 25.4306C18.7302 25.332 18.8372 25.2546 18.9632 25.1988L18.9633 25.1987C19.0906 25.1426 19.2321 25.1147 19.3889 25.1147C19.5015 25.1147 19.6088 25.1311 19.7105 25.1636L19.7107 25.1636L19.7107 25.1636C19.8121 25.1967 19.9031 25.2449 19.9835 25.3076L19.9836 25.3076C20.0652 25.3714 20.1321 25.4503 20.1842 25.5437L20.1449 25.5656M20.1698 26.7524L20.2106 26.7713C20.1621 26.8758 20.0983 26.9656 20.0184 27.0395M20.1698 26.7524C20.1236 26.852 20.0631 26.9368 19.9879 27.0064M20.1698 26.7524C20.2103 26.6655 20.2372 26.5692 20.2507 26.4636H20.2557V26.4186L20.2108 26.4146C20.2107 26.4159 20.2106 26.4173 20.2105 26.4186H19.836C19.8197 26.5512 19.774 26.6579 19.6993 26.7388C19.6246 26.82 19.5215 26.8601 19.3889 26.8601C19.2913 26.8601 19.2085 26.8413 19.1404 26.8038C19.0719 26.7662 19.017 26.7158 18.9749 26.6533C18.9321 26.5903 18.9012 26.5202 18.8818 26.4419C18.863 26.3638 18.8534 26.2829 18.8534 26.2002C18.8534 26.1137 18.863 26.03 18.8818 25.9492L18.9814 27.1431C19.1024 27.1955 19.2375 27.2219 19.3889 27.2219C19.5098 27.2219 19.6216 27.2035 19.7227 27.1664C19.8243 27.1298 19.9122 27.0765 19.9879 27.0064M20.0184 27.0395L19.9879 27.0064M20.0184 27.0395C20.0184 27.0395 20.0184 27.0395 20.0184 27.0394L19.9879 27.0064M20.0184 27.0395C19.9382 27.1137 19.8452 27.1702 19.738 27.2087M19.738 27.2087C19.7381 27.2087 19.7381 27.2087 19.7382 27.2087L19.7227 27.1664L19.7379 27.2088C19.738 27.2088 19.738 27.2087 19.738 27.2087ZM20.1449 25.5656C20.0956 25.4772 20.0326 25.403 19.9559 25.3431M20.1449 25.5656L19.9559 25.3431M19.9559 25.3431C19.8797 25.2837 19.7933 25.2379 19.6967 25.2064C19.5998 25.1754 19.4971 25.1597 19.3889 25.1597C19.2375 25.1597 19.1024 25.1866 18.9814 25.2399L19.9559 25.3431Z" fill="#0C1617" stroke="#0C1617" stroke-width="0.09"/>
</svg>
