<svg width="202" height="255" viewBox="0 0 202 255" fill="none" xmlns="http://www.w3.org/2000/svg">
<path d="M44.4838 33.8166H148.611L176.657 33.1945L175.936 15.8441L175.274 5.14072L148.599 4.86133V4.94273H47.7114C24.0415 4.94273 4.85033 24.1263 4.83777 47.7963V91.7403L5.90006 92.5051L20.1636 105.027L20.8591 105.744L20.9129 212.263C20.9129 222.624 29.3147 231.022 39.6719 231.018C50.033 231.018 58.4308 222.62 58.4308 212.263V97.0005C58.4349 93.9382 57.6856 90.9252 56.249 88.2248L38.9598 55.568C26.5811 32.9644 44.4838 33.8166 44.4838 33.8166Z" fill="#E5FAFF"/>
<path d="M39.6752 235.864C26.6503 235.843 16.1043 225.285 16.0917 212.264L16.0218 107.803L0 94.2185V47.7932C0.0206027 21.4519 21.369 0.103516 47.7108 0.0824107L148.648 0L179.826 0.329643L180.765 15.5605L181.489 37.9501L148.709 38.6456H44.2817C43.553 38.6456 40.7661 38.8647 39.8767 40.326C38.9134 41.8938 39.2757 46.1178 43.1701 53.2554L60.5211 85.9855C62.3201 89.3864 63.2628 93.1814 63.2628 97.0305V212.293C63.2628 225.322 52.7041 235.889 39.6752 235.893V235.864ZM9.67421 89.4065L25.6955 103.769L25.7448 212.264C25.7533 219.946 31.9774 226.174 39.6627 226.19C47.3484 226.186 53.5765 219.958 53.581 212.273V97.0104C53.585 94.7461 53.0333 92.515 51.9755 90.5141L34.6652 57.8372C29.2935 48.0072 28.3056 40.5722 31.6849 35.1713C34.6612 31.0678 39.5064 28.7463 44.5696 28.9965H148.607L171.618 28.495L170.728 9.90436L151.578 9.70335L147.334 9.75662H47.7148C26.7166 9.77672 9.69481 26.7945 9.67421 47.7972V89.4065Z" fill="#009CF9"/>
<path d="M127.885 254.32H47.6792C21.3912 254.292 0.0880827 232.989 0.0554199 206.701V81.9702L8.99648 88.3962L25.9565 103.598L26.0143 212.077C26.0017 219.758 32.2217 225.995 39.903 226.007H39.9321C47.6174 225.991 53.842 219.762 53.85 212.081V96.8182C53.854 94.5459 53.2982 92.3107 52.2365 90.3057L34.9056 57.6621C29.5338 47.8281 28.5499 40.3729 31.9338 34.9921C34.9428 30.8555 39.8417 28.5299 44.9501 28.8173L181.244 28.7852L181.169 29.3731L182.046 43.0241L175.522 50.5245V206.701C175.489 232.993 154.177 254.296 127.885 254.32ZM9.74169 101.857V206.701C9.77435 227.633 26.7344 244.597 47.6712 244.634H127.885C148.83 244.61 165.807 227.641 165.84 206.697V46.8934L172.126 39.6644L172.06 38.5619L159.628 38.4955L159.653 38.4704H44.7321C43.8552 38.5167 41.0271 38.6724 40.1336 40.1377C39.1703 41.7106 39.5326 45.9386 43.4271 53.0722L60.7866 85.7701C62.5895 89.1741 63.5277 92.965 63.5277 96.8182V212.081C63.5157 225.101 52.9651 235.66 39.9442 235.681C26.9198 235.701 16.3486 225.159 16.328 212.139C16.328 212.118 16.328 212.102 16.328 212.085L16.2702 107.608L9.74169 101.857Z" fill="#009CF9"/>
<path d="M177.574 51.3164L181.72 46.3355C181.72 46.3355 185.013 44.8863 184.017 32.8624C183.021 20.8375 181.708 0.460938 181.708 0.460938L198.725 0.625759L201.607 33.5086C202.171 39.3789 199.729 45.1336 195.115 48.8049L187.705 52.436L177.574 51.3164Z" fill="#009CF9"/>
<path d="M181.28 80.9846V114.369C181.28 115.818 179.144 117.148 175.793 118.025V77.3203C179.14 78.2057 181.28 79.5142 181.28 80.9846Z" fill="#009CF9"/>
<path d="M126.267 224.727H49.3946L52.4368 217.91C53.2232 216.132 53.6307 214.206 53.6307 212.262V96.9997C53.6307 94.7314 53.079 92.4962 52.0172 90.4922L34.6783 57.8476C29.306 48.0055 28.3221 40.5584 31.706 35.1746C34.6823 31.0782 39.5194 28.7566 44.5786 28.9998H144.284V206.705C144.276 216.655 136.216 224.719 126.267 224.727ZM63.1396 215.053H126.267C130.873 215.049 134.611 211.311 134.615 206.705V38.665H44.2821C43.4585 38.665 40.7706 38.8831 39.8817 40.3363C38.9184 41.9091 39.2807 46.1362 43.1746 53.2708L60.5422 85.9677C62.3452 89.3727 63.2878 93.1636 63.2878 97.0168V212.279C63.2919 213.205 63.2426 214.131 63.1396 215.053Z" fill="#009CF9"/>
<rect x="135.232" y="44.7227" width="33.8501" height="7.2533" fill="#009CF9"/>
<path d="M82.3567 186.59C83.1991 186.59 83.9643 186.668 84.6571 186.813C85.3494 186.964 85.9416 187.209 86.4426 187.546C86.9347 187.883 87.3172 188.335 87.5902 188.895C87.8638 189.455 88 190.147 88 190.971C88 191.865 87.7999 192.607 87.3945 193.203C86.9891 193.796 86.3925 194.283 85.5951 194.661C86.6839 194.976 87.499 195.522 88.0367 196.306C88.5744 197.094 88.8386 198.037 88.8386 199.139C88.8386 200.032 88.6651 200.802 88.3237 201.457C87.9772 202.109 87.5085 202.637 86.9208 203.052C86.333 203.463 85.668 203.767 84.9162 203.967C84.1694 204.163 83.3949 204.263 82.6025 204.263H74.0388V186.59H82.3567ZM81.8602 193.746C82.5524 193.746 83.1218 193.582 83.5683 193.249C84.0143 192.921 84.2334 192.384 84.2334 191.641C84.2334 191.227 84.165 190.89 84.0143 190.626C83.8642 190.361 83.664 190.156 83.4221 190.006C83.1719 189.861 82.885 189.756 82.5658 189.696C82.2427 189.641 81.9102 189.61 81.5593 189.61H77.9289V193.746H81.8602ZM82.0831 201.244C82.4657 201.244 82.8255 201.207 83.1719 201.135C83.5183 201.062 83.828 200.934 84.0877 200.761C84.3518 200.588 84.5659 200.355 84.7205 200.055C84.8756 199.759 84.9574 199.381 84.9574 198.916C84.9574 198.01 84.6977 197.363 84.1878 196.976C83.6729 196.589 82.999 196.393 82.156 196.393H77.9289V201.244H82.0831Z" fill="#009CF9"/>
<path d="M100.276 186.59L106.881 204.263H102.85L101.511 200.329H94.9012L93.5166 204.263H89.6082L96.2907 186.59H100.276ZM100.499 197.436L98.2675 190.949H98.2219L95.9215 197.436H100.499Z" fill="#009CF9"/>
<path d="M119.756 191.305C119.523 190.937 119.241 190.614 118.895 190.331C118.548 190.053 118.156 189.83 117.715 189.675C117.277 189.516 116.822 189.438 116.344 189.438C115.469 189.438 114.727 189.607 114.116 189.949C113.501 190.286 113.01 190.736 112.632 191.305C112.248 191.875 111.971 192.526 111.797 193.25C111.629 193.975 111.543 194.726 111.543 195.501C111.543 196.243 111.629 196.968 111.797 197.669C111.971 198.37 112.248 198.999 112.632 199.564C113.01 200.124 113.501 200.576 114.116 200.913C114.727 201.25 115.469 201.418 116.344 201.418C117.533 201.418 118.457 201.058 119.127 200.33C119.797 199.605 120.207 198.648 120.352 197.46H124.115C124.014 198.566 123.76 199.564 123.345 200.452C122.931 201.345 122.388 202.106 121.714 202.73C121.036 203.358 120.248 203.836 119.336 204.164C118.43 204.497 117.428 204.662 116.344 204.662C114.986 204.662 113.775 204.425 112.69 203.955C111.611 203.486 110.7 202.839 109.958 202.015C109.215 201.186 108.646 200.22 108.249 199.104C107.853 197.992 107.653 196.79 107.653 195.501C107.653 194.185 107.853 192.959 108.249 191.829C108.646 190.7 109.215 189.712 109.958 188.869C110.7 188.03 111.611 187.37 112.69 186.891C113.775 186.413 114.986 186.172 116.344 186.172C117.314 186.172 118.234 186.313 119.104 186.591C119.97 186.874 120.744 187.284 121.427 187.817C122.115 188.354 122.68 189.019 123.122 189.812C123.568 190.605 123.85 191.511 123.964 192.535H120.207C120.138 192.089 119.988 191.679 119.756 191.305Z" fill="#009CF9"/>
</svg>
