<svg width="24" height="21" viewBox="0 0 24 21" fill="none" xmlns="http://www.w3.org/2000/svg">
<path d="M9.61 0.339552L0.701618 9.29428C0.313537 9.68438 0.313538 10.3147 0.701619 10.7048L9.61 19.6596C9.69679 19.7735 9.80706 19.8675 9.93333 19.9352C10.0596 20.0028 10.1989 20.0426 10.3419 20.0517C10.4849 20.0608 10.6281 20.0391 10.762 19.988C10.8958 19.937 11.0172 19.8578 11.1177 19.7557C11.2183 19.6537 11.2958 19.5313 11.3449 19.3967C11.3941 19.2622 11.4137 19.1186 11.4025 18.9758C11.3914 18.833 11.3497 18.6942 11.2802 18.5689C11.2108 18.4436 11.1152 18.3347 11 18.2496L3.81 10.9996L22.94 10.9996C23.2052 10.9996 23.4596 10.8942 23.6471 10.7067C23.8346 10.5191 23.94 10.2648 23.94 9.99955C23.94 9.73433 23.8346 9.47998 23.6471 9.29244C23.4596 9.10491 23.2052 8.99955 22.94 8.99955L3.81 8.99955L11 1.74955C11.187 1.56125 11.2915 1.30638 11.2906 1.04102C11.2896 0.775651 11.1833 0.521528 10.995 0.33455C10.8067 0.147573 10.5518 0.043056 10.2865 0.0439945C10.0211 0.0449329 9.76698 0.151249 9.58 0.339552L9.61 0.339552Z" fill="#0C1617"/>
</svg>
