<svg width="36" height="30" viewBox="0 0 36 30" fill="none" xmlns="http://www.w3.org/2000/svg">
<path d="M20.526 17.219H16.4896L23.1931 6.7668H19.3049L22.2057 1H13.6683L9.62939 11.4595H13.3634L9.62939 21.7806H14.2007V29L20.526 17.219Z" fill="#D5F6E7" stroke="#2ED086" stroke-width="1.5" stroke-linecap="round" stroke-linejoin="round"/>
<path d="M8.01489 6.81348H1.75502C1.33761 6.81348 1 7.15109 1 7.56859V25.6741C1 26.0903 1.33761 26.4279 1.75502 26.4279H10.6384" stroke="#2ED086" stroke-width="1.5" stroke-linecap="round" stroke-linejoin="round"/>
<path d="M19.3474 26.4279H30.2785C30.6948 26.4279 31.0324 26.0903 31.0324 25.6741V20.6723H33.7923C34.2097 20.6723 34.5474 20.3347 34.5474 19.9172V13.3347C34.5474 12.9185 34.2097 12.5808 33.7923 12.5808H31.0324V7.56859C31.0324 7.15109 30.6948 6.81348 30.2785 6.81348H26.9104" stroke="#2ED086" stroke-width="1.5" stroke-linecap="round" stroke-linejoin="round"/>
</svg>
