<svg width="50" height="50" viewBox="0 0 50 50" fill="none" xmlns="http://www.w3.org/2000/svg">
<rect width="50" height="50" rx="25" fill="#009CF9"/>
<path fill-rule="evenodd" clip-rule="evenodd" d="M34.3113 35.495L33.0737 36.1169C32.7231 36.2931 32.3101 36.2944 31.9584 36.1205L29.9928 35.1485L28.0667 36.1161C27.715 36.2927 27.3007 36.2935 26.9485 36.1181L25 35.1481L23.0515 36.1181C22.6993 36.2935 22.285 36.2927 21.9333 36.1161L20.0072 35.1485L18.0416 36.1205C17.6899 36.2944 17.2769 36.2931 16.9263 36.1169L15.6888 35.495C15.2665 35.2828 15 34.8507 15 34.3781V15.6219C15 15.1493 15.2665 14.7172 15.6887 14.505L16.9263 13.8831C17.2769 13.7069 17.6899 13.7056 18.0416 13.8795L20.0072 14.8515L21.9333 13.8839C22.285 13.7073 22.6993 13.7065 23.0515 13.8819L25 14.8519L26.9484 13.8819C27.3007 13.7065 27.715 13.7073 28.0667 13.8839L29.9928 14.8515L31.9584 13.8795C32.3101 13.7056 32.7231 13.7069 33.0737 13.8831L34.3112 14.505C34.7335 14.7172 35 15.1493 35 15.6219V34.3781C35 34.8507 34.7335 35.2828 34.3113 35.495Z" stroke="white" stroke-width="1.5" stroke-linecap="round" stroke-linejoin="round"/>
<path d="M30 21.25H20" stroke="white" stroke-width="1.5" stroke-linecap="round" stroke-linejoin="round"/>
<path d="M30 25H20" stroke="white" stroke-width="1.5" stroke-linecap="round" stroke-linejoin="round"/>
<path d="M26.25 28.75H20" stroke="white" stroke-width="1.5" stroke-linecap="round" stroke-linejoin="round"/>
</svg>
