<svg width="24" height="24" viewBox="0 0 24 24" fill="none" xmlns="http://www.w3.org/2000/svg">
<path d="M4.78198 9V8C4.78198 6.895 5.67698 6 6.78198 6H17.217C18.322 6 19.217 6.895 19.217 8V9" stroke="#4E555D" stroke-width="1.5" stroke-linecap="round" stroke-linejoin="round"/>
<path d="M6.51599 6V5C6.51599 3.895 7.41099 3 8.51599 3H15.485C16.59 3 17.485 3.895 17.485 5V6" stroke="#4E555D" stroke-width="1.5" stroke-linecap="round" stroke-linejoin="round"/>
<path d="M5.82495 11.4901C5.82195 11.4901 5.81995 11.4921 5.81995 11.4951C5.81995 11.4981 5.82195 11.5001 5.82495 11.5001C5.82795 11.5001 5.82995 11.4981 5.82995 11.4951C5.82995 11.4921 5.82795 11.4901 5.82495 11.4901" stroke="#4E555D" stroke-width="1.5" stroke-linecap="round" stroke-linejoin="round"/>
<path d="M8.36804 11.4901C8.36504 11.4901 8.36304 11.4921 8.36304 11.4951C8.36304 11.4981 8.36604 11.5001 8.36804 11.5001C8.37104 11.5001 8.37304 11.4981 8.37304 11.4951C8.37304 11.4921 8.37104 11.4901 8.36804 11.4901" stroke="#4E555D" stroke-width="1.5" stroke-linecap="round" stroke-linejoin="round"/>
<path d="M10.907 11.4901C10.904 11.4901 10.902 11.4921 10.902 11.4951C10.902 11.4981 10.904 11.5001 10.907 11.5001C10.91 11.5001 10.912 11.4981 10.912 11.4951C10.912 11.4921 10.91 11.4901 10.907 11.4901" stroke="#4E555D" stroke-width="1.5" stroke-linecap="round" stroke-linejoin="round"/>
<path d="M3.04602 14H21" stroke="#4E555D" stroke-width="1.5" stroke-linecap="round" stroke-linejoin="round"/>
<path fill-rule="evenodd" clip-rule="evenodd" d="M18.99 21H5.01C3.9 21 3 20.105 3 19V11C3 9.895 3.9 9 5.01 9H18.99C20.1 9 21 9.895 21 11V19C21 20.105 20.099 21 18.99 21V21Z" stroke="#4E555D" stroke-width="1.5038" stroke-linecap="round" stroke-linejoin="round"/>
</svg>
