<svg width="28" height="28" viewBox="0 0 28 28" fill="none" xmlns="http://www.w3.org/2000/svg">
<path d="M13.9993 1C6.83055 1 1 6.83168 1 14.0005C1 21.1683 6.83055 27.0009 13.9993 27.0009C21.1681 27.0009 27 21.1683 27 14.0005C27 6.83168 21.1681 1 13.9993 1Z" fill="#E5FAFF" stroke="#009CF9" stroke-width="1.7" stroke-linecap="round" stroke-linejoin="round"/>
<path d="M22.6479 23.6958C19.83 22.5208 17.0912 21.1686 16.8266 20.3198V19.18C17.58 18.409 18.1744 17.3333 18.5264 16.0742C19.3648 15.4849 19.5851 14.261 18.8812 13.3951V10.8434C18.8812 8.20948 17.4154 6.40527 14.0647 6.40527C10.7998 6.40527 9.24616 8.20948 9.24616 10.8434V13.396C8.5452 14.2592 8.76306 15.4822 9.60118 16.0733C9.95347 17.3333 10.5479 18.409 11.3017 19.18V20.3198C11.0355 21.1758 8.47016 22.4421 5.61621 23.628" fill="#E5FAFF"/>
<path d="M22.6479 23.6958C19.83 22.5208 17.0912 21.1686 16.8266 20.3198V19.18C17.58 18.409 18.1744 17.3333 18.5264 16.0742C19.3648 15.4849 19.5851 14.261 18.8812 13.3951V10.8434C18.8812 8.20948 17.4154 6.40527 14.0647 6.40527C10.7998 6.40527 9.24616 8.20948 9.24616 10.8434V13.396C8.5452 14.2592 8.76306 15.4822 9.60118 16.0733C9.95347 17.3333 10.5479 18.409 11.3017 19.18V20.3198C11.0355 21.1758 8.47016 22.4421 5.61621 23.628" stroke="#009CF9" stroke-width="1.7" stroke-linecap="round" stroke-linejoin="round"/>
</svg>
