<svg width="32" height="32" viewBox="0 0 32 32" fill="none" xmlns="http://www.w3.org/2000/svg">
<path d="M15.9996 4C9.38254 4 4.00073 9.38286 4.00073 15.9999C4.00073 22.6161 9.38254 27.9997 15.9996 27.9997C22.6166 27.9997 27.9997 22.6161 27.9997 15.9999C27.9997 9.38286 22.6166 4 15.9996 4Z" stroke="#009CF9" stroke-width="1.5" stroke-linecap="round" stroke-linejoin="round"/>
<path d="M23.9826 24.9481C21.3815 23.8635 18.8535 22.6153 18.6093 21.8319V20.7798C19.3047 20.0682 19.8534 19.0753 20.1783 17.913C20.9522 17.3691 21.1556 16.2394 20.5058 15.4401V13.0849C20.5058 10.6536 19.1528 8.98828 16.06 8.98828C13.0463 8.98828 11.6123 10.6536 11.6123 13.0849V15.441C10.9653 16.2377 11.1664 17.3666 11.94 17.9122C12.2652 19.0753 12.8138 20.0682 13.5096 20.7798V21.8319C13.2639 22.622 10.896 23.7909 8.26172 24.8855" stroke="#009CF9" stroke-width="1.5" stroke-linecap="round" stroke-linejoin="round"/>
</svg>
