<svg width="24" height="24" viewBox="0 0 24 24" fill="none" xmlns="http://www.w3.org/2000/svg">
<path fill-rule="evenodd" clip-rule="evenodd" d="M3.99651 3.99219H14.0007C14.5532 3.99219 15.0011 4.44009 15.0011 4.9926V19.9989H3.99651C3.444 19.9989 2.99609 19.551 2.99609 18.9984V4.9926C2.99609 4.44009 3.444 3.99219 3.99651 3.99219Z" stroke="#009CF9" stroke-width="1.5" stroke-linecap="round" stroke-linejoin="round"/>
<path fill-rule="evenodd" clip-rule="evenodd" d="M15 7.99219H20.0021C20.5546 7.99219 21.0025 8.44009 21.0025 8.9926V18.9968C21.0025 19.5493 20.5546 19.9972 20.0021 19.9972H15V7.99219Z" stroke="#009CF9" stroke-width="1.5" stroke-linecap="round" stroke-linejoin="round"/>
<path d="M6.9963 7.86734C6.92724 7.86734 6.87125 7.92333 6.87125 7.9924C6.87125 8.06146 6.92724 8.11745 6.9963 8.11745C7.06537 8.11745 7.12135 8.06146 7.12135 7.9924C7.12135 7.92333 7.06537 7.86734 6.9963 7.86734" stroke="#009CF9" stroke-width="1.5" stroke-linecap="round" stroke-linejoin="round"/>
<path d="M10.9983 7.86734C10.9292 7.86734 10.8732 7.92333 10.8732 7.9924C10.8732 8.06146 10.9292 8.11745 10.9983 8.11745C11.0673 8.11745 11.1233 8.06146 11.1233 7.9924C11.1233 7.92333 11.0673 7.86734 10.9983 7.86734" stroke="#009CF9" stroke-width="1.5" stroke-linecap="round" stroke-linejoin="round"/>
<path d="M6.9963 11.8752C6.92724 11.8752 6.87125 11.9311 6.87125 12.0002C6.87125 12.0693 6.92724 12.1253 6.9963 12.1253C7.06537 12.1253 7.12135 12.0693 7.12135 12.0002C7.12135 11.9311 7.06537 11.8752 6.9963 11.8752" stroke="#009CF9" stroke-width="1.5" stroke-linecap="round" stroke-linejoin="round"/>
<path d="M10.9983 11.8752C10.9292 11.8752 10.8732 11.9311 10.8732 12.0002C10.8732 12.0693 10.9292 12.1253 10.9983 12.1253C11.0673 12.1253 11.1233 12.0693 11.1233 12.0002C11.1233 11.9311 11.0673 11.8752 10.9983 11.8752" stroke="#009CF9" stroke-width="1.5" stroke-linecap="round" stroke-linejoin="round"/>
<path d="M6.9963 15.8752C6.92724 15.8752 6.87125 15.9311 6.87125 16.0002C6.87125 16.0693 6.92724 16.1253 6.9963 16.1253C7.06537 16.1253 7.12135 16.0693 7.12135 16.0002C7.12135 15.9311 7.06537 15.8752 6.9963 15.8752" stroke="#009CF9" stroke-width="1.5" stroke-linecap="round" stroke-linejoin="round"/>
<path d="M10.9983 15.8752C10.9292 15.8752 10.8732 15.9311 10.8732 16.0002C10.8732 16.0693 10.9292 16.1253 10.9983 16.1253C11.0673 16.1253 11.1233 16.0693 11.1233 16.0002C11.1233 15.9311 11.0673 15.8752 10.9983 15.8752" stroke="#009CF9" stroke-width="1.5" stroke-linecap="round" stroke-linejoin="round"/>
<path d="M18.0022 11.8752C17.9331 11.8752 17.8771 11.9311 17.8771 12.0002C17.8771 12.0693 17.9331 12.1253 18.0022 12.1253C18.0712 12.1253 18.1272 12.0693 18.1272 12.0002C18.1272 11.9311 18.0712 11.8752 18.0022 11.8752" stroke="#009CF9" stroke-width="1.5" stroke-linecap="round" stroke-linejoin="round"/>
<path d="M18.0022 15.8752C17.9331 15.8752 17.8771 15.9311 17.8771 16.0002C17.8771 16.0693 17.9331 16.1253 18.0022 16.1253C18.0712 16.1253 18.1272 16.0693 18.1272 16.0002C18.1272 15.9311 18.0712 15.8752 18.0022 15.8752" stroke="#009CF9" stroke-width="1.5" stroke-linecap="round" stroke-linejoin="round"/>
</svg>
