<svg width="36" height="36" viewBox="0 0 36 36" fill="none" xmlns="http://www.w3.org/2000/svg">
<path d="M0.5 8C0.5 3.85786 3.85786 0.5 8 0.5H28C32.1421 0.5 35.5 3.85786 35.5 8V28C35.5 32.1421 32.1421 35.5 28 35.5H8C3.85786 35.5 0.5 32.1421 0.5 28V8Z" fill="white"/>
<path d="M0.5 8C0.5 3.85786 3.85786 0.5 8 0.5H28C32.1421 0.5 35.5 3.85786 35.5 8V28C35.5 32.1421 32.1421 35.5 28 35.5H8C3.85786 35.5 0.5 32.1421 0.5 28V8Z" stroke="#C6CED6"/>
<path d="M14.6667 13H25.5001" stroke="#0C1617" stroke-width="1.5" stroke-linecap="round" stroke-linejoin="round"/>
<path d="M14.6667 18H25.5001" stroke="#0C1617" stroke-width="1.5" stroke-linecap="round" stroke-linejoin="round"/>
<path d="M14.6667 23H25.5001" stroke="#0C1617" stroke-width="1.5" stroke-linecap="round" stroke-linejoin="round"/>
<path d="M10.5 13H10.5083" stroke="#0C1617" stroke-width="1.5" stroke-linecap="round" stroke-linejoin="round"/>
<path d="M10.5 18H10.5083" stroke="#0C1617" stroke-width="1.5" stroke-linecap="round" stroke-linejoin="round"/>
<path d="M10.5 23H10.5083" stroke="#0C1617" stroke-width="1.5" stroke-linecap="round" stroke-linejoin="round"/>
</svg>
