<svg width="56" height="56" viewBox="0 0 56 56" fill="none" xmlns="http://www.w3.org/2000/svg">
<rect width="56" height="56" rx="28" fill="#009CF9"/>
<g clip-path="url(#clip0_6923_27677)">
<path d="M14.4413 40.8982V36.8672H12.6445V42.684H18.4617V40.8982H14.4413Z" fill="white"/>
<path d="M41.5677 40.9109H37.5664V42.6968H43.3645V36.8672H41.5677V40.9109Z" fill="white"/>
<path d="M18.5374 13.2969V15.1146H14.4596V19.1456H12.6055V13.2969H18.5374Z" fill="white"/>
<path d="M43.4023 13.2969V19.136H41.5705V15.1306H37.5469V13.2969H43.4023Z" fill="white"/>
<path d="M36.369 29.4664C36.4391 29.5111 36.4614 29.5366 36.4805 29.5334C37.6497 29.4824 38.0128 30.4136 37.7739 31.415C37.6587 31.8773 37.4506 32.3114 37.1622 32.6906C36.9296 33.0103 36.5908 33.2364 36.2065 33.3284C35.6076 33.3954 35.4833 33.7398 35.3336 34.1958C34.7761 35.8828 33.9542 37.4072 32.5875 38.5967C32.114 39.0293 31.6651 39.4882 31.2431 39.9712C29.6916 41.6742 26.5696 41.7731 24.9225 40.0605C24.2153 39.3302 23.473 38.635 22.7753 37.8951C21.689 36.7407 21.0805 35.3152 20.609 33.8291C20.5823 33.7121 20.5197 33.6065 20.43 33.527C20.3403 33.4475 20.228 33.3981 20.1088 33.3858C19.7269 33.2849 19.3715 33.102 19.0671 32.85C18.596 32.4201 18.3085 31.8251 18.2643 31.1885C18.1432 30.1074 18.5064 29.6578 19.6915 29.4792C19.5768 29.071 19.4621 28.6692 19.3506 28.2673C19.032 27.1288 18.6529 25.9999 18.3949 24.8423C18.2913 24.2767 18.2848 23.6975 18.3758 23.1298C18.5669 21.6341 19.5673 20.8974 20.9403 20.5785C21.115 20.5573 21.2781 20.48 21.405 20.3581C21.532 20.2361 21.616 20.0762 21.6444 19.9024C22.0776 18.4961 23.1034 17.6701 24.4733 17.2491C27.0665 16.471 29.6024 16.758 32.0714 17.7721C33.7223 18.3905 35.142 19.5043 36.1364 20.9612C37.4712 22.999 37.6019 25.209 36.9711 27.5052C36.7863 28.1908 36.5665 28.8318 36.369 29.4664ZM22.7594 25.0751C22.6319 25.9912 22.2323 26.8479 21.6125 27.5339C21.3863 27.7986 21.1569 28.0601 20.9499 28.3407C20.8759 28.4404 20.8439 28.5652 20.8607 28.6883C21.0805 29.7471 21.329 30.7995 21.552 31.855C21.826 33.1658 22.0936 34.4828 22.7817 35.65C23.696 37.1904 25.05 38.348 26.388 39.4769C27.2768 40.2295 28.9366 40.1594 29.835 39.3653C30.8825 38.4529 31.8541 37.4567 32.7404 36.3867C33.7503 35.143 34.174 33.5931 34.5244 32.0496C34.7793 30.9334 34.9704 29.7981 35.1616 28.6692C35.1612 28.6027 35.1459 28.5372 35.1166 28.4776C35.0874 28.4179 35.045 28.3657 34.9927 28.3247C34.0276 27.5245 32.8293 27.059 31.5776 26.9981C30.2173 26.9503 28.8538 26.9981 27.4903 26.9758C25.7763 26.9758 24.2153 26.5293 22.9792 25.2505C22.9091 25.1881 22.8357 25.1296 22.7594 25.0751Z" fill="white"/>
<path d="M14.4413 40.8982H18.4617V42.684H12.6445V36.8672H14.4413V40.8982Z" fill="white"/>
<path d="M41.5677 40.9109V36.8672H43.3645V42.6968H37.5664V40.9109H41.5677Z" fill="white"/>
</g>
<defs>
<clipPath id="clip0_6923_27677">
<rect width="30.8" height="29.4" fill="white" transform="translate(12.5977 13.2969)"/>
</clipPath>
</defs>
</svg>
