<svg width="56" height="56" viewBox="0 0 56 56" fill="none" xmlns="http://www.w3.org/2000/svg">
<rect width="56" height="56" rx="28" fill="#009CF9"/>
<g clip-path="url(#clip0_6923_27759)">
<path d="M18.4752 24.8608C18.5805 25.3296 18.7016 25.792 18.8356 26.2512H22.5221C22.682 25.8744 22.7893 25.4774 22.841 25.0713C22.9215 25.1267 22.9982 25.1874 23.0707 25.253C23.4555 25.6518 23.8998 25.9885 24.3878 26.2512H37.3354C37.645 24.4214 37.2496 22.5423 36.2287 20.9925C35.2341 19.5348 33.8126 18.4208 32.1595 17.8034C29.688 16.7893 27.1495 16.5022 24.5536 17.2804C23.1855 17.6918 22.1554 18.5273 21.7217 19.9337C21.6933 20.1075 21.6092 20.2674 21.4821 20.3893C21.355 20.5112 21.1918 20.5886 21.0169 20.6098C19.6424 20.9095 18.6411 21.6622 18.4657 23.161C18.3729 23.7241 18.3762 24.2988 18.4752 24.8608Z" fill="white"/>
<path d="M14.5357 15.1146H18.6369V13.2969H12.6797V19.1456H14.5357V15.1146Z" fill="white"/>
<path d="M41.6801 19.136H43.5138V13.2969H37.6523V15.1306H41.6801V19.136Z" fill="white"/>
<path d="M14.5213 36.8672H12.7227V42.684H18.5459V40.8982H14.5213V36.8672Z" fill="white"/>
<path d="M41.6773 40.9109H37.6719V42.6968H43.476V36.8672H41.6773V40.9109Z" fill="white"/>
<path d="M37.1822 27.0938H12.5977V28.8924H19.6136L19.7858 29.4983C18.5963 29.6769 18.2327 30.1361 18.3539 31.2077C18.3941 31.8451 18.6785 32.4425 19.148 32.8755C19.4527 33.1275 19.8085 33.3103 20.1908 33.4113C20.3104 33.4239 20.4231 33.4733 20.5133 33.5527C20.6036 33.6321 20.667 33.7376 20.6947 33.8546C21.1635 35.3407 21.7726 36.7662 22.8601 37.9206C23.5585 38.6605 24.3047 39.3557 25.0095 40.086C26.6582 41.7985 29.7931 41.6997 31.3366 39.9967C31.7593 39.5129 32.2097 39.0539 32.6856 38.6222C34.0505 37.4327 34.8733 35.9083 35.4314 34.2213C35.5812 33.7653 35.7056 33.4209 36.3052 33.3539C36.6896 33.2614 37.0287 33.0354 37.2619 32.7161C37.5494 32.3366 37.7566 31.9026 37.871 31.4404C38.1102 30.4391 37.7466 29.5079 36.5762 29.5589C36.5571 29.5589 36.5348 29.5366 36.4646 29.4919C36.522 29.3038 36.5858 29.1124 36.6464 28.9211H43.6623V27.1225L37.1822 27.0938ZM34.6309 32.0527C34.2801 33.5963 33.856 35.1461 32.845 36.3899C31.9579 37.4599 30.9852 38.456 29.9366 39.3685C29.0469 40.1625 27.3854 40.2327 26.486 39.4801C25.1466 38.3448 23.7913 37.1872 22.8792 35.6532C22.1872 34.486 21.9225 33.1689 21.645 31.8582C21.4377 30.8728 21.2049 29.8874 21.0072 28.8988H35.2209C35.0487 29.948 34.8637 31.0099 34.6245 32.0527H34.6309Z" fill="white"/>
</g>
<defs>
<clipPath id="clip0_6923_27759">
<rect width="31.0838" height="29.4" fill="white" transform="translate(12.5977 13.2969)"/>
</clipPath>
</defs>
</svg>
