<svg width="56" height="56" viewBox="0 0 56 56" fill="none" xmlns="http://www.w3.org/2000/svg">
<rect width="56" height="56" rx="28" fill="#009CF9"/>
<g clip-path="url(#clip0_6923_27839)">
<path d="M14.4991 14.4519H18.6709V12.5938H12.6084V18.5619H14.4991V14.4519Z" fill="white"/>
<path d="M38.0884 12.5938V14.4649H42.1984V18.5554H44.0695V12.5938H38.0884Z" fill="white"/>
<path d="M37.1525 29.1558H36.9996C36.9768 29.1558 36.954 29.133 36.8824 29.0875C36.8824 29.0615 36.8824 29.0322 36.9084 29.0061C37.1069 28.3846 37.3185 27.7598 37.4942 27.122C38.145 24.779 38.0051 22.5239 36.6449 20.4445C35.6286 18.957 34.177 17.8203 32.4893 17.1903C29.9673 16.1555 27.377 15.8626 24.7314 16.6566C23.3321 17.0764 22.2843 17.929 21.8417 19.3641C21.8122 19.5412 21.7263 19.7041 21.5967 19.8284C21.4671 19.9527 21.3008 20.0319 21.1225 20.054C19.7168 20.3599 18.6982 21.1278 18.5192 22.6573C18.4199 23.2355 18.4199 23.8265 18.5192 24.4048C18.7828 25.586 19.1701 26.738 19.4955 27.8997L19.8209 29.0745C19.8194 29.0951 19.8194 29.1157 19.8209 29.1363C19.7623 29.1363 19.707 29.1526 19.6549 29.1656C18.5745 29.3641 18.2459 29.8164 18.3533 30.8805C18.4106 31.535 18.7198 32.1417 19.2156 32.5727C19.5261 32.8304 19.8894 33.017 20.2797 33.1194C20.4011 33.1329 20.5154 33.1836 20.6069 33.2646C20.6983 33.3455 20.7625 33.4528 20.7906 33.5717C20.9175 33.9655 21.051 34.356 21.2006 34.7399C21.603 35.8408 22.2153 36.8532 23.0035 37.7207L23.0458 37.7631C23.2247 37.955 23.4102 38.147 23.599 38.3358C24.1294 38.8695 24.6728 39.3901 25.1935 39.9303C25.8819 40.6199 26.7857 41.0529 27.7545 41.1571C28.2058 41.2114 28.6623 41.2037 29.1115 41.1343C30.0813 41.0028 30.9769 40.5435 31.6497 39.8327C32.0828 39.3405 32.5423 38.8723 33.0262 38.4301C33.1271 38.3423 33.228 38.2512 33.3224 38.1601C33.4167 38.0689 33.5567 37.929 33.6673 37.8086C34.6582 36.6898 35.3953 35.3699 35.8281 33.9394C35.8713 33.7863 35.9302 33.638 36.0038 33.4969C36.0731 33.3662 36.1759 33.2563 36.3017 33.1785C36.4276 33.1007 36.5718 33.0579 36.7197 33.0543C37.1123 32.9607 37.4586 32.7299 37.6959 32.4035C37.9893 32.0163 38.2008 31.5734 38.3175 31.1018C38.5518 30.0995 38.2231 29.1884 37.1525 29.1558ZM32.0012 26.5753C33.1409 26.6304 34.2395 27.0184 35.161 27.6915L31.256 28.4627C31.1339 28.3262 30.9785 28.2239 30.8048 28.1657C30.6312 28.1076 30.4454 28.0956 30.2658 28.1311C30.0862 28.1666 29.9189 28.2482 29.7804 28.368C29.6419 28.4877 29.537 28.6415 29.476 28.8141L28.7503 28.9573V26.5525C29.5768 26.5525 30.4067 26.5525 31.23 26.5525C31.5001 26.559 31.7506 26.5655 32.0012 26.5753ZM31.7018 32.6247L30.7255 33.1194C30.5916 33.059 30.4462 33.0279 30.2993 33.0283C30.0586 33.0282 29.825 33.11 29.637 33.2602C29.449 33.4104 29.3176 33.6201 29.2644 33.8548L28.7731 34.1021V29.9694L29.6322 29.8001C29.7293 29.9387 29.8584 30.0518 30.0085 30.13C30.1586 30.2082 30.3253 30.2491 30.4945 30.2492H30.5466L31.8482 31.9934C31.7385 32.1644 31.6798 32.3631 31.679 32.5662C31.6858 32.586 31.6934 32.6055 31.7018 32.6247ZM26.7002 39.3088C26.1339 38.8304 25.5677 38.3488 25.034 37.8379C24.6182 37.4492 24.228 37.0339 23.8658 36.5948C23.5514 36.2188 23.2674 35.8184 23.0165 35.3973C22.85 35.1137 22.7032 34.8191 22.5771 34.5154C22.2114 33.5462 21.9368 32.545 21.7571 31.5248C21.5716 30.643 21.3699 29.7676 21.1811 28.8857C21.1356 28.6872 21.0933 28.492 21.051 28.2935C21.0368 28.1676 21.0705 28.041 21.1454 27.9388C21.3569 27.6524 21.5912 27.3856 21.8222 27.1155C22.4543 26.4152 22.8613 25.541 22.9904 24.6065C23.0728 24.6641 23.1521 24.726 23.228 24.792C23.9586 25.5488 24.8899 26.0817 25.9126 26.328C26.5323 26.4746 27.1666 26.55 27.8033 26.5525V38.889C27.6569 38.9583 27.5281 39.0599 27.4267 39.1861C27.3252 39.3124 27.2537 39.46 27.2176 39.6179C27.1883 39.6179 27.1525 39.5951 27.1232 39.5789C26.9709 39.5078 26.8287 39.417 26.7002 39.3088ZM30.2211 39.1949C30.0564 39.3398 29.8711 39.4593 29.6712 39.5496C29.5511 39.607 29.4272 39.656 29.3002 39.696C29.2768 39.5375 29.2178 39.3863 29.1277 39.2539C29.0375 39.1215 28.9185 39.0112 28.7796 38.9313V35.176V35.1988L29.5248 34.8246C29.6237 34.9285 29.7429 35.011 29.875 35.067C30.0071 35.1229 30.1493 35.1512 30.2928 35.15H30.3318L31.9231 37.5613C31.8613 37.6296 31.7962 37.698 31.7311 37.7631C31.256 38.2544 30.7321 38.7328 30.2114 39.1949H30.2211ZM33.1857 36.1555C33.0328 36.3475 32.8603 36.533 32.7106 36.7185C32.6819 36.7536 32.6515 36.7873 32.6194 36.8193L31.1974 34.6586C31.3068 34.4875 31.3655 34.2889 31.3666 34.0859C31.3649 34.0236 31.3584 33.9616 31.3471 33.9004L32.229 33.4545C32.3528 33.5337 32.4929 33.5839 32.6388 33.6014C32.7848 33.6189 32.9328 33.6031 33.0718 33.5554L34.0253 34.818C33.7952 35.2944 33.5102 35.7422 33.1759 36.1522L33.1857 36.1555ZM35.0113 31.7299C34.9364 32.0553 34.8551 32.3807 34.7705 32.7256C34.6761 33.0771 34.572 33.4253 34.4451 33.7637L33.7649 32.8655C33.7999 32.7605 33.8185 32.6508 33.8202 32.5401C33.8207 32.4003 33.7934 32.2617 33.7401 32.1324C33.6868 32.0031 33.6084 31.8856 33.5095 31.7867C33.4106 31.6878 33.2932 31.6095 33.1639 31.5562C33.0346 31.5028 32.896 31.4756 32.7561 31.476H32.7171L31.3894 29.722C31.4524 29.6221 31.4975 29.512 31.5228 29.3966L35.6035 28.5896C35.6035 28.6677 35.5775 28.7491 35.5612 28.8304C35.392 29.8099 35.2163 30.7764 35.0015 31.7299H35.0113Z" fill="white"/>
<path d="M14.4861 36.6484H12.6475V42.584H18.5895V40.7649H14.4861V36.6484Z" fill="white"/>
<path d="M42.201 40.7669H38.1138V42.5925H44.0363V36.6406H42.201V40.7669Z" fill="white"/>
</g>
<defs>
<clipPath id="clip0_6923_27839">
<rect width="31.4611" height="30" fill="white" transform="translate(12.6094 12.5938)"/>
</clipPath>
</defs>
</svg>
