<svg width="50" height="50" viewBox="0 0 50 50" fill="none" xmlns="http://www.w3.org/2000/svg">
<rect width="50" height="50" rx="25" fill="#009CF9"/>
<path d="M18.8538 37.2662C17.9313 37.2662 17.0575 37.0625 16.2725 36.6988L12.5 37.5L13.2887 33.72C12.9225 32.9325 12.7175 32.055 12.7175 31.13C12.7175 27.745 15.4612 25 18.8475 25C22.2338 25 24.9775 27.745 24.9775 31.13C24.9775 34.515 22.2325 37.26 18.8475 37.26" stroke="white" stroke-width="1.5" stroke-linecap="round" stroke-linejoin="round"/>
<path d="M18.265 25.0238C17.7737 23.955 17.5 22.7838 17.5 21.55C17.5 16.5288 21.9975 12.5 27.5 12.5C33.0025 12.5 37.5 16.5288 37.5 21.55C37.5 24.5175 35.9225 27.13 33.5012 28.7775C33.5025 29.7225 33.5 30.9962 33.5 32.3337L29.5763 30.4013C28.905 30.53 28.2113 30.6 27.5 30.6C26.6112 30.6 25.7525 30.485 24.93 30.2875" stroke="white" stroke-width="1.5" stroke-linecap="round" stroke-linejoin="round"/>
<path d="M15.9941 31.2058C16.0186 31.2302 16.0186 31.2698 15.9941 31.2942C15.9697 31.3186 15.9302 31.3186 15.9058 31.2942C15.8813 31.2698 15.8813 31.2302 15.9058 31.2058C15.9302 31.1814 15.9697 31.1814 15.9941 31.2058" stroke="white" stroke-width="1.5" stroke-linecap="round" stroke-linejoin="round"/>
<path d="M18.8066 31.2058C18.8311 31.2302 18.8311 31.2698 18.8066 31.2942C18.7822 31.3186 18.7427 31.3186 18.7183 31.2942C18.6938 31.2698 18.6938 31.2302 18.7183 31.2058C18.7427 31.1814 18.7822 31.1814 18.8066 31.2058" stroke="white" stroke-width="1.5" stroke-linecap="round" stroke-linejoin="round"/>
<path d="M21.6191 31.2058C21.6436 31.2302 21.6436 31.2698 21.6191 31.2942C21.5947 31.3186 21.5552 31.3186 21.5308 31.2942C21.5063 31.2698 21.5063 31.2302 21.5308 31.2058C21.5552 31.1814 21.5947 31.1814 21.6191 31.2058" stroke="white" stroke-width="1.5" stroke-linecap="round" stroke-linejoin="round"/>
<path d="M27.5 22.5554C27.5 21.7341 28.0075 21.2891 28.5163 20.9466C29.0138 20.6116 29.5113 20.1754 29.5113 19.3716C29.5113 18.2604 28.6113 17.3604 27.5 17.3604C26.3888 17.3604 25.4888 18.2604 25.4888 19.3716" stroke="white" stroke-width="1.5" stroke-linecap="round" stroke-linejoin="round"/>
<path d="M27.5 25.5723C27.4313 25.5723 27.375 25.6285 27.375 25.6973C27.375 25.766 27.4313 25.8223 27.5 25.8223C27.5687 25.8223 27.625 25.766 27.625 25.6973C27.625 25.6285 27.5687 25.5723 27.5 25.5723" stroke="white" stroke-width="1.5" stroke-linecap="round" stroke-linejoin="round"/>
</svg>
