<svg width="32" height="32" viewBox="0 0 32 32" fill="none" xmlns="http://www.w3.org/2000/svg">
<path fill-rule="evenodd" clip-rule="evenodd" d="M17.0673 3.99463C17.63 3.99463 18.1322 4.348 18.3224 4.87766L19.0001 6.76512C19.1076 7.06192 19.3164 7.31131 19.5896 7.46941L21.5998 8.62989C21.8728 8.78739 22.1927 8.84315 22.5029 8.78729L24.477 8.43114C25.0314 8.33034 25.5893 8.58874 25.8709 9.07675L26.938 10.9175C27.2204 11.4042 27.1671 12.0157 26.8046 12.4461L25.5094 13.9775C25.3054 14.2182 25.1934 14.5236 25.1933 14.8391V17.1601C25.1934 17.4757 25.3054 17.781 25.5094 18.0218L26.8046 19.5531C27.1671 19.9835 27.2204 20.5951 26.938 21.0817L25.8709 22.9225C25.5895 23.41 25.0323 23.6683 24.4783 23.5681L22.5042 23.212C22.194 23.1561 21.8741 23.2119 21.6011 23.3694L19.591 24.5298C19.3177 24.688 19.109 24.9373 19.0014 25.2341L18.3238 27.1216C18.1334 27.6517 17.6305 28.0051 17.0673 28.0046H14.933C14.3703 28.0046 13.8681 27.6513 13.6778 27.1216L13.0002 25.2341C12.8927 24.9377 12.6845 24.6885 12.412 24.5298L10.4005 23.3694C10.1275 23.2119 9.80759 23.1561 9.49744 23.212L7.52328 23.5681C6.96892 23.6689 6.41102 23.4105 6.12937 22.9225L5.06226 21.0817C4.77986 20.5951 4.83322 19.9835 5.19565 19.5531L6.49085 18.0218C6.69484 17.781 6.80686 17.4757 6.80698 17.1601V14.8391C6.80686 14.5236 6.69484 14.2182 6.49085 13.9775L5.20898 12.4461C4.84656 12.0157 4.79319 11.4042 5.0756 10.9175L6.14271 9.07675C6.42418 8.58927 6.98137 8.33095 7.53529 8.43114L9.50944 8.78729C9.8196 8.84315 10.1395 8.78739 10.4125 8.62989L12.424 7.46941C12.6965 7.3108 12.9047 7.06154 13.0122 6.76512L13.6899 4.87766C13.8786 4.35212 14.3747 3.99974 14.933 3.99463H17.0673Z" stroke="#009CF9" stroke-width="2" stroke-linecap="round" stroke-linejoin="round"/>
<circle cx="16" cy="15.9997" r="3.66819" stroke="#009CF9" stroke-width="2" stroke-linecap="round" stroke-linejoin="round"/>
</svg>
