<svg width="23" height="24" viewBox="0 0 23 24" fill="none" xmlns="http://www.w3.org/2000/svg">
<g clip-path="url(#clip0_7147_28428)">
<path d="M5.56208 24.0066V21.879H3.37396V20.4105H5.56032C5.56032 19.7755 5.56442 19.1681 5.55209 18.5613C5.55209 18.5137 5.43461 18.438 5.3647 18.4268C3.93611 18.1918 2.709 17.5721 1.72273 16.5142C0.494449 15.1995 -0.110588 13.6358 0.019231 11.8342C0.20133 9.29542 1.49951 7.49676 3.78808 6.41592C4.59636 6.0341 5.46574 5.87785 6.36037 5.89664C6.52661 5.90017 6.6065 5.8379 6.68991 5.70573C7.93347 3.73261 9.72625 2.68055 12.0565 2.63943C13.6807 2.61065 15.1111 3.1822 16.3265 4.27714C16.4016 4.34528 16.4756 4.4146 16.5514 4.48274C16.5726 4.49558 16.595 4.5062 16.6184 4.51446L19.8298 1.47048H18.1927V0.0078125H22.4726V4.18198H21.0175V2.44558L20.9588 2.42502L17.5371 5.66931C17.7321 6.14453 17.9483 6.58803 18.0987 7.05209C19.0515 9.98564 17.6399 13.2481 14.8567 14.5939C13.9914 15.0187 13.0393 15.2373 12.0753 15.2324C11.8774 15.2324 11.7705 15.2912 11.6677 15.4562C10.6291 17.1257 9.12885 18.1043 7.19449 18.4321C7.13282 18.4426 7.03531 18.5225 7.03413 18.5713C7.02356 19.171 7.02709 19.7714 7.02709 20.3923H9.30509V21.8673H7.01768V24.0049L5.56208 24.0066ZM12.419 13.7269C14.2505 13.6916 16.4281 12.2437 16.8498 9.75537C17.261 7.32641 15.7925 4.97852 13.4875 4.30416C11.1725 3.6257 9.00843 4.78408 8.17724 6.16392C11.2529 7.14608 13.2179 10.3416 12.419 13.7292V13.7269ZM5.97443 7.38281C3.89146 7.41805 1.94301 9.14505 1.54239 11.2891C1.12122 13.5413 2.38063 15.8322 4.47947 16.6651C6.70694 17.5498 9.08128 16.6604 10.2297 14.9581C8.65247 14.4324 7.42536 13.4684 6.60533 12.021C5.7853 10.5736 5.6026 9.02345 5.97443 7.38691V7.38281ZM10.8964 13.5953C11.7928 10.8873 9.95065 8.03013 7.48057 7.532C6.63352 10.1172 8.27181 12.9844 10.8964 13.5994V13.5953Z" fill="#009CF9"/>
</g>
<defs>
<clipPath id="clip0_7147_28428">
<rect width="22.471" height="24" fill="white"/>
</clipPath>
</defs>
</svg>
