<svg width="36" height="36" viewBox="0 0 36 36" fill="none" xmlns="http://www.w3.org/2000/svg">
<path d="M0.5 8C0.5 3.85786 3.85786 0.5 8 0.5H28C32.1421 0.5 35.5 3.85786 35.5 8V28C35.5 32.1421 32.1421 35.5 28 35.5H8C3.85786 35.5 0.5 32.1421 0.5 28V8Z" fill="white"/>
<path d="M0.5 8C0.5 3.85786 3.85786 0.5 8 0.5H28C32.1421 0.5 35.5 3.85786 35.5 8V28C35.5 32.1421 32.1421 35.5 28 35.5H8C3.85786 35.5 0.5 32.1421 0.5 28V8Z" stroke="#C6CED6"/>
<path d="M16.6667 12H12V16.6667H16.6667V12Z" stroke="#4E555D" stroke-width="1.2" stroke-linecap="round" stroke-linejoin="round"/>
<path d="M24.3346 12H19.668V16.6667H24.3346V12Z" stroke="#4E555D" stroke-width="1.2" stroke-linecap="round" stroke-linejoin="round"/>
<path d="M24.3346 19.667H19.668V24.3337H24.3346V19.667Z" stroke="#4E555D" stroke-width="1.2" stroke-linecap="round" stroke-linejoin="round"/>
<path d="M16.6667 19.667H12V24.3337H16.6667V19.667Z" stroke="#4E555D" stroke-width="1.2" stroke-linecap="round" stroke-linejoin="round"/>
</svg>
