<svg width="20" height="21" viewBox="0 0 20 21" fill="none" xmlns="http://www.w3.org/2000/svg">
<path d="M18.3334 10.5H13.3334L11.6667 13H8.33341L6.66675 10.5H1.66675" stroke="#4E555D" stroke-width="1.5" stroke-linecap="round" stroke-linejoin="round"/>
<path d="M4.54175 4.75801L1.66675 10.4997V15.4997C1.66675 15.9417 1.84234 16.3656 2.1549 16.6782C2.46746 16.9907 2.89139 17.1663 3.33341 17.1663H16.6667C17.1088 17.1663 17.5327 16.9907 17.8453 16.6782C18.1578 16.3656 18.3334 15.9417 18.3334 15.4997V10.4997L15.4584 4.75801C15.3204 4.48033 15.1077 4.24665 14.8442 4.08324C14.5807 3.91983 14.2768 3.83317 13.9667 3.83301H6.03341C5.72334 3.83317 5.41947 3.91983 5.15595 4.08324C4.89244 4.24665 4.67973 4.48033 4.54175 4.75801Z" stroke="#4E555D" stroke-width="1.5" stroke-linecap="round" stroke-linejoin="round"/>
</svg>
