<svg width="22" height="22" viewBox="0 0 22 22" fill="none" xmlns="http://www.w3.org/2000/svg">
<path fill-rule="evenodd" clip-rule="evenodd" d="M10.9986 2.96484V2.96484C15.437 2.96484 19.0343 6.56216 19.0343 11.0006V11.0006C19.0343 15.4389 15.437 19.0363 10.9986 19.0363V19.0363C6.56021 19.0363 2.96289 15.4389 2.96289 11.0006V11.0006C2.96289 6.56216 6.56021 2.96484 10.9986 2.96484Z" stroke="#007DC7" stroke-width="1.33929" stroke-linecap="round" stroke-linejoin="round"/>
<path d="M10.9992 11.4467V6.98242" stroke="#007DC7" stroke-width="1.33929" stroke-linecap="round" stroke-linejoin="round"/>
<path d="M10.9983 14.5718C10.8751 14.5718 10.7751 14.6718 10.776 14.7951C10.776 14.9183 10.876 15.0183 10.9992 15.0183C11.1224 15.0183 11.2224 14.9183 11.2224 14.7951C11.2224 14.6718 11.1224 14.5718 10.9983 14.5718" stroke="#007DC7" stroke-width="1.33929" stroke-linecap="round" stroke-linejoin="round"/>
</svg>
