<svg width="26" height="32" viewBox="0 0 26 32" fill="none" xmlns="http://www.w3.org/2000/svg">
<path d="M17.875 26.2432C21.306 26.0732 24.565 25.1653 24.995 23.3992C25.025 23.3171 25.042 23.2283 25.042 23.1362V4.91309L25.04 4.89819L25.042 4.88525C25.042 2.64209 20.673 1.62012 16.614 1.62012C12.554 1.62012 8.18604 2.64209 8.18604 4.88525L8.18704 4.89429L8.18604 4.9082V5.72827" fill="#FFD5D3"/>
<path d="M17.875 26.2432C21.306 26.0732 24.565 25.1653 24.995 23.3992C25.025 23.3171 25.042 23.2283 25.042 23.1362V4.91309L25.04 4.89819L25.042 4.88525C25.042 2.64209 20.673 1.62012 16.614 1.62012C12.554 1.62012 8.18604 2.64209 8.18604 4.88525L8.18704 4.89429L8.18604 4.9082V5.72827" stroke="#FF6566" stroke-width="1.5" stroke-linecap="round" stroke-linejoin="round"/>
<path d="M8.19504 4.7395C8.19302 4.72534 8.18604 4.70947 8.18604 4.69531" stroke="#FF6566" stroke-width="1.5" stroke-linecap="round" stroke-linejoin="round"/>
<path d="M25.0421 4.69531C24.9462 5.49146 21.9702 7.28149 16.9312 7.39233" stroke="#FF6566" stroke-width="1.5" stroke-linecap="round" stroke-linejoin="round"/>
<path d="M25.042 10.9014C24.951 11.6545 22.4 13.2944 17.875 13.5664" stroke="#FF6566" stroke-width="1.5" stroke-linecap="round" stroke-linejoin="round"/>
<path d="M25.042 17.0635C24.951 17.8184 22.402 19.4644 17.856 19.7305" stroke="#FF6566" stroke-width="1.5" stroke-linecap="round" stroke-linejoin="round"/>
<path d="M17.856 8.99341C17.856 6.74951 13.487 5.72852 9.42801 5.72852C5.36899 5.72852 1 6.74951 1 8.99341L1.00101 9.00244L1 9.02148V27.2444C1 27.3364 1.017 27.4255 1.047 27.5073C1.526 29.4785 5.61401 30.3804 9.42801 30.3804C13.242 30.3804 17.33 29.4785 17.809 27.5073C17.839 27.4255 17.856 27.3364 17.856 27.2444V9.02148L17.854 9.01147L17.856 8.99341Z" fill="white" stroke="#FF6566" stroke-width="1.5" stroke-linecap="round" stroke-linejoin="round"/>
<path d="M17.856 8.80273C17.757 9.62476 14.741 11.5498 9.38699 11.5498C4.03201 11.5498 1.108 9.6687 1.009 8.84668C1.00699 8.83276 1 8.81665 1 8.80273" stroke="#FF6566" stroke-width="1.5" stroke-linecap="round" stroke-linejoin="round"/>
<path d="M17.856 14.9648C17.757 15.7869 14.741 17.7119 9.38699 17.7119C4.03201 17.7119 1.108 15.8311 1.009 15.009C1.00699 14.9949 1 14.979 1 14.9648" stroke="#FF6566" stroke-width="1.5" stroke-linecap="round" stroke-linejoin="round"/>
<path d="M17.856 21.127C17.757 21.948 14.741 23.874 9.38699 23.874C4.03201 23.874 1.108 21.9929 1.009 21.1709C1.00699 21.157 1 21.1409 1 21.127" stroke="#FF6566" stroke-width="1.5" stroke-linecap="round" stroke-linejoin="round"/>
</svg>
