<svg width="29" height="34" viewBox="0 0 29 34" fill="none" xmlns="http://www.w3.org/2000/svg">
<path d="M19.7761 28.397C23.5936 28.2079 27.2198 27.1977 27.6982 25.2326C27.7316 25.1413 27.7505 25.0424 27.7505 24.94V4.66394L27.7483 4.64737L27.7505 4.63297C27.7505 2.1371 22.8893 1 18.3731 1C13.8557 1 8.99561 2.1371 8.99561 4.63297L8.99673 4.64302L8.99561 4.65851V5.57096" fill="#D5F6E7"/>
<path d="M19.7761 28.397C23.5936 28.2079 27.2198 27.1977 27.6982 25.2326C27.7316 25.1413 27.7505 25.0424 27.7505 24.94V4.66394L27.7483 4.64737L27.7505 4.63297C27.7505 2.1371 22.8893 1 18.3731 1C13.8557 1 8.99561 2.1371 8.99561 4.63297L8.99673 4.64302L8.99561 4.65851V5.57096" stroke="#2ED086" stroke-width="1.5" stroke-linecap="round" stroke-linejoin="round"/>
<path d="M9.00562 4.47104C9.00338 4.45529 8.99561 4.43763 8.99561 4.42188" stroke="#2ED086" stroke-width="1.5" stroke-linecap="round" stroke-linejoin="round"/>
<path d="M27.7506 4.42188C27.6438 5.30771 24.3325 7.29941 18.7258 7.42273" stroke="#2ED086" stroke-width="1.5" stroke-linecap="round" stroke-linejoin="round"/>
<path d="M27.7505 11.3271C27.6493 12.1652 24.8109 13.9898 19.7761 14.2924" stroke="#2ED086" stroke-width="1.5" stroke-linecap="round" stroke-linejoin="round"/>
<path d="M27.7504 18.1836C27.6492 19.0235 24.813 20.8549 19.7549 21.151" stroke="#2ED086" stroke-width="1.5" stroke-linecap="round" stroke-linejoin="round"/>
<path d="M19.7549 9.20399C19.7549 6.70731 14.8937 5.57129 10.3775 5.57129C5.86118 5.57129 1 6.70731 1 9.20399L1.00112 9.21404L1 9.23523V29.5111C1 29.6135 1.01891 29.7126 1.05229 29.8036C1.58526 31.9969 6.13381 33.0003 10.3775 33.0003C14.6211 33.0003 19.1697 31.9969 19.7026 29.8036C19.736 29.7126 19.7549 29.6135 19.7549 29.5111V9.23523L19.7527 9.22409L19.7549 9.20399Z" fill="white" stroke="#2ED086" stroke-width="1.5" stroke-linecap="round" stroke-linejoin="round"/>
<path d="M19.7549 8.99219C19.6448 9.90681 16.289 12.0487 10.3318 12.0487C4.37359 12.0487 1.12017 9.95571 1.01002 9.04108C1.00778 9.0256 1 9.00767 1 8.99219" stroke="#2ED086" stroke-width="1.5" stroke-linecap="round" stroke-linejoin="round"/>
<path d="M19.7549 15.8477C19.6448 16.7623 16.289 18.9042 10.3318 18.9042C4.37359 18.9042 1.12017 16.8115 1.01002 15.8968C1.00778 15.8811 1 15.8634 1 15.8477" stroke="#2ED086" stroke-width="1.5" stroke-linecap="round" stroke-linejoin="round"/>
<path d="M19.7549 22.7041C19.6448 23.6176 16.289 25.7606 10.3318 25.7606C4.37359 25.7606 1.12017 23.6676 1.01002 22.753C1.00778 22.7375 1 22.7196 1 22.7041" stroke="#2ED086" stroke-width="1.5" stroke-linecap="round" stroke-linejoin="round"/>
</svg>
