<svg width="31" height="32" viewBox="0 0 31 32" fill="none" xmlns="http://www.w3.org/2000/svg">
<path d="M15.299 1.7002C7.41501 1.7002 1 8.11426 1 15.9993C1 23.8843 7.41501 30.3 15.299 30.3C23.184 30.3 29.598 23.8843 29.598 15.9993C29.598 8.11426 23.184 1.7002 15.299 1.7002Z" stroke="#2ED086" stroke-width="1.5" stroke-linecap="round" stroke-linejoin="round"/>
<path d="M16.3459 23.592C16.3459 24.1699 15.8769 24.6379 15.2989 24.6379C14.7219 24.6379 14.2529 24.1699 14.2529 23.592C14.2529 23.0139 14.7219 22.5459 15.2989 22.5459C15.8769 22.5459 16.3459 23.0139 16.3459 23.592Z" stroke="#2ED086" stroke-width="1.5" stroke-linecap="round" stroke-linejoin="round"/>
<path d="M21.8629 16.218C18.2939 12.332 12.2979 12.3378 8.73486 16.218" stroke="#2ED086" stroke-width="1.5" stroke-linecap="round" stroke-linejoin="round"/>
<path d="M25.046 12.974C19.72 7.30209 10.883 7.29599 5.55298 12.974" stroke="#2ED086" stroke-width="1.5" stroke-linecap="round" stroke-linejoin="round"/>
<path d="M11.917 19.4619C13.715 17.3698 16.884 17.3718 18.681 19.4619" stroke="#2ED086" stroke-width="1.5" stroke-linecap="round" stroke-linejoin="round"/>
</svg>
