<svg width="34" height="32" viewBox="0 0 34 32" fill="none" xmlns="http://www.w3.org/2000/svg">
<path d="M15.9989 2.00049C8.27891 2.00049 2 8.28061 2 16.0006C2 23.7197 8.27891 30.0007 15.9989 30.0007C23.719 30.0007 29.9993 23.7197 29.9993 16.0006C29.9993 8.28061 23.719 2.00049 15.9989 2.00049Z" fill="#E5FAFF" stroke="#009CF9" stroke-width="1.29867" stroke-linecap="round" stroke-linejoin="round"/>
<path d="M25.3121 26.441C22.2775 25.1756 19.3281 23.7194 19.0432 22.8053V21.5779C19.8544 20.7476 20.4946 19.5892 20.8737 18.2332C21.7765 17.5986 22.0138 16.2806 21.2558 15.3481V12.6002C21.2558 9.76375 19.6772 7.8208 16.0689 7.8208C12.5528 7.8208 10.8798 9.76375 10.8798 12.6002V15.3491C10.1249 16.2787 10.3595 17.5957 11.2621 18.2323C11.6415 19.5892 12.2816 20.7476 13.0934 21.5779V22.8053C12.8067 23.7271 10.0441 25.0908 6.9707 26.3679" fill="#E5FAFF"/>
<path d="M25.3121 26.441C22.2775 25.1756 19.3281 23.7194 19.0432 22.8053V21.5779C19.8544 20.7476 20.4946 19.5892 20.8737 18.2332C21.7765 17.5986 22.0138 16.2806 21.2558 15.3481V12.6002C21.2558 9.76375 19.6772 7.8208 16.0689 7.8208C12.5528 7.8208 10.8798 9.76375 10.8798 12.6002V15.3491C10.1249 16.2787 10.3595 17.5957 11.2621 18.2323C11.6415 19.5892 12.2816 20.7476 13.0934 21.5779V22.8053C12.8067 23.7271 10.0441 25.0908 6.9707 26.3679" stroke="#009CF9" stroke-width="1.29867" stroke-linecap="round" stroke-linejoin="round"/>
</svg>
