<svg width="26" height="24" viewBox="0 0 26 24" fill="none" xmlns="http://www.w3.org/2000/svg">
<path d="M12.0012 1.49219C6.21113 1.49219 1.50195 6.20228 1.50195 11.9923C1.50195 17.7816 6.21113 22.4924 12.0012 22.4924C17.7912 22.4924 22.5015 17.7816 22.5015 11.9923C22.5015 6.20228 17.7912 1.49219 12.0012 1.49219Z" fill="#E5FAFF" stroke="#009CF9" stroke-width="0.974" stroke-linecap="round" stroke-linejoin="round"/>
<path d="M18.9865 19.8245C16.7105 18.8754 14.4985 17.7833 14.2848 17.0978V16.1772C14.8933 15.5545 15.3734 14.6857 15.6577 13.6687C16.3348 13.1927 16.5128 12.2042 15.9443 11.5048V9.44395C15.9443 7.31659 14.7603 5.85938 12.0541 5.85938C9.41708 5.85938 8.16228 7.31659 8.16228 9.44395V11.5056C7.59614 12.2028 7.7721 13.1906 8.44902 13.668C8.73356 14.6857 9.21365 15.5545 9.82246 16.1772V17.0978C9.6075 17.7891 7.53553 18.8119 5.23047 19.7697" fill="#E5FAFF"/>
<path d="M18.9865 19.8245C16.7105 18.8754 14.4985 17.7833 14.2848 17.0978V16.1772C14.8933 15.5545 15.3734 14.6857 15.6577 13.6687C16.3348 13.1927 16.5128 12.2042 15.9443 11.5048V9.44395C15.9443 7.31659 14.7603 5.85938 12.0541 5.85938C9.41708 5.85938 8.16228 7.31659 8.16228 9.44395V11.5056C7.59614 12.2028 7.7721 13.1906 8.44902 13.668C8.73356 14.6857 9.21365 15.5545 9.82246 16.1772V17.0978C9.6075 17.7891 7.53553 18.8119 5.23047 19.7697" stroke="#009CF9" stroke-width="0.974" stroke-linecap="round" stroke-linejoin="round"/>
</svg>
