<svg width="32" height="32" viewBox="0 0 32 32" fill="none" xmlns="http://www.w3.org/2000/svg">
<path fill-rule="evenodd" clip-rule="evenodd" d="M10.666 13.3333V9.33333C10.666 6.388 13.054 4 15.9993 4C18.9447 4 21.3327 6.388 21.3327 9.33333V13.3333" fill="#E5FAFF"/>
<path d="M10.666 13.3333V9.33333V9.33333C10.666 6.388 13.054 4 15.9993 4V4C18.9447 4 21.3327 6.388 21.3327 9.33333V9.33333V13.3333" stroke="#009CF9" stroke-width="1.5" stroke-linecap="round" stroke-linejoin="round"/>
<path fill-rule="evenodd" clip-rule="evenodd" d="M22.666 28.0002H9.33268C7.85935 28.0002 6.66602 26.8068 6.66602 25.3335V16.0002C6.66602 14.5268 7.85935 13.3335 9.33268 13.3335H22.666C24.1393 13.3335 25.3327 14.5268 25.3327 16.0002V25.3335C25.3327 26.8068 24.1393 28.0002 22.666 28.0002Z" fill="#E5FAFF" stroke="#009CF9" stroke-width="1.5" stroke-linecap="round" stroke-linejoin="round"/>
<path d="M16.0007 18.6665V22.6665" stroke="#009CF9" stroke-width="1.5" stroke-linecap="round" stroke-linejoin="round"/>
</svg>
