<svg width="27" height="25" viewBox="0 0 27 25" fill="none" xmlns="http://www.w3.org/2000/svg">
<path d="M24.9276 24.5V21.4994H26.9386V21.822H25.2677V22.9242H26.7578V23.2468H25.2677V24.5H24.9276ZM7.71328 24.5L6.84177 23.4277H6.0794V24.5H5.73188V21.4994H6.86421C7.53789 21.4994 8.00831 21.8701 8.00831 22.4615C8.00831 22.938 7.70459 23.2734 7.23852 23.3838L8.14514 24.5H7.71328ZM6.0794 23.1053H6.85462C7.32178 23.1053 7.66513 22.8632 7.66513 22.4615C7.66513 22.0599 7.32178 21.822 6.85462 21.822H6.0794V23.1053ZM0 24.5V21.4994H1.0574C1.74972 21.4994 2.21217 21.8969 2.21217 22.4968C2.21217 23.1181 1.73162 23.5284 1.01359 23.5284H0.34788V24.5H0ZM0.34788 23.207H1.04436C1.53795 23.207 1.86863 22.9242 1.86863 22.4968C1.86863 22.0908 1.53795 21.8166 1.04436 21.8166H0.34788V23.207ZM18.1216 22.9461C18.1216 22.1108 18.7951 21.4463 19.6301 21.4463C20.4647 21.4463 21.1383 22.1108 21.1383 22.9461C21.1383 23.7813 20.4647 24.4469 19.6301 24.4469C18.7951 24.4469 18.1216 23.7813 18.1216 22.9461ZM18.4619 22.9461C18.4619 23.6024 18.974 24.1311 19.6301 24.1311C20.2858 24.1311 20.797 23.6024 20.797 22.9461C20.797 22.2899 20.2858 21.761 19.6301 21.761C18.974 21.761 18.4619 22.2899 18.4619 22.9461ZM11.4462 22.9461C11.4462 22.1108 12.1195 21.4463 12.9545 21.4463C13.7892 21.4463 14.4629 22.1108 14.4629 22.9461C14.4629 23.7813 13.7892 24.4469 12.9545 24.4469C12.1195 24.4469 11.4462 23.7813 11.4462 22.9461ZM11.7865 22.9461C11.7865 23.6024 12.2985 24.1311 12.9545 24.1311C13.6102 24.1311 14.1214 23.6024 14.1214 22.9461C14.1214 22.2899 13.6102 21.761 12.9545 21.761C12.2985 21.761 11.7865 22.2899 11.7865 22.9461ZM17.749 19.5034V5.92489H22.3181V7.3808C23.5236 6.34454 24.9813 5.70093 27 5.70093V10.0123C26.2983 10.0393 25.6776 10.1162 25.1243 10.2428C24.3098 10.4277 23.6394 10.7186 23.0644 11.11C22.7968 11.2918 22.55 11.4951 22.3181 11.7201V19.5034H17.749ZM0.0512227 19.5034V0.5H7.69898C10.3461 0.5 12.4544 1.26135 13.8466 2.62041C14.9757 3.72166 15.6334 5.21503 15.7261 7.01264C15.7337 7.15937 15.7379 7.30735 15.7379 7.4584C15.7379 11.9014 12.4996 14.6685 7.33535 14.6685H4.76788V19.5034H0.0512227ZM4.76788 10.5323H7.61481C9.68092 10.5323 11.0484 9.33073 11.0484 7.4584C11.0484 5.75368 9.68092 4.63532 7.61481 4.63532H4.76788V10.5323Z" fill="white"/>
</svg>
