<svg width="52" height="52" viewBox="0 0 52 52" fill="none" xmlns="http://www.w3.org/2000/svg">
<rect width="52" height="52" rx="5.2" fill="url(#paint0_linear_2166_4700)"/>
<path d="M40.856 41.5984V37.6977H43.4704V38.1171H41.2981V39.5499H43.2354V39.9693H41.2981V41.5984H40.856ZM18.4775 41.5984L17.3445 40.2045H16.3534V41.5984H15.9016V37.6977H17.3737C18.2495 37.6977 18.861 38.1796 18.861 38.9484C18.861 39.5679 18.4662 40.0039 17.8603 40.1474L19.0389 41.5984H18.4775ZM16.3534 39.7853H17.3612C17.9685 39.7853 18.4149 39.4705 18.4149 38.9484C18.4149 38.4262 17.9685 38.1171 17.3612 38.1171H16.3534V39.7853ZM8.4502 41.5984V37.6977H9.82481C10.7248 37.6977 11.326 38.2144 11.326 38.9943C11.326 39.8019 10.7013 40.3353 9.76787 40.3353H8.90244V41.5984H8.4502ZM8.90244 39.9176H9.80787C10.4495 39.9176 10.8794 39.5499 10.8794 38.9943C10.8794 38.4665 10.4495 38.1101 9.80787 38.1101H8.90244V39.9176ZM32.0083 39.5784C32.0083 38.4925 32.8839 37.6286 33.9693 37.6286C35.0543 37.6286 35.93 38.4925 35.93 39.5784C35.93 40.6641 35.0543 41.5294 33.9693 41.5294C32.8839 41.5294 32.0083 40.6641 32.0083 39.5784ZM32.4507 39.5784C32.4507 40.4315 33.1163 41.1189 33.9693 41.1189C34.8218 41.1189 35.4863 40.4315 35.4863 39.5784C35.4863 38.7254 34.8218 38.0377 33.9693 38.0377C33.1163 38.0377 32.4507 38.7254 32.4507 39.5784ZM23.3303 39.5784C23.3303 38.4925 24.2056 37.6286 25.291 37.6286C26.3762 37.6286 27.252 38.4925 27.252 39.5784C27.252 40.6641 26.3762 41.5294 25.291 41.5294C24.2056 41.5294 23.3303 40.6641 23.3303 39.5784ZM23.7726 39.5784C23.7726 40.4315 24.4383 41.1189 25.291 41.1189C26.1435 41.1189 26.808 40.4315 26.808 39.5784C26.808 38.7254 26.1435 38.0377 25.291 38.0377C24.4383 38.0377 23.7726 38.7254 23.7726 39.5784ZM31.5238 35.1029V17.4508H37.4637V19.3435C39.0308 17.9963 40.9259 17.1596 43.5502 17.1596V22.7645C42.6379 22.7996 41.8311 22.8995 41.1118 23.064C40.0529 23.3044 39.1814 23.6826 38.4339 24.1914C38.0861 24.4278 37.7651 24.692 37.4637 24.9846V35.1029H31.5238ZM8.51678 35.1029V10.3984H18.4589C21.9001 10.3984 24.6409 11.3882 26.4508 13.155C27.9186 14.5866 28.7737 16.528 28.8941 18.8649C28.904 19.0556 28.9094 19.248 28.9094 19.4444C28.9094 25.2203 24.6997 28.8175 17.9862 28.8175H14.6484V35.1029H8.51678ZM14.6484 23.4404H18.3495C21.0354 23.4404 22.8131 21.8784 22.8131 19.4444C22.8131 17.2282 21.0354 15.7744 18.3495 15.7744H14.6484V23.4404Z" fill="white"/>
<defs>
<linearGradient id="paint0_linear_2166_4700" x1="26" y1="0" x2="26" y2="52" gradientUnits="userSpaceOnUse">
<stop stop-color="#00CAF9"/>
<stop offset="1" stop-color="#0092F9"/>
</linearGradient>
</defs>
</svg>
