<svg width="33" height="32" viewBox="0 0 33 32" fill="none" xmlns="http://www.w3.org/2000/svg">
<g clip-path="url(#clip0_7235_8604)">
<path fill-rule="evenodd" clip-rule="evenodd" d="M17.0738 3.99512C17.6366 3.99512 18.1388 4.34849 18.329 4.87815L19.0066 6.7656C19.1142 7.06241 19.3229 7.31179 19.5962 7.4699L21.6063 8.63038C21.8793 8.78788 22.1992 8.84364 22.5094 8.78778L24.4835 8.43163C25.0379 8.33083 25.5958 8.58923 25.8775 9.07723L26.9446 10.918C27.227 11.4047 27.1736 12.0162 26.8112 12.4466L25.516 13.9779C25.312 14.2187 25.2 14.524 25.1998 14.8396V17.1606C25.2 17.4762 25.312 17.7815 25.516 18.0223L26.8112 19.5536C27.1736 19.984 27.227 20.5956 26.9446 21.0822L25.8775 22.923C25.596 23.4105 25.0388 23.6688 24.4849 23.5686L22.5107 23.2125C22.2006 23.1566 21.8806 23.2124 21.6077 23.3699L19.5975 24.5303C19.3243 24.6884 19.1155 24.9378 19.0079 25.2346L18.3303 27.1221C18.1399 27.6522 17.6371 28.0056 17.0738 28.0051H14.9396C14.3768 28.0051 13.8746 27.6517 13.6844 27.1221L13.0068 25.2346C12.8992 24.9382 12.691 24.6889 12.4185 24.5303L10.407 23.3699C10.134 23.2124 9.81412 23.1566 9.50397 23.2125L7.52981 23.5686C6.97545 23.6694 6.41755 23.411 6.1359 22.923L5.06879 21.0822C4.78639 20.5956 4.83975 19.984 5.20218 19.5536L6.49738 18.0223C6.70138 17.7815 6.81339 17.4762 6.81351 17.1606V14.8396C6.81339 14.524 6.70138 14.2187 6.49738 13.9779L5.21552 12.4466C4.85309 12.0162 4.79972 11.4047 5.08213 10.918L6.14924 9.07723C6.43071 8.58975 6.9879 8.33144 7.54182 8.43163L9.51597 8.78778C9.82613 8.84364 10.146 8.78788 10.419 8.63038L12.4305 7.4699C12.7031 7.31129 12.9112 7.06203 13.0188 6.7656L13.6964 4.87815C13.8851 4.35261 14.3812 4.00023 14.9396 3.99512H17.0738Z" stroke="white" stroke-width="2" stroke-linecap="round" stroke-linejoin="round"/>
<circle cx="16.0061" cy="16.0002" r="3.66819" stroke="white" stroke-width="2" stroke-linecap="round" stroke-linejoin="round"/>
</g>
<defs>
<clipPath id="clip0_7235_8604">
<rect width="32.0133" height="32.0133" fill="white" transform="translate(0 -0.00683594)"/>
</clipPath>
</defs>
</svg>
