<svg width="32" height="32" viewBox="0 0 32 32" fill="none" xmlns="http://www.w3.org/2000/svg">
<path fill-rule="evenodd" clip-rule="evenodd" d="M17.067 3.99512C17.6298 3.99512 18.132 4.34849 18.3222 4.87815L18.9998 6.7656C19.1074 7.06241 19.3161 7.31179 19.5894 7.4699L21.5996 8.63038C21.8725 8.78788 22.1925 8.84364 22.5026 8.78778L24.4768 8.43163C25.0311 8.33083 25.589 8.58923 25.8707 9.07723L26.9378 10.918C27.2202 11.4047 27.1668 12.0162 26.8044 12.4466L25.5092 13.9779C25.3052 14.2187 25.1932 14.524 25.1931 14.8396V17.1606C25.1932 17.4762 25.3052 17.7815 25.5092 18.0223L26.8044 19.5536C27.1668 19.984 27.2202 20.5956 26.9378 21.0822L25.8707 22.923C25.5892 23.4105 25.032 23.6688 24.4781 23.5686L22.5039 23.2125C22.1938 23.1566 21.8739 23.2124 21.6009 23.3699L19.5907 24.5303C19.3175 24.6884 19.1087 24.9378 19.0012 25.2346L18.3235 27.1221C18.1332 27.6522 17.6303 28.0056 17.067 28.0051H14.9328C14.37 28.0051 13.8678 27.6517 13.6776 27.1221L13 25.2346C12.8925 24.9382 12.6843 24.6889 12.4117 24.5303L10.4002 23.3699C10.1273 23.2124 9.80735 23.1566 9.49719 23.2125L7.52304 23.5686C6.96868 23.6694 6.41077 23.411 6.12912 22.923L5.06201 21.0822C4.77961 20.5956 4.83297 19.984 5.1954 19.5536L6.49061 18.0223C6.6946 17.7815 6.80661 17.4762 6.80674 17.1606V14.8396C6.80661 14.524 6.6946 14.2187 6.49061 13.9779L5.20874 12.4466C4.84631 12.0162 4.79295 11.4047 5.07535 10.918L6.14246 9.07723C6.42393 8.58975 6.98113 8.33144 7.53504 8.43163L9.5092 8.78778C9.81936 8.84364 10.1393 8.78788 10.4122 8.63038L12.4237 7.4699C12.6963 7.31129 12.9045 7.06203 13.012 6.7656L13.6896 4.87815C13.8783 4.35261 14.3744 4.00023 14.9328 3.99512H17.067Z" fill="#009CF9" stroke="#009CF9" stroke-width="2" stroke-linecap="round" stroke-linejoin="round"/>
<circle cx="16" cy="16.0002" r="3.66819" fill="#E5F5FF" stroke="#E5F5FF" stroke-width="2" stroke-linecap="round" stroke-linejoin="round"/>
</svg>
