<svg width="32" height="32" viewBox="0 0 32 32" fill="none" xmlns="http://www.w3.org/2000/svg">
<path fill-rule="evenodd" clip-rule="evenodd" d="M17.067 3.99609C17.6298 3.99609 18.132 4.34947 18.3222 4.87913L18.9998 6.76658C19.1074 7.06339 19.3161 7.31277 19.5894 7.47087L21.5996 8.63136C21.8725 8.78885 22.1925 8.84461 22.5026 8.78876L24.4768 8.43261C25.0311 8.33181 25.589 8.59021 25.8707 9.07821L26.9378 10.919C27.2202 11.4057 27.1668 12.0172 26.8044 12.4476L25.5092 13.9789C25.3052 14.2197 25.1932 14.525 25.1931 14.8406V17.1616C25.1932 17.4772 25.3052 17.7825 25.5092 18.0233L26.8044 19.5546C27.1668 19.985 27.2202 20.5965 26.9378 21.0832L25.8707 22.924C25.5892 23.4115 25.032 23.6698 24.4781 23.5696L22.5039 23.2134C22.1938 23.1576 21.8739 23.2133 21.6009 23.3708L19.5907 24.5313C19.3175 24.6894 19.1087 24.9388 19.0012 25.2356L18.3235 27.1231C18.1332 27.6532 17.6303 28.0066 17.067 28.0061H14.9328C14.37 28.0061 13.8678 27.6527 13.6776 27.1231L13 25.2356C12.8925 24.9392 12.6843 24.6899 12.4117 24.5313L10.4002 23.3708C10.1273 23.2133 9.80735 23.1576 9.49719 23.2134L7.52304 23.5696C6.96868 23.6704 6.41077 23.412 6.12912 22.924L5.06201 21.0832C4.77961 20.5965 4.83297 19.985 5.1954 19.5546L6.49061 18.0233C6.6946 17.7825 6.80661 17.4772 6.80674 17.1616V14.8406C6.80661 14.525 6.6946 14.2197 6.49061 13.9789L5.20874 12.4476C4.84631 12.0172 4.79295 11.4057 5.07535 10.919L6.14246 9.07821C6.42393 8.59073 6.98113 8.33241 7.53504 8.43261L9.5092 8.78876C9.81935 8.84461 10.1393 8.78885 10.4122 8.63136L12.4237 7.47087C12.6963 7.31227 12.9045 7.06301 13.012 6.76658L13.6896 4.87913C13.8783 4.35358 14.3744 4.00121 14.9328 3.99609H17.067Z" stroke="#0C1617" stroke-width="2" stroke-linecap="round" stroke-linejoin="round"/>
<circle cx="16" cy="16.0002" r="3.66819" stroke="#0C1617" stroke-width="2" stroke-linecap="round" stroke-linejoin="round"/>
</svg>
