<svg width="36" height="36" viewBox="0 0 36 36" fill="none" xmlns="http://www.w3.org/2000/svg">
<path fill-rule="evenodd" clip-rule="evenodd" d="M19.2005 4.49437C19.8336 4.49437 20.3986 4.89191 20.6126 5.48778L21.3749 7.61117C21.4959 7.94508 21.7308 8.22563 22.0382 8.4035L24.2996 9.70904C24.6067 9.88622 24.9666 9.94896 25.3156 9.88611L27.5365 9.48545C28.1601 9.37205 28.7878 9.66275 29.1046 10.2118L30.3051 12.2826C30.6228 12.8301 30.5628 13.5181 30.1551 14.0023L28.698 15.725C28.4685 15.9959 28.3425 16.3394 28.3423 16.6945V19.3055C28.3425 19.6606 28.4685 20.0041 28.698 20.2749L30.1551 21.9977C30.5628 22.4819 30.6228 23.1699 30.3051 23.7174L29.1046 25.7882C28.788 26.3367 28.1611 26.6273 27.538 26.5145L25.3171 26.1139C24.9681 26.051 24.6082 26.1138 24.3011 26.2909L22.0397 27.5965C21.7323 27.7744 21.4974 28.0549 21.3764 28.3888L20.6141 30.5122C20.3999 31.1086 19.8342 31.5062 19.2005 31.5056H16.7995C16.1664 31.5056 15.6014 31.1081 15.3874 30.5122L14.6251 28.3888C14.5041 28.0553 14.2699 27.7749 13.9633 27.5965L11.7004 26.2909C11.3933 26.1138 11.0334 26.051 10.6845 26.1139L8.46354 26.5145C7.83989 26.6279 7.21224 26.3372 6.89539 25.7882L5.69489 23.7174C5.37718 23.1699 5.43722 22.4819 5.84495 21.9977L7.30206 20.2749C7.53155 20.0041 7.65756 19.6606 7.6577 19.3055V16.6945C7.65756 16.3394 7.53155 15.9959 7.30206 15.725L5.85996 14.0023C5.45222 13.5181 5.39219 12.8301 5.70989 12.2826L6.91039 10.2118C7.22705 9.66334 7.85389 9.37273 8.47704 9.48545L10.698 9.88611C11.0469 9.94896 11.4068 9.88622 11.7139 9.70904L13.9768 8.4035C14.2834 8.22506 14.5176 7.94465 14.6386 7.61117L15.4009 5.48778C15.6132 4.89655 16.1713 4.50012 16.7995 4.49437H19.2005Z" stroke="#009CF9" stroke-width="2" stroke-linecap="round" stroke-linejoin="round"/>
<circle cx="18" cy="18" r="4.12672" stroke="#009CF9" stroke-width="2" stroke-linecap="round" stroke-linejoin="round"/>
</svg>
