<svg width="430" height="608" viewBox="0 0 430 608" fill="none" xmlns="http://www.w3.org/2000/svg">
<g clip-path="url(#clip0_5_2)">
<path d="M428.544 513.46L427.029 512.185L426.385 512.951L425.85 512.501C425.716 512.483 425.582 512.465 425.448 512.446L425.136 512.404L425.271 511.413C424.599 511.322 423.932 511.231 423.27 511.139L423.132 512.13C422.46 512.036 421.792 511.942 421.129 511.848L421.27 510.858C420.599 510.762 419.933 510.666 419.271 510.569L419.126 511.558C418.454 511.46 417.787 511.36 417.124 511.26L417.273 510.271C416.604 510.17 415.939 510.067 415.277 509.964L415.123 510.952C414.788 510.9 414.455 510.847 414.123 510.794C413.788 510.741 413.454 510.688 413.121 510.634L413.28 509.647C412.616 509.539 411.956 509.431 411.302 509.322L411.137 510.308C410.724 510.239 410.313 510.17 409.903 510.1C409.662 510.059 409.422 510.018 409.182 509.977L409.352 508.991C408.706 508.88 408.066 508.768 407.429 508.655L407.254 509.639C406.597 509.522 405.945 509.404 405.297 509.285L405.478 508.301C404.817 508.18 404.161 508.057 403.51 507.933L403.323 508.915C402.67 508.791 402.023 508.666 401.38 508.54L401.573 507.558C400.932 507.432 400.296 507.305 399.665 507.177L399.466 508.157C398.805 508.023 398.149 507.888 397.498 507.751L397.704 506.772C397.049 506.635 396.399 506.496 395.755 506.356L395.543 507.333C394.896 507.193 394.255 507.052 393.619 506.909L393.838 505.933C393.196 505.789 392.559 505.644 391.927 505.497L391.701 506.471C391.041 506.318 390.387 506.164 389.739 506.008L389.972 505.036C389.326 504.881 388.687 504.725 388.052 504.567L387.812 505.538C387.462 505.451 387.114 505.364 386.768 505.277C386.484 505.205 386.201 505.133 385.919 505.06L386.168 504.092C385.513 503.924 384.866 503.755 384.224 503.584L383.967 504.551C383.319 504.378 382.678 504.205 382.042 504.03L382.308 503.066C381.675 502.892 381.049 502.717 380.429 502.54L380.155 503.502C379.507 503.317 378.865 503.131 378.23 502.944L378.513 501.985C377.871 501.796 377.236 501.605 376.608 501.413L376.315 502.369C375.684 502.176 375.059 501.982 374.441 501.786L374.743 500.833C374.103 500.63 373.471 500.426 372.845 500.221L372.533 501.171C371.895 500.961 371.263 500.75 370.639 500.537L370.961 499.59C370.341 499.379 369.727 499.166 369.121 498.952L368.787 499.895C368.147 499.668 367.515 499.441 366.89 499.211L367.235 498.273C366.61 498.043 365.992 497.812 365.383 497.58L365.026 498.514C364.407 498.278 363.795 498.04 363.191 497.801L363.559 496.871C362.931 496.622 362.312 496.372 361.701 496.12L361.32 497.044C360.704 496.791 360.097 496.536 359.498 496.279L359.892 495.36C359.277 495.096 358.67 494.83 358.072 494.563L357.665 495.476C357.05 495.202 356.444 494.926 355.847 494.648L356.269 493.741C355.669 493.462 355.079 493.182 354.498 492.9L354.061 493.8C353.45 493.503 352.848 493.205 352.255 492.905L352.707 492.012C352.119 491.715 351.541 491.416 350.972 491.115L350.505 491.999C349.902 491.681 349.31 491.361 348.727 491.038L349.211 490.163C348.632 489.843 348.062 489.521 347.502 489.197L347.002 490.063C346.414 489.724 345.837 489.382 345.27 489.039L345.788 488.183C345.22 487.84 344.663 487.494 344.115 487.147L343.58 487.991C343.007 487.628 342.446 487.263 341.895 486.896L342.449 486.064C341.896 485.696 341.354 485.326 340.823 484.954L340.25 485.774C339.693 485.385 339.149 484.995 338.615 484.602L339.207 483.796C338.673 483.404 338.15 483.009 337.638 482.613L337.026 483.405C336.488 482.988 335.961 482.57 335.446 482.15L336.078 481.375C335.565 480.957 335.063 480.538 334.573 480.116L333.922 480.875C333.405 480.431 332.9 479.985 332.407 479.538L333.079 478.798C332.586 478.351 332.105 477.902 331.636 477.452L330.944 478.174C330.456 477.706 329.98 477.237 329.515 476.766L330.227 476.064C329.757 475.588 329.3 475.111 328.854 474.633L328.123 475.315C327.664 474.823 327.218 474.33 326.782 473.836L327.533 473.175C327.091 472.673 326.66 472.169 326.241 471.665L325.472 472.305C325.04 471.785 324.62 471.264 324.212 470.743L324.998 470.126C324.589 469.604 324.192 469.082 323.804 468.559L323.001 469.154C322.598 468.61 322.206 468.065 321.825 467.52L322.645 466.947C322.264 466.402 321.893 465.856 321.532 465.31L320.698 465.862C320.328 465.301 319.968 464.741 319.617 464.18L320.465 463.65C320.112 463.086 319.769 462.522 319.435 461.959L318.575 462.469C318.232 461.891 317.898 461.313 317.572 460.736L318.443 460.244C318.117 459.666 317.799 459.089 317.489 458.512L316.609 458.986C316.291 458.397 315.982 457.81 315.68 457.224L316.568 456.765C316.263 456.175 315.965 455.586 315.673 454.998L314.778 455.444C314.48 454.845 314.188 454.249 313.901 453.655L314.801 453.22C314.513 452.622 314.229 452.027 313.95 451.435L313.045 451.861C312.761 451.26 312.481 450.661 312.205 450.066L313.111 449.644C312.84 449.061 312.571 448.481 312.303 447.904C312.295 447.886 312.287 447.869 312.279 447.851L311.372 448.271C311.093 447.669 310.815 447.07 310.539 446.476L311.445 446.054C311.165 445.453 310.885 444.855 310.604 444.262L309.7 444.69C309.614 444.507 309.527 444.324 309.44 444.142C309.352 444.104 309.265 444.066 309.178 444.028C309.086 443.987 308.994 443.947 308.902 443.906L309.306 442.991C308.707 442.727 308.13 442.464 307.571 442.198L307.141 443.101C306.542 442.816 305.961 442.525 305.397 442.224L305.869 441.342C305.298 441.037 304.748 440.723 304.218 440.393L303.69 441.242C303.123 440.889 302.575 440.518 302.044 440.122L302.643 439.32C302.135 438.941 301.646 438.539 301.173 438.108L300.499 438.847C300.013 438.404 299.544 437.931 299.089 437.423L299.833 436.756C299.421 436.296 299.02 435.805 298.63 435.277L297.826 435.872C297.444 435.357 297.073 434.809 296.711 434.227L297.56 433.699C297.237 433.18 296.921 432.63 296.61 432.047L295.728 432.517C295.432 431.962 295.141 431.379 294.855 430.765L295.761 430.342C295.504 429.789 295.249 429.21 294.996 428.601L294.073 428.984C293.833 428.406 293.596 427.805 293.361 427.177L294.297 426.826C294.082 426.252 293.868 425.655 293.655 425.033L292.709 425.358C292.506 424.767 292.305 424.156 292.103 423.522L293.056 423.219C292.87 422.634 292.684 422.028 292.498 421.403L291.54 421.688C291.449 421.382 291.358 421.072 291.267 420.757C291.179 420.454 291.09 420.113 291 419.74L291.972 419.505C291.833 418.93 291.689 418.26 291.542 417.507L290.561 417.699C290.438 417.072 290.314 416.39 290.188 415.661L291.174 415.491C291.064 414.856 290.954 414.182 290.844 413.476L289.855 413.63C289.753 412.978 289.651 412.298 289.549 411.594L290.539 411.451C290.445 410.798 290.351 410.123 290.257 409.431L289.266 409.564C289.177 408.901 289.088 408.222 289 407.528L289.992 407.402C289.908 406.738 289.825 406.06 289.743 405.371L288.75 405.489C288.703 405.093 288.657 404.694 288.611 404.292C288.579 404.013 288.547 403.732 288.515 403.45L289.509 403.339C289.434 402.67 289.361 401.992 289.289 401.309L288.295 401.413C288.224 400.738 288.155 400.058 288.088 399.373L289.083 399.276C289.017 398.601 288.953 397.922 288.89 397.241L287.894 397.332C287.832 396.652 287.773 395.971 287.715 395.288L288.711 395.204C288.654 394.525 288.599 393.845 288.547 393.166L287.55 393.243C287.497 392.56 287.447 391.877 287.4 391.197L288.397 391.128C288.35 390.445 288.305 389.764 288.264 389.088L287.266 389.149C287.224 388.461 287.185 387.778 287.15 387.101L288.149 387.049C288.113 386.361 288.081 385.68 288.053 385.008L287.054 385.049C287.025 384.354 287 383.668 286.98 382.992L287.979 382.962C287.958 382.268 287.942 381.585 287.932 380.917L286.932 380.933C286.92 380.23 286.915 379.543 286.915 378.873L287.915 378.874C287.916 378.173 287.923 377.492 287.938 376.835L286.938 376.813C286.954 376.092 286.978 375.397 287.012 374.733L288.011 374.784C288.048 374.067 288.095 373.388 288.155 372.752L287.159 372.659C287.192 372.3 287.23 371.953 287.271 371.618L287.315 371.259L287.58 371.011C287.793 370.811 288.006 370.601 288.217 370.38L288.939 371.072C289.364 370.629 289.782 370.149 290.193 369.638L289.413 369.012C289.785 368.55 290.152 368.058 290.515 367.541L291.334 368.116C291.69 367.608 292.041 367.078 292.385 366.53L291.538 365.998C291.862 365.482 292.181 364.949 292.495 364.399L293.363 364.896C293.674 364.352 293.98 363.794 294.28 363.225L293.395 362.758C293.684 362.212 293.967 361.654 294.245 361.088L295.143 361.529C295.421 360.962 295.694 360.388 295.961 359.809L295.053 359.39C295.315 358.822 295.571 358.248 295.822 357.671L296.739 358.07C296.993 357.488 297.241 356.903 297.483 356.317L296.558 355.935C296.799 355.352 297.034 354.768 297.264 354.185L298.194 354.551C298.428 353.956 298.656 353.362 298.878 352.772L297.942 352.42C298.166 351.824 298.384 351.232 298.595 350.646L299.536 350.985C299.754 350.379 299.966 349.78 300.17 349.192L299.225 348.864C299.335 348.545 299.444 348.229 299.55 347.916C299.647 347.631 299.741 347.349 299.835 347.07L300.783 347.386C300.99 346.766 301.188 346.161 301.376 345.575L300.425 345.269C300.52 344.972 300.613 344.681 300.704 344.395C300.804 344.077 300.902 343.766 300.997 343.462L301.951 343.759C302.151 343.119 302.337 342.51 302.509 341.94L301.552 341.651C301.647 341.337 301.737 341.035 301.823 340.746L301.824 340.744L302.108 339.799L303.066 340.087C303.257 339.45 303.444 338.828 303.626 338.219L302.669 337.932C302.86 337.295 303.046 336.673 303.229 336.065L304.186 336.352C304.377 335.715 304.563 335.093 304.745 334.485L303.787 334.199C303.977 333.563 304.162 332.942 304.342 332.334L305.301 332.619C305.49 331.982 305.674 331.36 305.854 330.75L304.895 330.467C304.973 330.203 305.05 329.94 305.127 329.68C305.234 329.315 305.34 328.953 305.445 328.595L306.405 328.876C306.59 328.241 306.771 327.618 306.949 327.003L305.988 326.726C306.092 326.366 306.195 326.009 306.296 325.654C306.373 325.388 306.448 325.122 306.524 324.858L307.485 325.131C307.665 324.499 307.842 323.874 308.015 323.253L307.052 322.984C307.227 322.356 307.4 321.733 307.57 321.11L308.535 321.374C308.706 320.747 308.876 320.121 309.044 319.492L308.078 319.233C308.245 318.611 308.41 317.985 308.575 317.354L309.542 317.607C309.705 316.983 309.868 316.355 310.03 315.717L309.061 315.47C309.219 314.851 309.377 314.225 309.536 313.587L310.506 313.829C310.661 313.209 310.816 312.579 310.973 311.935L310.002 311.698C310.153 311.079 310.305 310.448 310.46 309.803L311.432 310.036C311.58 309.418 311.729 308.787 311.881 308.141L310.908 307.912C311.053 307.295 311.199 306.665 311.349 306.019L312.323 306.244C312.466 305.626 312.611 304.993 312.759 304.345L311.784 304.122C311.925 303.504 312.069 302.872 312.215 302.223L313.19 302.443C313.33 301.824 313.472 301.19 313.617 300.541L312.641 300.323C312.779 299.703 312.92 299.07 313.064 298.421L314.04 298.637C314.177 298.016 314.317 297.381 314.46 296.732L313.483 296.517C313.62 295.895 313.759 295.26 313.9 294.61L314.877 294.823C315.014 294.199 315.152 293.562 315.294 292.911L314.316 292.699C314.451 292.078 314.588 291.445 314.728 290.798L315.705 291.009C315.839 290.388 315.976 289.755 316.115 289.11L315.137 288.899L315.345 287.931C315.426 287.555 315.519 287.196 315.624 286.854L316.58 287.147C316.799 286.43 317.07 285.805 317.377 285.26L316.505 284.77C316.917 284.037 317.391 283.426 317.898 282.918L318.606 283.624C319.133 283.096 319.695 282.701 320.247 282.404L319.773 281.523C320.135 281.329 320.491 281.172 320.833 281.045L320.841 281.042C321.173 280.922 321.487 280.793 321.784 280.656L322.203 281.564C322.915 281.235 323.546 280.862 324.109 280.454L323.523 279.644C324.089 279.234 324.581 278.786 325.018 278.31L325.755 278.987C326.266 278.43 326.707 277.841 327.099 277.238L326.261 276.692C326.646 276.101 326.986 275.488 327.309 274.863L328.197 275.322C328.412 274.908 328.616 274.494 328.816 274.088C328.94 273.838 329.062 273.59 329.185 273.347L328.292 272.897C328.463 272.557 328.638 272.217 328.82 271.886L328.827 271.874C329.003 271.565 329.163 271.265 329.311 270.972L330.204 271.421C330.546 270.743 330.823 270.094 331.051 269.458L330.11 269.12C330.344 268.469 330.525 267.832 330.67 267.185L331.646 267.405C331.801 266.716 331.919 266.021 332.019 265.298L331.028 265.161C331.12 264.499 331.197 263.81 331.277 263.067L332.272 263.174C332.285 263.055 332.298 262.934 332.311 262.813C332.371 262.251 332.435 261.664 332.508 261.046L331.514 260.929C331.594 260.256 331.685 259.543 331.796 258.781L332.786 258.926C332.884 258.26 332.997 257.557 333.132 256.811L332.149 256.633C332.271 255.958 332.411 255.249 332.574 254.5L333.551 254.712C333.694 254.051 333.855 253.359 334.037 252.632L333.067 252.39C333.234 251.72 333.419 251.022 333.623 250.293L334.586 250.563C334.77 249.904 334.971 249.22 335.19 248.508L334.234 248.215C334.438 247.551 334.657 246.864 334.893 246.152L335.842 246.467C336.058 245.815 336.289 245.143 336.534 244.448L335.592 244.114C335.711 243.777 335.834 243.435 335.96 243.087L335.967 243.069L335.974 243.051C336.104 242.732 336.233 242.413 336.36 242.093L337.289 242.463C337.546 241.816 337.796 241.169 338.039 240.522L337.103 240.17C337.345 239.525 337.581 238.879 337.809 238.234L338.752 238.568C338.984 237.911 339.209 237.255 339.427 236.6L338.479 236.284C338.697 235.629 338.908 234.975 339.111 234.323L340.066 234.62C340.273 233.955 340.473 233.29 340.666 232.629L339.705 232.349C339.898 231.686 340.084 231.024 340.261 230.365L341.227 230.626C341.408 229.951 341.582 229.28 341.748 228.612L340.777 228.371C340.944 227.7 341.102 227.032 341.252 226.368L342.227 226.588C342.381 225.906 342.527 225.228 342.664 224.556L341.684 224.356C341.822 223.678 341.951 223.004 342.071 222.337L343.055 222.514C343.18 221.823 343.295 221.138 343.4 220.46L342.412 220.307C342.519 219.62 342.616 218.941 342.703 218.271L343.694 218.399C343.785 217.702 343.865 217.012 343.934 216.333L342.939 216.231C343.009 215.54 343.069 214.86 343.117 214.191L344.114 214.262C344.165 213.558 344.203 212.866 344.229 212.187L343.23 212.148C343.257 211.451 343.271 210.769 343.272 210.102L344.272 210.103C344.273 209.394 344.259 208.702 344.231 208.027L343.232 208.069C343.203 207.371 343.158 206.694 343.098 206.04L344.094 205.948C344.028 205.237 343.944 204.55 343.841 203.888L342.853 204.041C342.747 203.351 342.62 202.694 342.473 202.071L343.447 201.842C343.281 201.136 343.09 200.469 342.873 199.843L341.928 200.169C341.703 199.518 341.452 198.922 341.176 198.384L342.066 197.928C341.732 197.276 341.36 196.691 340.949 196.179L340.169 196.805C339.977 196.566 339.778 196.347 339.572 196.15C339.375 195.975 339.183 195.816 338.996 195.673L339.605 194.88C339.112 194.502 338.642 194.212 338.194 193.995L337.759 194.895C337.286 194.667 336.858 194.543 336.468 194.487L336.609 193.497C336.018 193.413 335.466 193.449 334.949 193.558L335.157 194.537C334.7 194.634 334.257 194.805 333.807 195.018L333.379 194.114C333.053 194.268 332.741 194.434 332.44 194.594C332.254 194.693 332.073 194.789 331.895 194.879L332.347 195.771C332.073 195.91 331.783 196.046 331.487 196.155C331.12 196.296 330.497 196.405 329.981 195.939C329.56 195.56 329.489 195.017 329.472 194.712L330.47 194.654C330.442 194.173 330.557 193.431 330.763 192.485L329.786 192.273C329.926 191.628 330.106 190.898 330.308 190.106L331.277 190.353C331.388 189.918 331.506 189.46 331.63 188.984C331.694 188.737 331.759 188.486 331.825 188.229L330.857 187.979C330.946 187.636 331.036 187.284 331.127 186.925C331.206 186.601 331.283 186.279 331.36 185.957L332.333 186.188C332.488 185.533 332.638 184.881 332.784 184.233L331.808 184.014C331.955 183.361 332.096 182.712 332.233 182.065L333.211 182.273C333.351 181.615 333.485 180.96 333.615 180.308L332.635 180.112C332.765 179.457 332.891 178.804 333.013 178.154L333.996 178.338C334.119 177.678 334.238 177.02 334.353 176.364L333.368 176.191C333.483 175.534 333.594 174.878 333.701 174.225L334.688 174.386C334.796 173.723 334.9 173.063 335 172.404L334.011 172.254C334.111 171.594 334.208 170.936 334.3 170.28L335.291 170.419C335.384 169.756 335.474 169.093 335.56 168.432L334.569 168.302C334.655 167.641 334.738 166.98 334.818 166.321L335.811 166.441C335.891 165.776 335.968 165.111 336.042 164.448L335.048 164.337C335.122 163.674 335.192 163.012 335.26 162.351L336.255 162.453C336.323 161.787 336.389 161.121 336.452 160.456L335.456 160.362C335.519 159.698 335.579 159.035 335.637 158.371L336.633 158.458C336.692 157.792 336.747 157.126 336.801 156.459L335.804 156.379C335.821 156.168 335.838 155.956 335.855 155.745C335.89 155.292 335.925 154.838 335.959 154.384L336.956 154.459C337.006 153.792 337.054 153.125 337.1 152.457L336.103 152.388C336.149 151.723 336.194 151.058 336.237 150.391L337.235 150.455C337.278 149.789 337.32 149.122 337.361 148.453L336.363 148.392C336.404 147.727 336.444 147.06 336.483 146.392L337.481 146.45C337.52 145.784 337.558 145.117 337.596 144.447L336.598 144.391C336.635 143.726 336.672 143.059 336.709 142.39L337.707 142.444C337.744 141.779 337.78 141.111 337.817 140.441L336.818 140.387L336.926 138.384L337.925 138.438C337.961 137.773 337.997 137.106 338.034 136.435L337.035 136.38C337.056 136.003 337.076 135.625 337.097 135.246C337.113 134.956 337.129 134.667 337.146 134.376L338.144 134.432C338.181 133.767 338.219 133.1 338.257 132.429L337.259 132.371C337.285 131.929 337.31 131.485 337.337 131.039C337.35 130.815 337.363 130.591 337.377 130.366L338.375 130.426C338.415 129.762 338.455 129.095 338.497 128.424L337.499 128.361C337.52 128.027 337.542 127.692 337.563 127.356C337.584 127.032 337.604 126.708 337.623 126.385L338.621 126.444C338.66 125.792 338.695 125.142 338.727 124.495L337.729 124.445C337.761 123.796 337.79 123.149 337.816 122.505L338.815 122.545C338.842 121.891 338.865 121.24 338.885 120.593L337.885 120.562C337.906 119.911 337.923 119.263 337.937 118.619L338.936 118.64C338.951 117.986 338.962 117.335 338.97 116.689L337.97 116.676C337.978 116.025 337.982 115.378 337.984 114.734L338.984 114.737C338.986 114.081 338.984 113.43 338.98 112.783L337.98 112.79C337.975 112.138 337.968 111.49 337.957 110.847L338.957 110.831C338.946 110.175 338.931 109.525 338.914 108.88L337.914 108.907C337.897 108.254 337.876 107.606 337.852 106.964L338.852 106.927C338.827 106.27 338.8 105.62 338.769 104.976L337.77 105.024C337.739 104.371 337.704 103.725 337.667 103.086L338.665 103.027C338.626 102.369 338.584 101.719 338.539 101.077L337.542 101.148C337.496 100.495 337.446 99.8503 337.394 99.2149L338.39 99.1326C338.336 98.474 338.278 97.8248 338.217 97.1854L337.222 97.2805C337.159 96.6274 337.094 95.9848 337.024 95.3533L338.018 95.2445C337.946 94.5859 337.871 93.9389 337.792 93.3043L336.799 93.4279C336.718 92.7741 336.633 92.1338 336.545 91.5076L337.535 91.3678C337.442 90.7092 337.345 90.0658 337.245 89.4382L336.257 89.5961C336.153 88.9439 336.045 88.3095 335.933 87.6938L336.917 87.5153C336.797 86.8554 336.673 86.2162 336.546 85.5986L335.566 85.8011C335.518 85.5647 335.468 85.3317 335.418 85.102C335.229 84.8537 335.062 84.5555 334.913 84.2581L335.808 83.8108C335.573 83.3419 335.312 82.7155 335.028 81.9555L334.091 82.3064C333.875 81.7305 333.648 81.0837 333.409 80.3774L334.356 80.057C334.155 79.4637 333.946 78.8246 333.727 78.1459L332.775 78.4519C332.578 77.8389 332.375 77.1943 332.165 76.5229L333.119 76.2245C332.926 75.6066 332.727 74.965 332.523 74.3032L331.568 74.5977C331.375 73.9727 331.178 73.3297 330.976 72.6721L331.932 72.3791C331.868 72.1684 331.803 71.9562 331.737 71.7424C331.608 71.3193 331.476 70.8904 331.343 70.4566L330.387 70.7499C330.193 70.1179 329.996 69.4756 329.795 68.8251L330.751 68.5303C330.556 67.8975 330.357 67.2568 330.156 66.6103L329.201 66.908C329.003 66.2742 328.803 65.635 328.6 64.9924L329.553 64.6909C329.352 64.0546 329.148 63.4148 328.942 62.7732L327.99 63.0796C327.785 62.4445 327.579 61.808 327.369 61.1719L328.319 60.8596C328.11 60.2224 327.898 59.5854 327.684 58.9503L326.736 59.2697C326.523 58.635 326.306 58.0025 326.088 57.3741L327.033 57.0463C326.812 56.4095 326.589 55.7767 326.364 55.1497L325.423 55.4876C325.195 54.8545 324.966 54.2278 324.736 53.6093L325.672 53.2596C325.435 52.6235 325.196 51.9957 324.954 51.3784L324.023 51.7423C323.777 51.1139 323.53 50.4971 323.282 49.894L324.206 49.513C323.945 48.8799 323.683 48.2613 323.418 47.6596L322.503 48.0617C322.369 47.7564 322.234 47.4558 322.1 47.1602L322.099 47.1583C321.967 46.8682 321.833 46.5813 321.694 46.2977L322.593 45.8596C322.307 45.2722 322.007 44.6979 321.693 44.1365L320.82 44.6241C320.511 44.0706 320.189 43.53 319.854 43.0018L320.699 42.4664C320.35 41.9157 319.987 41.3782 319.613 40.8534L318.799 41.4344C318.431 40.9186 318.05 40.4152 317.658 39.924L318.439 39.2999C318.033 38.7911 317.614 38.2951 317.185 37.8116L316.437 38.4756C316.017 38.0021 315.585 37.5406 315.143 37.0906L315.857 36.3898C315.401 35.9262 314.935 35.4748 314.46 35.0352L313.781 35.7693C313.316 35.339 312.841 34.9199 312.357 34.5116L313.002 33.7473C312.505 33.3287 312 32.9214 311.488 32.5252L310.876 33.3166C310.373 32.9282 309.863 32.5504 309.345 32.1827L309.924 31.3673C309.394 30.9915 308.858 30.6263 308.316 30.2713L307.768 31.108C307.235 30.7591 306.696 30.42 306.151 30.0903L306.669 29.2348C306.114 28.8985 305.553 28.572 304.988 28.2548L304.498 29.1268C303.941 28.8139 303.379 28.51 302.814 28.2147L303.276 27.3283C302.7 27.0274 302.12 26.7355 301.538 26.4521L301.101 27.3512C300.524 27.0704 299.944 26.7979 299.363 26.5332L299.777 25.6231C299.185 25.3534 298.591 25.0919 297.996 24.8381L297.603 25.7578C297.011 25.5051 296.418 25.2599 295.825 25.0219L296.197 24.0939C295.592 23.8509 294.987 23.6155 294.384 23.3871L294.03 24.3224C293.425 24.0934 292.821 23.8715 292.22 23.656L292.557 22.7146C291.941 22.494 291.329 22.2803 290.719 22.0729L290.397 23.0196C289.782 22.8101 289.17 22.6069 288.563 22.4096L288.873 21.4586C288.249 21.2557 287.63 21.059 287.018 20.8679L286.72 21.8225C286.095 21.6275 285.478 21.4383 284.868 21.2542L285.157 20.2969C284.525 20.1063 283.903 19.9213 283.291 19.741L283.008 20.7003C282.375 20.514 281.753 20.3327 281.143 20.1555L281.422 19.1952C281.112 19.1053 280.806 19.0164 280.503 18.9286C280.182 18.8358 279.866 18.744 279.554 18.6533L279.275 19.6136C278.635 19.4278 278.011 19.2457 277.406 19.0666L277.69 18.1078C277.045 17.9167 276.422 17.7293 275.824 17.544L275.528 18.4992C274.873 18.2962 274.245 18.095 273.648 17.8941L273.967 16.9464C273.317 16.7272 272.706 16.5092 272.141 16.29L271.78 17.2223C271.459 17.098 271.151 16.9726 270.855 16.8455L270.851 16.8435L270.432 16.6687L269.927 16.4573L270.313 15.5349C269.81 15.3243 269.305 15.1125 268.797 14.8996C268.677 14.8494 268.557 14.7991 268.437 14.7487L268.05 15.671C267.429 15.4104 266.803 15.1485 266.175 14.8857L266.56 13.9631C265.94 13.7036 265.315 13.4431 264.687 13.1822L264.303 14.1056C263.682 13.8474 263.057 13.5888 262.429 13.3302L262.81 12.4055C262.186 12.1487 261.558 11.8918 260.927 11.6354L260.551 12.5618C259.927 12.3081 259.299 12.0549 258.669 11.8026L259.04 10.8742C258.415 10.6239 257.786 10.3744 257.154 10.1261L256.788 11.057C256.162 10.8112 255.533 10.5667 254.901 10.324L255.26 9.39045C254.629 9.14825 253.995 8.90767 253.358 8.66911L253.007 9.60561C252.377 9.36978 251.745 9.136 251.109 8.90464L251.451 7.96491C250.817 7.73417 250.179 7.50579 249.539 7.28014L249.207 8.2233C248.573 7.99995 247.936 7.77934 247.296 7.56185L247.618 6.61508C246.978 6.39739 246.335 6.18277 245.688 5.97158L245.378 6.92213C244.74 6.71371 244.099 6.5087 243.456 6.30746L243.754 5.35304C243.109 5.15141 242.461 4.95351 241.811 4.75968L241.525 5.71807C240.882 5.52635 240.235 5.33869 239.586 5.15544L239.858 4.19305C239.207 4.00944 238.554 3.83019 237.898 3.65565L237.641 4.62205C236.993 4.44974 236.342 4.28208 235.689 4.11942L235.931 3.14905C235.275 2.98568 234.616 2.82727 233.954 2.67417L233.729 3.64843C233.075 3.49729 232.419 3.35139 231.761 3.21106L231.969 2.23302C231.309 2.09229 230.645 1.95709 229.979 1.82775L229.789 2.80941C229.131 2.68172 228.471 2.55982 227.808 2.44402L227.98 1.45894C227.314 1.34253 226.645 1.23221 225.973 1.1283L225.821 2.11655C225.16 2.01436 224.497 1.91846 223.831 1.82915L223.964 0.838032C223.294 0.748179 222.622 0.664917 221.947 0.588559L221.835 1.58222C221.17 1.50698 220.502 1.43853 219.832 1.37716L219.923 0.381329C219.251 0.319807 218.577 0.26532 217.9 0.21817L217.831 1.21575C217.164 1.16933 216.495 1.1301 215.824 1.09835L215.871 0.0994674C215.196 0.0675405 214.518 0.0430985 213.838 0.0264336L213.813 1.02613C213.147 1.00981 212.478 1.00104 211.807 1.00009L211.809 8.76082e-05C211.134 -0.000869278 210.456 0.00600673 209.776 0.0209952L209.798 1.02075C209.131 1.03546 208.461 1.05806 207.789 1.08883L207.743 0.0898814C207.07 0.120699 206.395 0.159615 205.718 0.206894L205.787 1.20447C205.121 1.25092 204.453 1.30555 203.783 1.3686L203.689 0.37299C203.019 0.436093 202.345 0.507538 201.67 0.587576L201.788 1.58063C201.127 1.65895 200.464 1.7456 199.798 1.84082L199.657 0.850911C198.987 0.946702 198.316 1.05106 197.642 1.16423L197.808 2.15042C197.154 2.26035 196.497 2.37871 195.839 2.50571L195.649 1.5238C194.987 1.6515 194.323 1.78783 193.656 1.93302L193.869 2.9101C193.219 3.05178 192.567 3.202 191.912 3.36098L191.676 2.38925C191.023 2.54802 190.367 2.71541 189.71 2.89164L189.969 3.85753C189.324 4.03044 188.677 4.21197 188.028 4.40231L187.746 3.44273C187.103 3.63142 186.458 3.82865 185.811 4.03463L186.114 4.9875C185.478 5.19005 184.84 5.40117 184.2 5.62105L183.875 4.67531C183.241 4.89324 182.605 5.11966 181.967 5.35474L182.313 6.29304C181.687 6.52354 181.06 6.76249 180.431 7.01006L180.065 6.07956C179.44 6.32571 178.813 6.58027 178.184 6.8434L178.57 7.76585C178.259 7.89604 177.948 8.02835 177.636 8.16282L177.635 8.1631C177.321 8.29826 177.005 8.43106 176.688 8.56172L176.307 7.63694C175.686 7.89263 175.057 8.14035 174.421 8.38175L174.775 9.3167C174.14 9.55791 173.498 9.79259 172.85 10.0223L172.516 9.0798C171.883 9.30394 171.244 9.52364 170.599 9.74043L170.917 10.6884C170.277 10.9033 169.632 11.1151 168.981 11.3253L168.674 10.3737C168.036 10.5797 167.392 10.7843 166.742 10.989L167.043 11.9428C166.402 12.1447 165.756 12.3466 165.105 12.5495L164.807 11.5949C164.646 11.6453 164.484 11.6959 164.321 11.7465C163.841 11.8962 163.358 12.0468 162.872 12.1989L163.17 13.1533C162.531 13.3532 161.888 13.5554 161.24 13.7612L160.938 12.8081C160.299 13.011 159.655 13.2175 159.007 13.4288L159.317 14.3796C158.683 14.5863 158.044 14.7974 157.402 15.0141L157.082 14.0665C156.447 14.2806 155.808 14.5002 155.165 14.7262L155.496 15.6697C154.869 15.8903 154.237 16.117 153.602 16.3508L153.257 15.4124C152.628 15.6438 151.996 15.8822 151.36 16.1285L151.721 17.061C151.102 17.3008 150.48 17.5481 149.854 17.8037L149.476 16.878C148.856 17.1313 148.233 17.3928 147.607 17.6632L148.004 18.5813C147.395 18.8441 146.784 19.1154 146.17 19.396L145.754 18.4865C145.145 18.7647 144.533 19.0521 143.919 19.3493L144.354 20.2496C143.758 20.5379 143.159 20.8356 142.558 21.1433L142.102 20.253C141.506 20.5582 140.907 20.8732 140.306 21.1986L140.782 22.078C140.2 22.393 139.616 22.7177 139.029 23.053L138.533 22.1849C137.953 22.5163 137.372 22.8578 136.788 23.2101L137.304 24.0663C136.739 24.4073 136.172 24.7585 135.603 25.1205L135.066 24.2766C134.502 24.6353 133.936 25.0044 133.368 25.3844L133.924 26.2155C133.374 26.5837 132.822 26.9622 132.269 27.3515L131.693 26.5336C131.146 26.9187 130.596 27.3144 130.046 27.7209L130.64 28.5255C130.109 28.9168 129.578 29.3183 129.045 29.7305L128.433 28.9394C127.905 29.348 127.375 29.7669 126.844 30.1965L127.473 30.974C126.957 31.391 126.44 31.8182 125.922 32.2561L125.277 31.4924C124.767 31.9234 124.255 32.3646 123.743 32.8163L124.404 33.5665C123.909 34.0028 123.413 34.4491 122.916 34.9056L122.24 34.169C121.746 34.6221 121.251 35.0852 120.756 35.5586L121.447 36.2817C120.968 36.739 120.488 37.206 120.007 37.683L119.303 36.9731C118.83 37.4425 118.356 37.9215 117.881 38.4102L118.598 39.107C118.135 39.5845 117.67 40.0714 117.204 40.568L116.475 39.8841C116.019 40.3701 115.563 40.8652 115.106 41.3697L115.847 42.041C115.621 42.2912 115.394 42.5437 115.167 42.7986L115.165 42.8011C114.921 43.0728 114.67 43.3252 114.411 43.5608L113.738 42.8216C113.25 43.2659 112.734 43.6438 112.192 43.9774L112.716 44.8292C112.125 45.1924 111.513 45.5021 110.889 45.7826L110.479 44.8704C109.905 45.1284 109.307 45.3657 108.688 45.6025L109.045 46.5365C108.764 46.6438 108.496 46.7446 108.227 46.8458C107.907 46.9662 107.585 47.0872 107.239 47.2203L106.88 46.2869C106.299 46.5106 105.701 46.7484 105.089 47.0143L105.488 47.9315C104.935 48.1717 104.373 48.4341 103.801 48.7295L103.342 47.8411C102.791 48.1256 102.231 48.4405 101.66 48.7946L102.188 49.6441C101.684 49.9569 101.173 50.3018 100.653 50.6855L100.059 49.8812C99.5621 50.2484 99.059 50.6495 98.5499 51.0898L99.2041 51.8462C98.755 52.2345 98.3002 52.6555 97.84 53.1133L97.1348 52.4043C96.6966 52.8401 96.2545 53.3074 95.8087 53.8093L96.5563 54.4734C96.1559 54.9242 95.7516 55.4048 95.3436 55.9177L94.561 55.2952C94.1741 55.7816 93.7846 56.2956 93.3928 56.8391L94.2039 57.4239C93.849 57.9163 93.4915 58.4342 93.1316 58.9793L92.297 58.4283C91.9535 58.9486 91.6084 59.4925 91.2616 60.0613L92.1155 60.5818C91.7954 61.1068 91.4737 61.6539 91.1503 62.2244L90.2804 61.7313C89.971 62.2771 89.6604 62.8435 89.3487 63.4312L90.2322 63.8997C89.9438 64.4436 89.6542 65.0065 89.3635 65.5892L88.4687 65.1428C88.1893 65.7029 87.9091 66.2806 87.6281 66.8767L88.5326 67.3031C88.3957 67.5935 88.2586 67.8884 88.1212 68.1879L88.1156 68.2001C87.9729 68.5004 87.8319 68.7993 87.6926 69.097L86.7869 68.6733C86.5047 69.2764 86.2293 69.8745 85.9606 70.4675L86.8715 70.8802C86.5986 71.4825 86.3327 72.0794 86.0737 72.6713L85.1576 72.2703C84.8897 72.8824 84.6291 73.4892 84.3755 74.0908L85.297 74.4791C85.0394 75.0903 84.7893 75.696 84.5464 76.2964L83.6194 75.9214C83.369 76.5402 83.1263 77.1535 82.891 77.7617L83.8236 78.1225C83.5848 78.7399 83.3537 79.3516 83.1302 79.9581L82.1919 79.6123C81.9613 80.2383 81.7386 80.8587 81.5237 81.4739L82.4678 81.8036C82.2498 82.4278 82.04 83.0463 81.8381 83.6594L80.8882 83.3467C80.6796 83.9802 80.4794 84.6082 80.2873 85.2309L81.2429 85.5257C81.0482 86.1568 80.862 86.7822 80.6841 87.4023L79.7229 87.1266C79.539 87.7676 79.3638 88.4031 79.1971 89.0334L80.1638 89.2892C79.9952 89.9268 79.8353 90.5589 79.6839 91.1858L78.7118 90.9511C78.5554 91.599 78.408 92.2415 78.2692 92.8791L79.2463 93.0918C79.1063 93.735 78.9752 94.3731 78.8528 95.0063L77.871 94.8165C77.7447 95.4701 77.6275 96.1186 77.519 96.7626L78.5051 96.9287C78.396 97.5764 78.296 98.2194 78.2046 98.858L77.2146 98.7163C77.1205 99.3741 77.0354 100.027 76.9591 100.677L77.9523 100.793C77.8757 101.445 77.808 102.092 77.7489 102.735L76.7531 102.644C76.6923 103.305 76.6404 103.962 76.5971 104.617L77.5949 104.683C77.5516 105.336 77.5169 105.986 77.4905 106.633L76.4913 106.592C76.4642 107.254 76.4457 107.913 76.4352 108.569L77.4351 108.585C77.4246 109.239 77.4223 109.89 77.4277 110.539L76.4277 110.547C76.4332 111.208 76.4466 111.867 76.4674 112.524L77.4669 112.493C77.4876 113.145 77.5157 113.796 77.5509 114.447L76.5523 114.501C76.5879 115.16 76.6306 115.817 76.6801 116.475L77.6772 116.4C77.7261 117.05 77.7817 117.701 77.8434 118.351L76.8479 118.446C76.9101 119.101 76.9786 119.757 77.0528 120.413L78.0465 120.301C78.1198 120.949 78.1988 121.598 78.2832 122.248L77.2915 122.377C77.3754 123.024 77.4646 123.672 77.5585 124.322L77.6531 124.317L77.6534 124.323L78.5502 124.193C78.597 124.517 78.6451 124.841 78.6943 125.166L78.8594 126.257L77.9201 126.306C77.9202 126.308 77.9202 126.31 77.9202 126.312L77.758 126.314H77.7555L77.5591 126.325L77.5586 126.317L77.16 126.322L77.1612 126.346L76.9622 126.356L76.9606 126.325H76.9203C76.9265 126.811 76.9361 127.471 76.9507 128.283L77.9505 128.265C77.9608 128.839 77.9735 129.489 77.9893 130.209L76.9895 130.231C77.0028 130.84 77.0183 131.499 77.0362 132.203L78.0359 132.178C78.0516 132.792 78.0691 133.441 78.0888 134.121L77.0892 134.15C77.1073 134.776 77.1271 135.428 77.1489 136.105L78.1484 136.072C78.1688 136.703 78.1908 137.355 78.2147 138.026L77.2153 138.061C77.2379 138.697 77.2622 139.351 77.2882 140.019L78.2875 139.98C78.3123 140.618 78.3388 141.271 78.3669 141.936L77.3678 141.978C77.395 142.62 77.4238 143.273 77.4542 143.937L78.4531 143.891C78.4824 144.53 78.5133 145.18 78.5458 145.837L77.547 145.887C77.5787 146.529 77.612 147.18 77.647 147.839L78.6456 147.786C78.6797 148.429 78.7155 149.08 78.7529 149.736L77.7545 149.793C77.7913 150.44 77.8297 151.092 77.8697 151.749L78.8679 151.689C78.9073 152.335 78.9483 152.986 78.9909 153.641L77.9931 153.706C78.0352 154.353 78.0789 155.003 78.1243 155.656L79.1219 155.587C79.1669 156.233 79.2135 156.882 79.2618 157.534L78.2646 157.608C78.3128 158.257 78.3626 158.908 78.4143 159.56L79.4112 159.481C79.4624 160.129 79.5155 160.778 79.5703 161.427L78.5739 161.512C78.6287 162.161 78.6854 162.811 78.7439 163.461L79.7399 163.371C79.7983 164.02 79.8586 164.668 79.9208 165.315L78.9254 165.411C78.9879 166.062 79.0524 166.711 79.119 167.359L80.1137 167.257C80.1803 167.905 80.2489 168.551 80.3195 169.194L79.3255 169.303C79.3971 169.955 79.4708 170.604 79.5467 171.249L80.5399 171.132C80.6163 171.782 80.695 172.428 80.7759 173.069L79.7838 173.194C79.8662 173.846 79.9509 174.494 80.0381 175.135L81.029 175.001C81.1171 175.649 81.2076 176.291 81.3007 176.926L80.3112 177.071C80.4066 177.722 80.5047 178.366 80.6055 179.001L81.5931 178.844C81.6963 179.494 81.8023 180.136 81.9112 180.766L80.9258 180.936C81.0387 181.591 81.1548 182.234 81.2742 182.866L82.2568 182.68C82.3792 183.328 82.5049 183.963 82.6342 184.584L81.6551 184.788C81.7911 185.441 81.931 186.079 82.0748 186.701L83.0491 186.475C83.1214 186.788 83.1948 187.096 83.2691 187.4C83.3585 187.76 83.447 188.114 83.5339 188.459L82.5642 188.703C82.6315 188.97 82.6978 189.232 82.7627 189.489C82.8805 189.954 82.9935 190.401 83.0995 190.826L84.0698 190.585C84.267 191.377 84.4427 192.106 84.5796 192.75L83.6014 192.958C83.802 193.901 83.914 194.642 83.8868 195.124L84.8852 195.18C84.868 195.487 84.7997 196.02 84.396 196.401C83.887 196.882 83.2583 196.785 82.8831 196.644C82.5953 196.537 82.3062 196.408 82.0294 196.28L82.4501 195.373C82.3497 195.326 82.2477 195.278 82.1441 195.23C81.752 195.045 81.3358 194.849 80.8929 194.678L80.5319 195.61C80.0687 195.431 79.6015 195.292 79.117 195.227L79.2498 194.236C78.7177 194.165 78.1527 194.165 77.5518 194.278L77.736 195.261C77.3232 195.338 76.8769 195.483 76.3934 195.725L75.9461 194.83C75.4864 195.06 75.0082 195.361 74.5104 195.745L75.1214 196.536C74.9294 196.685 74.7324 196.848 74.5303 197.028C74.3264 197.223 74.1321 197.436 73.9477 197.669L73.1642 197.047C72.7586 197.559 72.4022 198.14 72.0931 198.786L72.9953 199.218C72.7407 199.75 72.5177 200.339 72.3271 200.984L71.3681 200.7C71.1833 201.325 71.0296 201.991 70.9058 202.695L71.8907 202.868C71.7823 203.485 71.6974 204.135 71.6359 204.819L70.64 204.729C70.5809 205.386 70.5429 206.068 70.5254 206.774L71.5251 206.799C71.5092 207.442 71.5107 208.108 71.5295 208.795L70.5298 208.822C70.548 209.487 70.5818 210.17 70.631 210.869L71.6285 210.798C71.6746 211.453 71.7344 212.123 71.8076 212.808L70.8133 212.914C70.8843 213.578 70.9677 214.255 71.0632 214.943L72.0537 214.806C72.1446 215.461 72.2466 216.127 72.3595 216.804L71.3731 216.969C71.4838 217.632 71.6048 218.305 71.7358 218.987L72.7178 218.798C72.8436 219.453 72.9788 220.116 73.1232 220.787L72.1456 220.998C72.2874 221.657 72.4379 222.323 72.5968 222.995L73.57 222.765C73.7239 223.416 73.8858 224.073 74.0555 224.735L73.0868 224.983C73.2546 225.638 73.43 226.298 73.6127 226.963L74.5769 226.698C74.7548 227.346 74.9398 227.998 75.1317 228.654L74.1719 228.934C74.3621 229.585 74.559 230.239 74.7625 230.897L75.7178 230.601C75.9167 231.244 76.122 231.891 76.3335 232.54L75.3826 232.85C75.5927 233.495 75.8088 234.143 76.0308 234.794L76.9772 234.471C77.1951 235.109 77.4187 235.75 77.6479 236.393L76.706 236.729C76.9343 237.369 77.168 238.011 77.4071 238.654L78.3445 238.306C78.5799 238.94 78.8205 239.574 79.0661 240.21L78.1333 240.571C78.3786 241.206 78.6289 241.841 78.8841 242.477L79.8122 242.105C79.9386 242.42 80.0661 242.735 80.1948 243.051L80.2018 243.068L80.2081 243.085C80.3226 243.398 80.4339 243.707 80.5421 244.013L79.5994 244.346C79.8199 244.969 80.0271 245.577 80.2222 246.17L81.1721 245.857C81.3811 246.492 81.5763 247.111 81.7589 247.714L80.8018 248.004C80.9938 248.639 81.1717 249.255 81.3367 249.856L82.3009 249.591C82.4798 250.241 82.6439 250.873 82.7949 251.487L81.8239 251.726C81.9822 252.37 82.1259 252.993 82.257 253.599L83.2344 253.387C83.3778 254.049 83.5063 254.689 83.6227 255.309L82.6398 255.493C82.7624 256.147 82.8713 256.778 82.9697 257.389L83.957 257.23C84.064 257.896 84.1586 258.538 84.2446 259.157L83.2541 259.295C83.3456 259.954 83.4276 260.591 83.5049 261.208L84.4971 261.083C84.5343 261.381 84.5694 261.664 84.6037 261.943C84.6474 262.297 84.6899 262.642 84.7343 262.996L83.7421 263.12C83.8244 263.776 83.9073 264.411 83.9979 265.031L84.9874 264.887C85.0806 265.524 85.1812 266.141 85.2972 266.745L84.3151 266.933C84.437 267.568 84.576 268.192 84.7407 268.813L85.7072 268.556C85.8637 269.146 86.0437 269.729 86.255 270.313L85.3148 270.653C85.528 271.242 85.7722 271.833 86.0546 272.431L86.959 272.005C87.2104 272.537 87.4945 273.078 87.8172 273.631L86.9537 274.135C87.2641 274.667 87.6081 275.208 87.9902 275.762L88.8134 275.194C88.9859 275.444 89.1668 275.697 89.3566 275.954C89.6048 276.29 89.8507 276.609 90.0946 276.911L89.3159 277.539C89.8748 278.232 90.4278 278.85 90.9812 279.402L91.6874 278.694C92.2809 279.285 92.8705 279.794 93.4646 280.236L92.8678 281.038C93.5594 281.553 94.2619 281.986 94.9864 282.359L95.4443 281.47C95.7885 281.648 96.1392 281.811 96.498 281.963C96.7509 282.063 97.0252 282.155 97.3427 282.261L97.0255 283.21C97.6034 283.403 98.2153 283.608 98.8103 283.924L99.2789 283.04C99.8938 283.367 100.51 283.804 101.069 284.434L100.322 285.098C100.7 285.524 101.045 286.053 101.339 286.722L102.255 286.321C102.391 286.633 102.517 286.967 102.629 287.327L102.634 287.343L102.639 287.359C102.73 287.69 102.82 288.018 102.91 288.343L101.946 288.609C102.127 289.264 102.304 289.909 102.477 290.543L103.442 290.278C103.622 290.936 103.799 291.583 103.972 292.219L103.007 292.482C103.188 293.143 103.364 293.792 103.537 294.43L104.502 294.168C104.682 294.829 104.857 295.477 105.029 296.114L104.064 296.375C104.242 297.035 104.417 297.682 104.588 298.318L105.554 298.058C105.656 298.436 105.756 298.81 105.856 299.18C105.93 299.456 106.003 299.729 106.076 300.001L105.111 300.26C105.288 300.92 105.462 301.568 105.632 302.203L106.598 301.943C106.776 302.604 106.95 303.251 107.12 303.886L106.154 304.146C106.332 304.807 106.506 305.454 106.678 306.089L107.643 305.829C107.821 306.49 107.996 307.137 108.168 307.771L107.203 308.032C107.382 308.693 107.558 309.34 107.732 309.974L108.696 309.71C108.877 310.369 109.054 311.014 109.23 311.647L108.266 311.914C108.448 312.572 108.629 313.216 108.807 313.849L109.77 313.578C109.954 314.233 110.137 314.875 110.319 315.506L109.359 315.783C109.548 316.439 109.736 317.083 109.924 317.717L110.883 317.433C111.076 318.082 111.268 318.721 111.461 319.35L110.505 319.644C110.704 320.292 110.903 320.93 111.104 321.562L112.057 321.259C112.262 321.9 112.468 322.534 112.676 323.162L111.727 323.477C111.94 324.117 112.155 324.751 112.374 325.382L113.319 325.054C113.538 325.684 113.761 326.31 113.988 326.936L113.049 327.278C113.278 327.906 113.511 328.534 113.752 329.163L114.686 328.807C114.922 329.425 115.164 330.045 115.413 330.669L114.484 331.039C114.73 331.655 114.982 332.275 115.243 332.9L116.166 332.516C116.419 333.122 116.679 333.735 116.948 334.355L116.03 334.752C116.293 335.359 116.564 335.973 116.844 336.597L117.756 336.187C118.024 336.784 118.3 337.389 118.585 338.004L117.678 338.424C117.954 339.021 118.239 339.627 118.533 340.244L119.436 339.813C119.579 340.114 119.724 340.417 119.872 340.723C120.014 341.018 120.157 341.329 120.299 341.654L119.383 342.055C119.631 342.621 119.882 343.236 120.136 343.892L121.068 343.531C121.3 344.129 121.534 344.759 121.77 345.415L120.83 345.754C121.047 346.356 121.267 346.982 121.491 347.628L122.436 347.301C122.648 347.913 122.864 348.543 123.083 349.186L122.137 349.509C122.255 349.857 122.375 350.208 122.496 350.564C122.589 350.837 122.682 351.112 122.777 351.389L123.723 351.067C123.934 351.685 124.148 352.311 124.365 352.942L123.42 353.268C123.634 353.889 123.852 354.516 124.074 355.145L125.017 354.813C125.235 355.431 125.457 356.051 125.684 356.672L124.744 357.015C124.971 357.636 125.202 358.257 125.438 358.877L126.373 358.52C126.607 359.135 126.846 359.747 127.09 360.354L126.162 360.727C126.41 361.344 126.664 361.957 126.923 362.562L127.842 362.169C128.101 362.774 128.366 363.371 128.637 363.957L127.729 364.376C128.01 364.985 128.298 365.583 128.592 366.167L129.485 365.716C129.783 366.306 130.087 366.879 130.397 367.432L129.525 367.922C129.856 368.511 130.194 369.08 130.542 369.626L131.386 369.089C131.739 369.643 132.099 370.169 132.468 370.664L131.666 371.261C132.074 371.809 132.494 372.322 132.925 372.797L133.665 372.124C133.878 372.358 134.094 372.582 134.312 372.793L134.566 373.04L134.608 373.392C134.646 373.708 134.681 374.042 134.714 374.392L133.719 374.485C133.775 375.085 133.825 375.736 133.868 376.433L134.866 376.371C134.904 376.998 134.938 377.66 134.966 378.352L133.967 378.393C133.992 379.021 134.014 379.676 134.031 380.353L135.031 380.328C135.047 380.968 135.06 381.629 135.069 382.307L134.069 382.321C134.078 382.958 134.084 383.612 134.087 384.278L135.087 384.274C135.09 384.918 135.09 385.576 135.088 386.243L134.088 386.239C134.086 386.884 134.081 387.539 134.074 388.202L135.074 388.213C135.067 388.862 135.058 389.519 135.046 390.182L134.046 390.165C134.035 390.814 134.022 391.469 134.007 392.128L135.007 392.15C134.992 392.803 134.975 393.459 134.956 394.117L133.957 394.089C133.938 394.741 133.918 395.395 133.896 396.049L134.895 396.083C134.885 396.38 134.875 396.678 134.864 396.975C134.851 397.333 134.838 397.691 134.824 398.049L133.825 398.01C133.799 398.666 133.772 399.32 133.744 399.971L134.743 400.015C134.714 400.673 134.683 401.329 134.651 401.98L133.652 401.931C133.62 402.59 133.586 403.243 133.551 403.891L134.549 403.945C134.513 404.607 134.476 405.262 134.437 405.909L133.438 405.848C133.398 406.51 133.357 407.162 133.314 407.803L134.312 407.87C134.267 408.538 134.221 409.195 134.174 409.838L133.177 409.765C133.127 410.434 133.077 411.087 133.024 411.723L134.021 411.805C133.966 412.479 133.909 413.133 133.851 413.765L132.855 413.673C132.792 414.354 132.728 415.008 132.662 415.631L133.657 415.736C133.584 416.426 133.51 417.081 133.434 417.694L132.441 417.571C132.353 418.28 132.263 418.932 132.172 419.518L133.16 419.672C133.105 420.023 133.05 420.354 132.993 420.661V420.664C132.929 421.004 132.863 421.339 132.797 421.667L131.817 421.468C131.679 422.147 131.535 422.799 131.383 423.428L132.355 423.663C132.19 424.349 132.016 425.008 131.831 425.644L130.871 425.366C130.678 426.03 130.475 426.666 130.26 427.275L131.203 427.608C130.965 428.281 130.712 428.924 130.443 429.542L129.527 429.142C129.251 429.772 128.959 430.372 128.648 430.944L129.526 431.422C129.185 432.049 128.822 432.646 128.433 433.218L127.606 432.656C127.227 433.214 126.824 433.744 126.394 434.252L127.158 434.898C126.705 435.433 126.226 435.944 125.717 436.434L125.023 435.714C124.549 436.171 124.048 436.61 123.517 437.037L124.143 437.817C123.612 438.243 123.055 438.654 122.471 439.056L121.904 438.231C121.369 438.599 120.806 438.96 120.217 439.316L120.733 440.172C120.164 440.516 119.571 440.854 118.954 441.19L118.476 440.312C117.907 440.622 117.315 440.93 116.7 441.24L117.149 442.133C116.562 442.428 115.955 442.723 115.327 443.021L114.899 442.117C114.311 442.395 113.704 442.676 113.077 442.96L113.49 443.871C113.321 443.947 113.151 444.024 112.979 444.101C112.922 444.282 112.864 444.463 112.805 444.644L111.854 444.336C111.647 444.976 111.429 445.614 111.201 446.251L112.142 446.589C111.912 447.231 111.67 447.872 111.416 448.513L110.486 448.144C110.239 448.768 109.979 449.39 109.707 450.011L110.623 450.413C110.349 451.038 110.062 451.662 109.761 452.285L108.86 451.851C108.569 452.454 108.265 453.056 107.946 453.658L108.829 454.126C108.511 454.727 108.178 455.327 107.831 455.926L106.965 455.425C106.631 456.002 106.282 456.578 105.919 457.153L106.764 457.688C106.402 458.262 106.024 458.835 105.632 459.407L104.807 458.842C104.43 459.391 104.039 459.941 103.632 460.489L104.436 461.085C104.031 461.63 103.612 462.175 103.178 462.72L102.396 462.096C101.98 462.617 101.55 463.137 101.105 463.658L101.865 464.308C101.427 464.82 100.974 465.331 100.507 465.842L99.7691 465.167C99.3208 465.657 98.8586 466.147 98.3817 466.637L99.0983 467.335C98.626 467.82 98.1397 468.305 97.639 468.79L96.9434 468.072C96.4666 468.533 95.9764 468.995 95.4723 469.456L96.1476 470.194C95.6525 470.647 95.1443 471.1 94.6227 471.553L93.9669 470.798C93.4628 471.236 92.9458 471.674 92.4155 472.112L93.0522 472.883C92.535 473.31 92.0053 473.737 91.4631 474.164L90.8444 473.379C90.3232 473.789 89.79 474.2 89.2445 474.61L89.8459 475.409C89.3048 475.817 88.7518 476.224 88.1867 476.632L87.6019 475.82C87.0673 476.206 86.5216 476.591 85.9644 476.977L86.5337 477.799C85.9783 478.184 85.4118 478.569 84.834 478.953L84.2798 478.121C83.729 478.488 83.1677 478.855 82.5957 479.222L83.1359 480.064C82.5695 480.427 81.9928 480.791 81.4056 481.155L80.8789 480.305C80.3143 480.655 79.7397 481.005 79.155 481.355L79.669 482.213C79.0927 482.558 78.5068 482.904 77.911 483.249L77.4092 482.384C76.8339 482.718 76.2493 483.052 75.6552 483.386L76.1456 484.258C75.5598 484.587 74.9648 484.917 74.3606 485.247L73.8812 484.37C73.2983 484.688 72.7066 485.007 72.106 485.326L72.575 486.209C71.9792 486.525 71.3748 486.842 70.7617 487.159L70.3026 486.27C69.7145 486.574 69.1182 486.878 68.5135 487.183L68.9633 488.076C68.3567 488.381 67.7419 488.687 67.1188 488.993L66.6781 488.095C66.087 488.385 65.4882 488.676 64.8817 488.967L65.3139 489.868C64.7047 490.16 64.0876 490.453 63.4628 490.745L63.0388 489.84C62.4373 490.121 61.8284 490.403 61.2121 490.685L61.6284 491.595C61.0193 491.873 60.403 492.152 59.7795 492.432L59.3706 491.519C58.7557 491.795 58.1337 492.071 57.5044 492.347L57.9061 493.262C57.2987 493.529 56.6846 493.796 56.0638 494.062L55.6688 493.144C55.0501 493.41 54.4247 493.676 53.7924 493.943L54.1809 494.864C53.5648 495.124 52.9423 495.384 52.3132 495.644L51.931 494.72C51.316 494.974 50.6947 495.229 50.067 495.484L50.4433 496.411C49.8137 496.666 49.1777 496.922 48.5353 497.179L48.1648 496.25C47.5508 496.495 46.9308 496.74 46.3049 496.985L46.67 497.916C46.046 498.161 45.4162 498.406 44.7804 498.651L44.4205 497.718C43.7868 497.963 43.1472 498.207 42.5015 498.452L42.8562 499.387C42.2386 499.622 41.6154 499.856 40.9868 500.091L40.6369 499.154C40.0098 499.388 39.3772 499.623 38.739 499.858L39.0842 500.796C38.4447 501.031 37.7996 501.267 37.149 501.503L36.8084 500.562C36.1887 500.787 35.5639 501.012 34.934 501.237L35.2703 502.178C34.6389 502.404 34.0024 502.63 33.3606 502.856L33.0285 501.912C32.3881 502.138 31.7425 502.364 31.0916 502.59L31.4196 503.534C30.7928 503.752 30.1611 503.97 29.5245 504.188L29.2003 503.242C28.5691 503.458 27.9331 503.675 27.2923 503.891L27.6126 504.839C26.9705 505.056 26.3235 505.273 25.6716 505.491L25.3549 504.542C24.7205 504.754 24.0814 504.966 23.4376 505.179L23.7508 506.128C23.1187 506.337 22.4821 506.545 21.841 506.754L21.5312 505.803C20.8912 506.012 20.2467 506.221 19.5975 506.43L19.9039 507.382C19.2568 507.59 18.6051 507.798 17.9489 508.007L17.6457 507.054C17.0162 507.255 16.3825 507.455 15.7445 507.656L16.0447 508.61C15.4057 508.811 14.7625 509.012 14.1149 509.214L13.8178 508.259C13.1713 508.46 12.5204 508.661 11.8653 508.863L12.1595 509.819C11.9731 509.876 11.7865 509.933 11.5995 509.991L11.172 510.122L11.167 510.123C10.8368 510.223 10.5054 510.322 10.1727 510.423L9.88356 509.466C9.49662 509.583 9.10822 509.7 8.71846 509.818C8.44389 509.901 8.16865 509.985 7.89277 510.068L8.18221 511.025C7.52151 511.225 6.85641 511.426 6.18776 511.626L5.90114 510.668C5.23943 510.866 4.57454 511.063 3.90685 511.258L4.18768 512.218C3.87947 512.308 3.57054 512.398 3.26098 512.487C3.23958 512.5 3.20917 512.519 3.16848 512.545C3.05816 512.617 2.90408 512.726 2.70157 512.875L2.10676 512.072C1.71756 512.36 1.19722 512.765 0.545746 513.286L1.17103 514.067C0.730937 514.42 0.229317 514.827 -0.334099 515.289L-0.968567 514.516C-1.43421 514.899 -1.9411 515.318 -2.48925 515.773L-1.84985 516.542C-2.32289 516.936 -2.82693 517.357 -3.36199 517.805L-4.00453 517.039C-4.48153 517.439 -4.98298 517.861 -5.50889 518.305L-4.8641 519.069C-5.34178 519.472 -5.83972 519.893 -6.35795 520.332L-7.00442 519.569C-7.48422 519.976 -7.98131 520.398 -8.49572 520.835L-7.8479 521.597C-8.32965 522.007 -8.82662 522.43 -9.33882 522.867L-9.98773 522.106C-10.4732 522.52 -10.9724 522.946 -11.4851 523.384L-10.8353 524.145C-11.3249 524.563 -11.8269 524.993 -12.3414 525.434L-12.992 524.674C-13.4731 525.086 -13.9652 525.508 -14.4681 525.94L-13.8168 526.699C-14.303 527.116 -14.7994 527.542 -15.306 527.978L-15.9578 527.22C-16.4494 527.642 -16.9506 528.073 -17.4613 528.513L-16.8089 529.271C-17.2911 529.686 -17.7819 530.109 -18.2812 530.539L-18.9341 529.782C-19.4244 530.204 -19.923 530.634 -20.4299 531.072L-19.7766 531.829L-20.2491 532.237C-20.582 532.524 -20.9185 532.815 -21.2584 533.108L-21.9121 532.352C-22.4004 532.773 -22.8959 533.202 -23.3986 533.636L-22.7446 534.393C-23.234 534.816 -23.7302 535.245 -24.2333 535.68L-24.8876 534.924C-25.3748 535.346 -25.8683 535.773 -26.3682 536.206L-25.7136 536.962C-26.2042 537.387 -26.7011 537.817 -27.2041 538.253L-27.859 537.498C-28.346 537.92 -28.8388 538.347 -29.3374 538.779L-28.6822 539.535L-29.4841 540.23L-30.1708 540.826L-30.8263 540.071C-31.3143 540.495 -31.8076 540.923 -32.3061 541.356L-31.6505 542.111L-33.1345 543.4L-33.7904 542.645C-34.2804 543.071 -34.7754 543.501 -35.2752 543.936L-34.6192 544.69L-36.0966 545.975L-36.7528 545.22C-37.246 545.649 -37.7437 546.082 -38.246 546.519L-37.5896 547.274L-39.0588 548.553L-39.7154 547.798C-40.2095 548.228 -40.7079 548.662 -41.2106 549.1L-40.5538 549.854L-42.0233 551.134L-42.6802 550.38C-43.1709 550.808 -43.6655 551.239 -44.1641 551.674L-43.5071 552.427L-44.992 553.722L-45.6491 552.968C-46.1362 553.393 -46.6269 553.821 -47.1213 554.252L-46.464 555.005L-47.9579 556.309L-48.6154 555.555C-49.1015 555.979 -49.5912 556.407 -50.0842 556.837L-49.4266 557.59L-50.9069 558.883L-51.5646 558.129C-52.058 558.56 -52.5548 558.994 -53.055 559.431L-52.3972 560.184L-53.8638 561.465L-54.5217 560.712C-55.0137 561.142 -55.5089 561.574 -56.0073 562.01L-55.3493 562.763L-56.8305 564.057L-57.4886 563.304C-57.9759 563.73 -58.4661 564.159 -58.9593 564.59L-58.3011 565.343L-59.7895 566.644L-60.4477 565.891C-60.9368 566.319 -61.4286 566.749 -61.9233 567.182L-61.265 567.934L-62.7376 569.222L-63.396 568.47C-63.8896 568.902 -64.386 569.336 -64.8852 569.773L-64.2267 570.525L-65.6998 571.815L-66.3584 571.062C-66.8468 571.49 -67.3377 571.919 -67.8313 572.351L-67.1726 573.104L-68.6608 574.407L-69.3196 573.654C-69.8085 574.082 -70.2998 574.513 -70.7937 574.945L-70.1348 575.697L-71.6063 576.986L-72.2652 576.234C-72.7581 576.666 -73.2535 577.1 -73.7513 577.536L-73.0923 578.288L-73.8408 578.944C-74.0961 579.167 -74.3469 579.396 -74.5929 579.628L-75.2799 578.901C-75.7921 579.386 -76.2847 579.888 -76.7568 580.407L-76.0168 581.08C-76.4737 581.583 -76.9106 582.102 -77.3269 582.635L-78.1156 582.021C-78.5483 582.576 -78.9596 583.147 -79.3485 583.732L-78.5156 584.286C-78.8909 584.85 -79.2446 585.429 -79.576 586.021L-80.4484 585.532C-80.792 586.145 -81.1125 586.771 -81.409 587.41L-80.5021 587.831C-80.7875 588.445 -81.0498 589.071 -81.2885 589.706L-82.2247 589.355C-82.4714 590.012 -82.6937 590.68 -82.8907 591.356L-81.9306 591.636C-82.0252 591.961 -82.1138 592.288 -82.1963 592.617C-82.2788 592.947 -82.3548 593.277 -82.4246 593.608L-83.4031 593.402C-83.5483 594.091 -83.6669 594.784 -83.759 595.48L-82.7677 595.611C-82.8568 596.284 -82.9203 596.959 -82.9581 597.635L-83.9565 597.579C-83.9959 598.281 -84.0085 598.984 -83.9945 599.687L-82.9947 599.667C-82.9812 600.344 -82.942 601.021 -82.8773 601.696L-83.8727 601.792C-83.8055 602.491 -83.7119 603.188 -83.5918 603.881L-82.6065 603.71C-82.491 604.377 -82.3501 605.04 -82.1839 605.698L-83.1535 605.943C-82.9818 606.623 -82.784 607.298 -82.5603 607.966L-81.6121 607.649C-81.5046 607.97 -81.391 608.289 -81.2711 608.606C-81.1512 608.924 -81.0254 609.239 -80.8939 609.551L-81.8154 609.939C-81.5416 610.589 -81.2438 611.227 -80.9229 611.851L-80.0335 611.394C-79.7231 611.998 -79.3903 612.589 -79.036 613.166L-79.8883 613.689C-79.5201 614.289 -79.1295 614.875 -78.7174 615.444L-77.9072 614.858C-77.5097 615.408 -77.0916 615.942 -76.6536 616.46L-77.4172 617.106C-76.9634 617.643 -76.489 618.162 -75.9951 618.664L-75.2825 617.963C-74.8074 618.445 -74.3135 618.911 -73.8017 619.357L-74.4593 620.111C-73.9305 620.572 -73.3832 621.015 -72.8185 621.437L-72.2198 620.636C-71.9485 620.839 -71.6731 621.037 -71.3937 621.229C-71.1139 621.423 -70.831 621.61 -70.5449 621.792L-71.0815 622.636C-70.486 623.014 -69.8777 623.37 -69.258 623.701L-68.7867 622.819C-68.1871 623.139 -67.5763 623.436 -66.9559 623.71L-67.3592 624.625C-66.7145 624.909 -66.0596 625.169 -65.3961 625.403L-65.063 624.46C-64.4228 624.686 -63.7743 624.888 -63.1189 625.065L-63.3799 626.031C-62.7006 626.214 -62.0142 626.372 -61.322 626.504L-61.1346 625.522C-60.4686 625.649 -59.7971 625.751 -59.1215 625.828L-59.2342 626.822C-58.5361 626.901 -57.8337 626.954 -57.1285 626.98L-57.091 625.981C-56.7523 625.994 -56.4129 626 -56.0727 626H-55.0742V627H-53.0774V626H-51.0806V627H-49.0837V626H-47.0869V627H-45.0901V626H-43.0932V627H-41.0964V626H-39.0995V627H-37.1027V626H-35.1059V627H-33.109V626H-31.1122V627H-29.1154V626H-27.1185V627H-25.1217V626H-23.1248V627H-21.128V626H-19.1312V627H-17.1343V626H-15.1375V627H-13.1407V626H-11.1438V627H-9.14696V626H-7.15012V627H-5.15329V626H-3.15644V627H-1.15961V626H0.837234V627H2.83407V626H4.83091V627H6.82774V626H8.82457V627H10.8214V626H12.8182V627H14.8151V626H16.8119V627H18.8087V626H20.8056V627H22.8024V626H24.7992V627H26.7961V626H28.7929V627H30.7897V626H32.7866V627H34.7834V626H36.7802V627H38.7771V626H40.7739V627H42.7707V626H44.7676V627H46.7644V626H48.7612V627H50.7581V626H52.7549V627H54.7517V626H56.7486V627H58.7454V626H60.7422V627H62.7391V626H64.7359V627H66.7327V626H68.7296V627H70.7264V626H72.7233V627H74.7201V626H76.7169V627H78.7138V626H80.7106V627H82.7075V626H84.7043V627H86.7011V626H88.698V627H90.6948V626H92.6917V627H94.6885V626H96.6853V627H98.6822V626H100.679V627H102.676V626H104.673V627H106.67V626H108.666V627H110.663V626H112.66V627H114.657V626H116.654V627H118.651V626H120.647V627H122.644V626H124.641V627H126.638V626H128.635V627H130.632V626H132.628V627H134.625V626H136.622V627H138.619V626H140.616V627H142.613V626H144.61V627H146.606V626H148.603V627H150.6V626H152.597V627H154.594V626H156.591V627H158.587V626H160.584V627H162.581V626H164.578V627H166.575V626H168.572V627H170.568V626H172.565V627H174.562V626H176.559V627H178.556V626H180.553V627H182.55V626H184.546V627H186.543V626H188.54V627H190.537V626H192.534V627H194.531V626H196.527V627H198.524V626H200.521V627H202.518V626H204.515V627H206.512V626H208.508V627H210.505V626H212.502V627H214.499V626H216.496V627H218.493V626H220.489V627H222.486V626H224.483V627H226.48V626H228.477V627H230.473V626H232.47V627H234.467V626H236.464V627H238.461V626H240.458V627H242.454V626H244.451V627H246.448V626H248.445V627H250.442V626H252.439V627H254.435V626H256.432V627H258.429V626H260.426V627H262.423V626H264.42V627H266.416V626H268.413V627H270.41V626H272.407V627H274.404V626H276.4V627H278.397V626H280.394V627H282.391V626H284.388V627H286.385V626H288.381V627H290.378V626H292.375V627H294.372V626H296.369V627H298.366V626H300.362V627H302.359V626H304.356V627H306.353V626H308.35V627H310.347V626H312.343V627H314.34V626H316.337V627H318.334V626H320.331V627H322.327V626H324.324V627H326.321V626H328.318V627H330.315V626H332.312V627H334.308V626H336.305V627H338.302V626H340.299V627H342.296V626H344.293V627H346.289V626H348.286V627H350.283V626H352.28V627H354.277V626H356.274V627H358.27V626H360.267V627H362.264V626H364.261V627H366.258V626H368.254V627H370.251V626H372.248V627H374.245V626H376.242V627H378.239V626H380.235V627H382.232V626H384.229V627H386.226V626H388.223V627H390.22V626H392.216V627H394.213V626H396.21V627H398.207V626H400.204V627H402.201V626H404.197V627H406.194V626H408.191V627H410.188V626H412.185V627H414.182V626H416.178V627H418.175V626H420.172V627H422.169V626H424.166V627H426.162V626H428.159V627H430.156V626H432.153V627H434.15V626H436.147V627H438.143V626H440.14V627H442.137V626H444.134V627H446.131V626H448.128V627H450.124V626H452.121V627H454.118V626H456.115V627H458.112V626H460.109V627H462.105V626H464.102V627H466.099V626H468.096V627H470.093V626H472.089V627H474.086V626H476.083V627H478.08V626H480.077V627H482.074V626H484.07V627H486.067V626H487.068C487.41 626 487.753 625.994 488.094 625.981L488.132 626.98C488.843 626.953 489.552 626.9 490.256 626.819L490.142 625.826C490.824 625.748 491.501 625.644 492.172 625.515L492.361 626.497C493.059 626.363 493.751 626.202 494.436 626.015L494.173 625.051C494.834 624.87 495.487 624.665 496.132 624.435L496.468 625.377C497.137 625.139 497.796 624.875 498.446 624.587L498.039 623.673C498.664 623.395 499.279 623.093 499.883 622.767L500.357 623.647C500.981 623.311 501.593 622.95 502.192 622.565L501.651 621.724C501.939 621.539 502.224 621.349 502.505 621.152C502.786 620.956 503.062 620.755 503.335 620.549L503.938 621.347C504.505 620.918 505.055 620.469 505.585 620L504.923 619.251C505.437 618.797 505.932 618.325 506.408 617.835L507.125 618.531C507.62 618.022 508.095 617.494 508.548 616.95L507.78 616.31C508.218 615.784 508.636 615.242 509.032 614.684L509.847 615.264C510.258 614.686 510.647 614.093 511.013 613.484L510.156 612.968C510.509 612.383 510.839 611.784 511.146 611.172L512.04 611.62C512.358 610.988 512.652 610.342 512.922 609.684L511.996 609.305C512.126 608.989 512.249 608.67 512.367 608.348C512.485 608.027 512.596 607.703 512.701 607.379L513.652 607.686C513.871 607.01 514.063 606.327 514.228 605.639L513.256 605.405C513.416 604.74 513.551 604.069 513.659 603.395L514.646 603.554C514.759 602.854 514.845 602.15 514.904 601.443L513.907 601.36C513.964 600.679 513.995 599.996 513.999 599.312L514.999 599.319C515.004 598.61 514.982 597.901 514.932 597.194L513.935 597.263C513.887 596.582 513.814 595.903 513.714 595.225L514.703 595.08C514.6 594.38 514.47 593.682 514.313 592.989L513.338 593.21C513.262 592.877 513.18 592.545 513.092 592.215C513.004 591.884 512.909 591.555 512.809 591.229L513.764 590.934C513.555 590.255 513.32 589.585 513.06 588.927L512.13 589.294C511.878 588.656 511.603 588.03 511.305 587.416L512.204 586.979C511.894 586.34 511.56 585.714 511.202 585.102L510.339 585.606C509.994 585.015 509.627 584.438 509.238 583.875L510.06 583.307C509.657 582.724 509.232 582.156 508.785 581.604L508.008 582.234C507.578 581.703 507.127 581.189 506.656 580.691L507.383 580.004C506.896 579.49 506.389 578.993 505.863 578.515L505.191 579.256C504.938 579.026 504.68 578.801 504.418 578.581L503.66 577.943L504.304 577.178L502.789 575.904L502.145 576.669L500.63 575.395L501.273 574.629L499.758 573.355L499.115 574.12L497.599 572.846L498.243 572.081L496.728 570.806L496.084 571.572L494.569 570.297L495.213 569.532L493.697 568.258L493.054 569.023L491.539 567.748L492.182 566.983L490.667 565.709L490.023 566.474L488.508 565.2L489.152 564.434L487.637 563.16L486.993 563.925L485.478 562.651L486.122 561.886L484.606 560.611L483.963 561.377L482.447 560.102L483.091 559.337L481.576 558.063L480.932 558.828L479.417 557.554L480.061 556.788L478.546 555.514L477.902 556.279L476.387 555.005L477.03 554.24L475.515 552.965L474.872 553.73L473.356 552.456L474 551.691L472.485 550.416L471.841 551.182L470.326 549.907L470.97 549.142L469.454 547.868L468.811 548.633L467.296 547.359L467.939 546.593L466.424 545.319L465.78 546.084L464.265 544.81L464.909 544.045L463.394 542.77L462.75 543.536L461.235 542.261L461.878 541.496L460.363 540.221L459.72 540.987L458.204 539.712L458.848 538.947L457.333 537.673L456.689 538.438L455.174 537.164L455.818 536.398L454.302 535.124L453.659 535.889L452.144 534.615L452.787 533.85L451.272 532.575L450.628 533.341L449.113 532.066L449.757 531.301L448.242 530.027L447.598 530.792L446.083 529.517L446.727 528.752L445.211 527.478L444.568 528.243L443.052 526.969L443.696 526.203L442.181 524.929L441.537 525.694L440.022 524.42L440.666 523.655L439.151 522.38L438.507 523.146L436.992 521.871L437.635 521.106L436.12 519.832L435.477 520.597L433.961 519.323L434.605 518.557L433.09 517.283L432.446 518.048L430.931 516.774L431.575 516.009L430.059 514.734L429.416 515.499L427.901 514.225L428.544 513.46ZM77.508 125.353L77.455 125.354L77.5076 125.346L77.508 125.353Z" stroke="#FF8A8A" stroke-width="2" stroke-dasharray="2 2"/>
</g>
<defs>
<clipPath id="clip0_5_2">
<rect width="430" height="626" fill="white"/>
</clipPath>
</defs>
</svg>
