<svg width="36" height="36" viewBox="0 0 36 36" fill="none" xmlns="http://www.w3.org/2000/svg">
<path d="M24 12.75C25.9995 15.417 25.9995 20.583 24 23.25M28.5 7.50002C34.482 13.212 34.518 22.8255 28.5 28.5M3 22.4385V13.56C3 12.699 3.672 12 4.5 12H9.879C10.0775 11.9993 10.2738 11.9584 10.4561 11.8798C10.6383 11.8012 10.8028 11.6864 10.9395 11.5425L15.4395 6.46052C16.3845 5.47652 18 6.17402 18 7.56452V28.4355C18 29.8365 16.365 30.528 15.426 29.5245L10.941 24.471C10.8039 24.323 10.6378 24.2048 10.453 24.1238C10.2682 24.0427 10.0688 24.0006 9.867 24H4.5C3.672 24 3 23.301 3 22.4385Z" stroke="#777777" stroke-width="2" stroke-linecap="round" stroke-linejoin="round"/>
</svg>
