<svg width="24" height="24" viewBox="0 0 24 24" fill="none" xmlns="http://www.w3.org/2000/svg">
<path d="M3.99609 21.0017V18.0004C3.99609 17.4479 4.444 17 4.99651 17H7.99776" stroke="#009CF9" stroke-width="1.5" stroke-linecap="round" stroke-linejoin="round"/>
<path d="M20.0017 21.0017V18.0004C20.0017 17.4479 19.5538 17 19.0013 17H16" stroke="#009CF9" stroke-width="1.5" stroke-linecap="round" stroke-linejoin="round"/>
<path d="M18.5015 17.0013V14.5002C18.5015 14.224 18.2776 14 18.0013 14H5.9963C5.72004 14 5.49609 14.224 5.49609 14.5002V17.0013" stroke="#009CF9" stroke-width="1.5" stroke-linecap="round" stroke-linejoin="round"/>
<path fill-rule="evenodd" clip-rule="evenodd" d="M7.4963 11H16.5001C16.7763 11 17.0003 11.224 17.0003 11.5002V14.0013H6.99609V11.5002C6.99609 11.224 7.22004 11 7.4963 11Z" stroke="#009CF9" stroke-width="1.5" stroke-linecap="round" stroke-linejoin="round"/>
<path d="M14.2358 7.9924H9.76172" stroke="#009CF9" stroke-width="1.5" stroke-linecap="round" stroke-linejoin="round"/>
<path d="M16.0014 10.9947L15.5336 10.3807C14.3537 8.83212 13.7147 6.93906 13.7147 4.99219H10.2847C10.2847 6.93906 9.64571 8.83212 8.46583 10.3807L7.99805 10.9947" stroke="#009CF9" stroke-width="1.5" stroke-linecap="round" stroke-linejoin="round"/>
<path d="M11.9983 4.99344V1.99219" stroke="#009CF9" stroke-width="1.5" stroke-linecap="round" stroke-linejoin="round"/>
<path d="M9.99826 14V21.0029" stroke="#009CF9" stroke-width="1.5" stroke-linecap="round" stroke-linejoin="round"/>
<path d="M14.0002 14V21.0029" stroke="#009CF9" stroke-width="1.5" stroke-linecap="round" stroke-linejoin="round"/>
</svg>
