<svg width="36" height="36" viewBox="0 0 36 36" fill="none" xmlns="http://www.w3.org/2000/svg">
<g clip-path="url(#clip0_7235_11203)">
<path d="M1.5 31.4998V31.4998C1.5 28.5013 3.93 26.0713 6.9285 26.0713H12.357C15.3555 26.0713 17.7855 28.5013 17.7855 31.4998V31.4998" stroke="white" stroke-width="1.8" stroke-linecap="round" stroke-linejoin="round"/>
<path d="M13.0022 13.8914C14.8574 15.7466 14.8574 18.7544 13.0022 20.6096C11.147 22.4648 8.13915 22.4648 6.28397 20.6096C4.42878 18.7544 4.42878 15.7466 6.28397 13.8914C8.13915 12.0362 11.147 12.0362 13.0022 13.8914" stroke="white" stroke-width="1.8" stroke-linecap="round" stroke-linejoin="round"/>
<path d="M27.1431 20.712C31.2051 20.712 34.4991 17.418 34.4991 13.356C34.4991 9.294 31.2066 6 27.1431 6C23.0796 6 19.7871 9.294 19.7871 13.356" stroke="white" stroke-width="1.8" stroke-linecap="round" stroke-linejoin="round"/>
<path d="M27.1518 20.719C26.0448 20.719 24.9963 20.4745 24.0543 20.038L19.5273 20.9995L20.4738 16.4635C20.0343 15.5185 19.7883 14.4655 19.7883 13.3555" stroke="white" stroke-width="1.8" stroke-linecap="round" stroke-linejoin="round"/>
<path d="M23.721 13.447C23.7503 13.4763 23.7503 13.5237 23.721 13.553C23.6917 13.5823 23.6442 13.5823 23.6149 13.553C23.5856 13.5237 23.5856 13.4763 23.6149 13.447C23.6442 13.4177 23.6917 13.4177 23.721 13.447" stroke="white" stroke-width="1.8" stroke-linecap="round" stroke-linejoin="round"/>
<path d="M27.096 13.447C27.1253 13.4763 27.1253 13.5237 27.096 13.553C27.0667 13.5823 27.0192 13.5823 26.9899 13.553C26.9606 13.5237 26.9606 13.4763 26.9899 13.447C27.0192 13.4177 27.0667 13.4177 27.096 13.447" stroke="white" stroke-width="1.8" stroke-linecap="round" stroke-linejoin="round"/>
<path d="M30.471 13.447C30.5003 13.4763 30.5003 13.5237 30.471 13.553C30.4417 13.5823 30.3942 13.5823 30.3649 13.553C30.3356 13.5237 30.3356 13.4763 30.3649 13.447C30.3942 13.4177 30.4417 13.4177 30.471 13.447" stroke="white" stroke-width="1.8" stroke-linecap="round" stroke-linejoin="round"/>
</g>
<defs>
<clipPath id="clip0_7235_11203">
<rect width="36" height="36" fill="white"/>
</clipPath>
</defs>
</svg>
