<svg width="34" height="26" viewBox="0 0 34 26" fill="none" xmlns="http://www.w3.org/2000/svg">
<path fill-rule="evenodd" clip-rule="evenodd" d="M0.5 25.5008C0.5 22.5023 2.93 20.0723 5.9285 20.0723H11.357C14.3555 20.0723 16.7855 22.5023 16.7855 25.5008" fill="#009CF9"/>
<path fill-rule="evenodd" clip-rule="evenodd" d="M12.0027 7.89139C13.8579 9.74657 13.8579 12.7544 12.0027 14.6096C10.1475 16.4648 7.13964 16.4648 5.28446 14.6096C3.42927 12.7544 3.42927 9.74657 5.28446 7.89139C7.13964 6.0362 10.1475 6.0362 12.0027 7.89139Z" fill="#009CF9"/>
<circle cx="26" cy="7" r="7" fill="#009CF9"/>
<path d="M20 10.5L19.5 14.5L23.5 13.5L20 10.5Z" fill="#009CF9"/>
<path fill-rule="evenodd" clip-rule="evenodd" d="M33.5001 7.356C33.5001 11.418 30.2061 14.712 26.1441 14.712L18.7881 7.356C18.7881 3.294 22.0806 0 26.1441 0C30.2076 0 33.5001 3.294 33.5001 7.356ZM23.0539 14.0385C23.9959 14.475 25.0444 14.7195 26.1514 14.7195L18.7879 7.35596C18.7879 8.46596 19.0339 9.51896 19.4734 10.464L18.5269 15L23.0539 14.0385Z" fill="#009CF9"/>
<path d="M22.7201 7.44697C22.7494 7.47626 22.7494 7.52374 22.7201 7.55303C22.6909 7.58232 22.6434 7.58232 22.6141 7.55303C22.5848 7.52374 22.5848 7.47626 22.6141 7.44697C22.6434 7.41768 22.6909 7.41768 22.7201 7.44697" stroke="#E5F5FF" stroke-width="1.8" stroke-linecap="round" stroke-linejoin="round"/>
<path d="M26.0951 7.44697C26.1244 7.47626 26.1244 7.52374 26.0951 7.55303C26.0659 7.58232 26.0184 7.58232 25.9891 7.55303C25.9598 7.52374 25.9598 7.47626 25.9891 7.44697C26.0184 7.41768 26.0659 7.41768 26.0951 7.44697" stroke="#E5F5FF" stroke-width="1.8" stroke-linecap="round" stroke-linejoin="round"/>
<path d="M29.4701 7.44697C29.4994 7.47626 29.4994 7.52374 29.4701 7.55303C29.4409 7.58232 29.3934 7.58232 29.3641 7.55303C29.3348 7.52374 29.3348 7.47626 29.3641 7.44697C29.3934 7.41768 29.4409 7.41768 29.4701 7.44697" stroke="#E5F5FF" stroke-width="1.8" stroke-linecap="round" stroke-linejoin="round"/>
</svg>
