<svg width="40" height="40" viewBox="0 0 40 40" fill="none" xmlns="http://www.w3.org/2000/svg">
<path d="M1.66675 35V35C1.66675 31.6683 4.36675 28.9683 7.69841 28.9683H13.7301C17.0617 28.9683 19.7617 31.6683 19.7617 35V35" stroke="#777777" stroke-width="1.8" stroke-linecap="round" stroke-linejoin="round"/>
<path d="M14.4474 15.4343C16.5088 17.4956 16.5088 20.8377 14.4474 22.899C12.3861 24.9603 9.04407 24.9603 6.98276 22.899C4.92144 20.8377 4.92144 17.4956 6.98276 15.4343C9.04407 13.373 12.3861 13.373 14.4474 15.4343" stroke="#777777" stroke-width="1.8" stroke-linecap="round" stroke-linejoin="round"/>
<path d="M30.1601 23.0133C34.6735 23.0133 38.3335 19.3533 38.3335 14.84C38.3335 10.3267 34.6751 6.66667 30.1601 6.66667C25.6451 6.66667 21.9868 10.3267 21.9868 14.84" stroke="#777777" stroke-width="1.8" stroke-linecap="round" stroke-linejoin="round"/>
<path d="M30.1684 23.0217C28.9384 23.0217 27.7734 22.75 26.7268 22.265L21.6968 23.3333L22.7484 18.2933C22.2601 17.2433 21.9868 16.0733 21.9868 14.84" stroke="#777777" stroke-width="1.8" stroke-linecap="round" stroke-linejoin="round"/>
<path d="M26.3556 14.9411C26.3882 14.9736 26.3882 15.0264 26.3556 15.0589C26.3231 15.0915 26.2703 15.0915 26.2378 15.0589C26.2052 15.0264 26.2052 14.9736 26.2378 14.9411C26.2703 14.9085 26.3231 14.9085 26.3556 14.9411" stroke="#777777" stroke-width="1.8" stroke-linecap="round" stroke-linejoin="round"/>
<path d="M30.1056 14.9411C30.1382 14.9736 30.1382 15.0264 30.1056 15.0589C30.0731 15.0915 30.0203 15.0915 29.9878 15.0589C29.9552 15.0264 29.9552 14.9736 29.9878 14.9411C30.0203 14.9085 30.0731 14.9085 30.1056 14.9411" stroke="#777777" stroke-width="1.8" stroke-linecap="round" stroke-linejoin="round"/>
<path d="M33.8556 14.9411C33.8882 14.9736 33.8882 15.0264 33.8556 15.0589C33.8231 15.0915 33.7703 15.0915 33.7378 15.0589C33.7052 15.0264 33.7052 14.9736 33.7378 14.9411C33.7703 14.9085 33.8231 14.9085 33.8556 14.9411" stroke="#777777" stroke-width="1.8" stroke-linecap="round" stroke-linejoin="round"/>
</svg>
