<svg width="36" height="36" viewBox="0 0 36 36" fill="none" xmlns="http://www.w3.org/2000/svg">
<path d="M1.5 31.5008V31.5008C1.5 28.5023 3.93 26.0723 6.9285 26.0723H12.357C15.3555 26.0723 17.7855 28.5023 17.7855 31.5008V31.5008" stroke="#0C1617" stroke-width="1.8" stroke-linecap="round" stroke-linejoin="round"/>
<path d="M13.0027 13.8914C14.8579 15.7466 14.8579 18.7544 13.0027 20.6096C11.1475 22.4648 8.13964 22.4648 6.28446 20.6096C4.42927 18.7544 4.42927 15.7466 6.28446 13.8914C8.13964 12.0362 11.1475 12.0362 13.0027 13.8914" stroke="#0C1617" stroke-width="1.8" stroke-linecap="round" stroke-linejoin="round"/>
<path d="M27.144 20.712C31.206 20.712 34.5 17.418 34.5 13.356C34.5 9.294 31.2075 6 27.144 6C23.0805 6 19.788 9.294 19.788 13.356" stroke="#0C1617" stroke-width="1.8" stroke-linecap="round" stroke-linejoin="round"/>
<path d="M27.1515 20.719C26.0445 20.719 24.996 20.4745 24.054 20.038L19.527 20.9995L20.4735 16.4635C20.034 15.5185 19.788 14.4655 19.788 13.3555" stroke="#0C1617" stroke-width="1.8" stroke-linecap="round" stroke-linejoin="round"/>
<path d="M23.7201 13.447C23.7494 13.4763 23.7494 13.5237 23.7201 13.553C23.6909 13.5823 23.6434 13.5823 23.6141 13.553C23.5848 13.5237 23.5848 13.4763 23.6141 13.447C23.6434 13.4177 23.6909 13.4177 23.7201 13.447" stroke="#0C1617" stroke-width="1.8" stroke-linecap="round" stroke-linejoin="round"/>
<path d="M27.0951 13.447C27.1244 13.4763 27.1244 13.5237 27.0951 13.553C27.0659 13.5823 27.0184 13.5823 26.9891 13.553C26.9598 13.5237 26.9598 13.4763 26.9891 13.447C27.0184 13.4177 27.0659 13.4177 27.0951 13.447" stroke="#0C1617" stroke-width="1.8" stroke-linecap="round" stroke-linejoin="round"/>
<path d="M30.4701 13.447C30.4994 13.4763 30.4994 13.5237 30.4701 13.553C30.4409 13.5823 30.3934 13.5823 30.3641 13.553C30.3348 13.5237 30.3348 13.4763 30.3641 13.447C30.3934 13.4177 30.4409 13.4177 30.4701 13.447" stroke="#0C1617" stroke-width="1.8" stroke-linecap="round" stroke-linejoin="round"/>
</svg>
