<svg width="33" height="33" viewBox="0 0 33 33" fill="none" xmlns="http://www.w3.org/2000/svg">
<path fill-rule="evenodd" clip-rule="evenodd" d="M13.9318 18.6935C12.3718 17.1335 11.1958 15.3868 10.4145 13.6148C10.2491 13.2401 10.3465 12.8015 10.6358 12.5121L11.7278 11.4201C12.6225 10.5255 12.6225 9.26012 11.8411 8.47879L10.2758 6.91479C9.23448 5.87346 7.54648 5.87346 6.50514 6.91479L5.63581 7.78279C4.64781 8.77079 4.23581 10.1961 4.50248 11.6095C5.16114 15.0935 7.18514 18.9081 10.4505 22.1735C13.7158 25.4388 17.5305 27.4628 21.0145 28.1215C22.4278 28.3881 23.8531 27.9761 24.8411 26.9881L25.7091 26.1201C26.7505 25.0788 26.7505 23.3908 25.7091 22.3495L24.1451 20.7855C23.3638 20.0041 22.0971 20.0041 21.3171 20.7855L20.1131 21.9908C19.8238 22.2801 19.3851 22.3775 19.0105 22.2121C17.2385 21.4295 15.4918 20.2521 13.9318 18.6935Z" stroke="#009CF9" stroke-width="1.5" stroke-linecap="round" stroke-linejoin="round"/>
<path d="M17.761 7.09266V3.97266" stroke="#009CF9" stroke-width="1.5" stroke-linecap="round" stroke-linejoin="round"/>
<path d="M23.3209 9.29507L25.5209 7.1084" stroke="#009CF9" stroke-width="1.5" stroke-linecap="round" stroke-linejoin="round"/>
<path d="M25.5344 14.8688H28.6411" stroke="#009CF9" stroke-width="1.5" stroke-linecap="round" stroke-linejoin="round"/>
</svg>
