<svg width="40" height="40" viewBox="0 0 40 40" fill="none" xmlns="http://www.w3.org/2000/svg">
<path d="M35.9706 14.2353L20.5294 6.24706C19.9118 5.91765 19.1706 5.91765 18.5529 6.24706L3.15294 14.2765C2.45294 14.6471 2 15.3882 2 16.1706C2 16.9529 2.45294 17.6941 3.15294 18.0647L5.62353 19.3412V25.6412C5.62353 26.7941 6.24118 27.8235 7.27059 28.3176L18.1412 34C19.0059 34.4529 20.0765 34.4529 20.9412 34L27.5294 30.5824V32.5588C25.7176 33.0118 24.4824 34.7412 24.6882 36.5941C24.8941 38.4471 26.5 39.8882 28.3529 39.8882C30.2059 39.8882 31.8118 38.4882 32.0176 36.5941C32.2235 34.7412 31.0294 32.9706 29.1765 32.5588V29.7176L31.7294 28.3588C32.7176 27.8235 33.3765 26.7941 33.3765 25.6824V19.3412L35.8471 18.0647C36.5471 17.6941 37 16.9529 37 16.1706C37 15.3882 36.5471 14.6471 35.8471 14.2765L35.9706 14.2353ZM20.2 32.4353C19.8294 32.6412 19.3765 32.6412 19.0059 32.4353L8.09412 26.7941C7.64118 26.5471 7.39412 26.1353 7.39412 25.6412V20.2059L18.6353 26.0529C19.2529 26.3824 19.9941 26.3824 20.6118 26.0529L27.6118 22.3882V28.6059L20.2 32.4353ZM30.4118 36.1C30.4118 36.9235 29.9176 37.6235 29.1765 37.9529C28.4353 38.2824 27.5706 38.0765 26.9941 37.5C26.4176 36.9235 26.2529 36.0588 26.5412 35.3176C26.8706 34.5765 27.5706 34.0824 28.3941 34.0824C28.9294 34.0824 29.4235 34.2882 29.7941 34.6588C30.2059 35.0706 30.4118 35.5647 30.4118 36.1ZM31.8118 25.6C31.8118 26.0941 31.5235 26.5471 31.1118 26.7529L29.3412 27.7412V21.5235L31.8529 20.2471L31.8118 25.6ZM35.1882 16.5L29.0529 19.7118C29.0118 19.6294 28.9294 19.5882 28.8471 19.5471L18.7176 14.1941C18.5118 14.0706 18.2647 14.0294 18.0588 14.1118C17.8118 14.1941 17.6471 14.3176 17.5235 14.5235C17.4 14.7294 17.4 14.9765 17.4824 15.1824C17.5647 15.3882 17.7294 15.5941 17.9353 15.6765L27.2412 20.6588L19.7882 24.5294C19.6647 24.5706 19.5412 24.5706 19.4176 24.5294L3.97647 16.5C3.85294 16.4176 3.77059 16.2941 3.77059 16.1294C3.77059 15.9647 3.85294 15.8412 3.97647 15.7588L19.3765 7.72941C19.5 7.68823 19.6235 7.68823 19.7471 7.72941L35.2294 15.7588C35.3529 15.8412 35.4353 15.9647 35.4353 16.1294C35.4353 16.2941 35.3529 16.4588 35.1882 16.5Z" fill="#009CF9"/>
</svg>
