<svg width="36" height="36" viewBox="0 0 36 36" fill="none" xmlns="http://www.w3.org/2000/svg">
<path d="M31.4743 12.4559L17.9632 5.46618C17.4228 5.17794 16.7743 5.17794 16.2338 5.46618L2.75882 12.4919C2.14632 12.8162 1.75 13.4647 1.75 14.1493C1.75 14.8338 2.14632 15.4824 2.75882 15.8066L4.92059 16.9235V22.436C4.92059 23.4449 5.46103 24.3456 6.36176 24.7779L15.8735 29.75C16.6301 30.1463 17.5669 30.1463 18.3235 29.75L24.0882 26.7596V28.489C22.5029 28.8853 21.4221 30.3985 21.6022 32.0199C21.7824 33.6412 23.1875 34.9022 24.8088 34.9022C26.4301 34.9022 27.8353 33.6772 28.0154 32.0199C28.1956 30.3985 27.1507 28.8493 25.5294 28.489V26.0029L27.7632 24.814C28.6279 24.3456 29.2044 23.4449 29.2044 22.4721V16.9235L31.3662 15.8066C31.9787 15.4824 32.375 14.8338 32.375 14.1493C32.375 13.4647 31.9787 12.8162 31.3662 12.4919L31.4743 12.4559ZM17.675 28.3809C17.3507 28.561 16.9544 28.561 16.6301 28.3809L7.08235 23.4449C6.68603 23.2287 6.46985 22.8684 6.46985 22.436V17.6801L16.3059 22.7963C16.8463 23.0846 17.4949 23.0846 18.0353 22.7963L24.1603 19.5897V25.0301L17.675 28.3809ZM26.6103 31.5875C26.6103 32.3081 26.1779 32.9206 25.5294 33.2088C24.8809 33.4971 24.1243 33.3169 23.6199 32.8125C23.1154 32.3081 22.9713 31.5515 23.2235 30.9029C23.5118 30.2544 24.1243 29.8221 24.8449 29.8221C25.3132 29.8221 25.7456 30.0022 26.0699 30.3265C26.4301 30.6868 26.6103 31.1191 26.6103 31.5875ZM27.8353 22.4C27.8353 22.8324 27.5831 23.2287 27.2228 23.4088L25.6735 24.2735V18.8331L27.8713 17.7162L27.8353 22.4ZM30.7897 14.4375L25.4213 17.2478C25.3853 17.1757 25.3132 17.1397 25.2412 17.1037L16.3779 12.4199C16.1978 12.3118 15.9816 12.2757 15.8015 12.3478C15.5853 12.4199 15.4412 12.5279 15.3331 12.7081C15.225 12.8882 15.225 13.1044 15.2971 13.2846C15.3691 13.4647 15.5132 13.6449 15.6934 13.7169L23.836 18.0765L17.3147 21.4632C17.2066 21.4993 17.0985 21.4993 16.9904 21.4632L3.47941 14.4375C3.37132 14.3654 3.29926 14.2574 3.29926 14.1132C3.29926 13.9691 3.37132 13.861 3.47941 13.789L16.9544 6.76323C17.0625 6.72721 17.1706 6.72721 17.2787 6.76323L30.8257 13.789C30.9338 13.861 31.0059 13.9691 31.0059 14.1132C31.0059 14.2574 30.9338 14.4015 30.7897 14.4375Z" fill="#0C1617"/>
</svg>
