<svg width="50" height="48" viewBox="0 0 50 48" fill="none" xmlns="http://www.w3.org/2000/svg">
<path d="M31.25 30L25 24" stroke="#009CF9" stroke-width="2" stroke-linecap="round" stroke-linejoin="round"/>
<path d="M25 24L18.75 30" stroke="#009CF9" stroke-width="2" stroke-linecap="round" stroke-linejoin="round"/>
<path d="M25.0007 40V24" stroke="#009CF9" stroke-width="2" stroke-linecap="round" stroke-linejoin="round"/>
<path d="M16.666 37.9995H12.4993C7.89698 37.9995 4.16602 34.4178 4.16602 29.9995C4.16602 25.5812 7.89698 21.9995 12.4993 21.9995L12.4785 21.8588C11.96 18.3743 13.0421 14.8452 15.4444 12.1861C17.8467 9.52701 21.3328 7.99954 24.9993 7.99951C28.6659 7.99954 32.152 9.52701 34.5543 12.1861C36.9566 14.8452 38.0387 18.3743 37.5202 21.8588L37.4993 21.9995C42.1017 21.9995 45.8327 25.5812 45.8327 29.9995C45.8327 34.4178 42.1017 37.9995 37.4993 37.9995H33.3327" stroke="#009CF9" stroke-width="2" stroke-linecap="round" stroke-linejoin="round"/>
</svg>
