<svg width="30" height="28" viewBox="0 0 30 28" fill="none" xmlns="http://www.w3.org/2000/svg">
<path d="M17.4998 5.99902L4.49976 6.49902L2.49976 7.99902L1.49976 9.49902L0.999756 13.499L1.99976 15.999L3.99976 17.999L5.99976 19.999L6.49976 21.499L7.49976 22.999L7.99976 24.999L8.99976 26.499L9.99976 26.999H11.9998L12.9998 25.499V23.999L12.4998 21.499L11.4998 19.499H14.9998H17.4998L18.4998 19.999L20.4998 20.999L22.4998 22.499L23.9998 23.999H25.4998H26.9998L28.4998 21.999V6.49902L28.9998 4.49902L27.9998 3.49902L26.9998 1.49902H24.9998L20.4998 4.49902L17.4998 5.99902Z" fill="#009CF9"/>
<path fill-rule="evenodd" clip-rule="evenodd" d="M17.9987 19.5016L7.49737 19.4986C4.18249 19.4986 1.49487 16.8095 1.49487 13.4931V11.997C1.49487 8.68064 4.18249 5.99302 7.49887 5.99302H18.0002L23.8107 2.02236C25.8035 0.661297 28.5061 2.08839 28.5061 4.5014V20.9963C28.5061 23.4093 25.802 24.8364 23.8107 23.4738L17.9987 19.5016Z" stroke="#009CF9" stroke-width="1.5" stroke-linecap="round" stroke-linejoin="round"/>
<path d="M17.9998 3.99902V20.999" stroke="#E5F5FF" stroke-width="1.8" stroke-linecap="round" stroke-linejoin="round"/>
<path d="M5.99658 19.502L8.29104 25.2914C8.70071 26.3268 9.69412 27.0051 10.7971 27.0051V27.0051C12.7044 27.0051 14.0099 25.0633 13.3061 23.273L11.822 19.502" stroke="#009CF9" stroke-width="1.8" stroke-linecap="round" stroke-linejoin="round"/>
</svg>
