<svg width="36" height="36" viewBox="0 0 36 36" fill="none" xmlns="http://www.w3.org/2000/svg">
<path d="M20.4998 8.99902L7.49976 9.49902L5.49976 10.999L4.49976 12.499L3.99976 16.499L4.99976 18.999L6.99976 20.999L8.99976 22.999L9.49976 24.499L10.4998 25.999L10.9998 27.999L11.9998 29.499L12.9998 29.999H14.9998L15.9998 28.499V26.999L15.4998 24.499L14.4998 22.499H17.9998H20.4998L21.4998 22.999L23.4998 23.999L25.4998 25.499L26.9998 26.999H28.4998H29.9998L31.4998 24.999V9.49902L31.9998 7.49902L30.9998 6.49902L29.9998 4.49902H27.9998L23.4998 7.49902L20.4998 8.99902Z" fill="#009CF9"/>
<path fill-rule="evenodd" clip-rule="evenodd" d="M20.9987 22.5016L10.4974 22.4986C7.18249 22.4986 4.49487 19.8095 4.49487 16.4931V14.997C4.49487 11.6806 7.18249 8.99302 10.4989 8.99302H21.0002L26.8107 5.02236C28.8035 3.6613 31.5061 5.08839 31.5061 7.5014V23.9963C31.5061 26.4093 28.802 27.8364 26.8107 26.4738L20.9987 22.5016Z" stroke="#009CF9" stroke-width="1.5" stroke-linecap="round" stroke-linejoin="round"/>
<path d="M20.9998 6.99902V23.999" stroke="#E5F5FF" stroke-width="1.8" stroke-linecap="round" stroke-linejoin="round"/>
<path d="M8.99658 22.502L11.291 28.2914C11.7007 29.3268 12.6941 30.0051 13.7971 30.0051V30.0051C15.7044 30.0051 17.0099 28.0633 16.3061 26.273L14.822 22.502" stroke="#009CF9" stroke-width="1.8" stroke-linecap="round" stroke-linejoin="round"/>
</svg>
